<?xml version="1.0" encoding="UTF-8"?>
<!DOCTYPE svg PUBLIC "-//W3C//DTD SVG 1.1//EN" "http://www.w3.org/Graphics/SVG/1.1/DTD/svg11.dtd">
<!-- Creator: CorelDRAW 2020 (64-Bit) -->
<svg xmlns="http://www.w3.org/2000/svg" xml:space="preserve" width="169.333mm" height="108.304mm" version="1.1" style="shape-rendering:geometricPrecision; text-rendering:geometricPrecision; image-rendering:optimizeQuality; fill-rule:evenodd; clip-rule:evenodd"
viewBox="0 0 16933.32 10830.38"
 xmlns:xlink="http://www.w3.org/1999/xlink"
 xmlns:xodm="http://www.corel.com/coreldraw/odm/2003">
 <defs>
  <style type="text/css">
   <![CDATA[
    .fil0 {fill:#2B2A29;fill-rule:nonzero}
   ]]>
  </style>
 </defs>
 <g id="Warstwa_x0020_1">
  <metadata id="CorelCorpID_0Corel-Layer"/>
  <path class="fil0" d="M16195.57 1960.06l-15325.71 0c-111.59,0 -205.71,36.87 -285.27,116.92 -77.14,77.14 -116.92,171.26 -116.92,282.36l0 7638.6c0,99.94 39.78,191.15 116.92,268.29 79.56,77.13 173.68,116.92 285.27,116.92l15325.71 0c99.94,0 188.24,-39.79 268.29,-116.92 77.14,-77.14 116.92,-168.35 116.92,-268.29l0 -7638.6c0,-122.74 -39.78,-219.77 -116.92,-291.09 -80.05,-73.74 -168.35,-108.19 -268.29,-108.19zm0 8037.88l-15325.71 0 0 -7638.6 15325.71 0 0 7638.6zm251.31 -8488.58l-1888.67 0c-22.8,0 -45.6,11.65 -68.4,31.54 -19.9,22.8 -31.05,51.42 -31.05,85.38 0,19.89 11.15,42.7 31.05,65.5 22.8,22.8 45.6,34.44 68.4,34.44l1888.67 0c76.65,0 142.63,28.63 191.15,82.48 50.94,57.25 76.65,116.92 76.65,182.9 0,22.8 11.64,45.6 31.53,68.4 22.8,22.8 45.61,33.96 68.41,33.96 34.44,0 60.16,-11.16 82.96,-33.96 22.8,-22.8 33.96,-45.6 33.96,-68.4 11.64,-119.83 -33.96,-231.42 -133.9,-333.78 -99.94,-99.94 -216.86,-148.46 -350.76,-148.46zm-14056.58 9125.09l-1888.67 0c-76.65,0 -142.63,-28.62 -191.15,-82.96 -50.94,-57.25 -76.65,-116.92 -76.65,-185.32 -11.64,-34.45 -22.8,-60.16 -40.27,-82.96 -16.98,-22.81 -48.51,-33.96 -91.2,-33.96 -45.61,0 -74.23,11.15 -85.39,33.96 -11.64,22.8 -16.98,48.51 -16.98,82.96 0,133.9 45.61,245.48 133.9,333.78 88.3,91.2 202.31,133.9 333.78,133.9l1905.16 0c22.81,0 45.61,-11.16 68.41,-33.96 22.8,-20.38 34.44,-43.18 34.44,-65.98 0,-33.96 -8.73,-59.68 -25.71,-73.75 -16.98,-17.46 -36.87,-25.71 -59.67,-25.71zm-316.8 -7205.37c65.49,0 128.08,-19.89 182.41,-65.49 57.25,-45.61 85.87,-105.76 85.87,-182.9 0,-79.57 -25.71,-142.64 -77.13,-193.58 -48.52,-48.51 -114.01,-74.22 -191.15,-74.22 -68.41,0 -128.56,25.71 -185.33,74.22 -54.33,50.94 -82.96,114.01 -82.96,193.58 0,77.14 28.63,137.29 82.96,182.9 56.77,45.6 116.92,65.49 185.33,65.49zm0 -382.29c45.6,0 77.14,11.64 99.94,31.53 22.8,22.8 33.96,56.76 33.96,102.37 0,31.53 -11.16,63.07 -33.96,91.69 -22.8,28.14 -54.34,39.78 -99.94,39.78 -34.45,0 -65.49,-11.64 -91.21,-39.78 -28.62,-28.62 -42.69,-60.16 -42.69,-91.69 0,-45.61 14.07,-79.57 42.69,-102.37 25.72,-19.89 56.76,-31.53 91.21,-31.53zm2589.7 382.29c57.25,0 111.58,-19.89 168.35,-65.49 54.33,-45.61 82.96,-105.76 82.96,-182.9 0,-79.57 -22.81,-142.64 -65.5,-193.58 -45.6,-48.51 -108.67,-74.22 -185.81,-74.22 -88.29,0 -156.7,25.71 -199.39,74.22 -45.61,50.94 -68.41,114.01 -68.41,193.58 0,77.14 22.8,137.29 68.41,182.9 42.69,45.6 111.1,65.49 199.39,65.49zm0 -382.29c34.45,0 63.07,11.64 82.96,31.53 22.8,22.8 34.45,56.76 34.45,102.37 0,31.53 -11.65,63.07 -34.45,91.69 -19.89,28.14 -48.51,39.78 -82.96,39.78 -45.6,0 -76.65,-11.64 -99.45,-39.78 -22.8,-28.62 -34.45,-60.16 -34.45,-91.69 0,-45.61 11.65,-79.57 34.45,-102.37 22.8,-19.89 53.85,-31.53 99.45,-31.53zm2573.21 382.29c68.4,0 128.08,-19.89 185.32,-65.49 54.34,-45.61 82.48,-105.76 82.48,-182.9 0,-79.57 -25.23,-142.64 -73.74,-193.58 -51.43,-48.51 -114.5,-74.22 -194.06,-74.22 -77.14,0 -139.72,25.71 -191.15,74.22 -51.42,50.94 -74.23,114.01 -74.23,193.58 0,77.14 22.81,137.29 74.23,182.9 51.43,45.6 114.01,65.49 191.15,65.49zm0 -382.29c45.6,0 79.56,11.64 102.36,31.53 20.38,22.8 31.54,56.76 31.54,102.37 0,31.53 -11.16,63.07 -31.54,91.69 -22.8,28.14 -56.76,39.78 -102.36,39.78 -42.69,0 -77.14,-11.64 -99.94,-39.78 -22.8,-28.62 -31.54,-60.16 -31.54,-91.69 0,-45.61 8.74,-79.57 31.54,-102.37 22.8,-19.89 57.25,-31.53 99.94,-31.53zm2575.63 382.29c65.5,0 128.56,-19.89 182.42,-65.49 57.24,-45.61 85.87,-105.76 85.87,-182.9 0,-79.57 -25.72,-142.64 -77.14,-193.58 -48.52,-48.51 -114.01,-74.22 -191.15,-74.22 -68.4,0 -125.65,25.71 -177.08,74.22 -48.03,50.94 -73.74,114.01 -73.74,193.58 0,77.14 22.8,137.29 65.5,182.9 45.6,45.6 105.27,65.49 185.32,65.49zm0 -382.29c42.69,0 77.14,11.64 99.94,31.53 22.8,22.8 33.96,56.76 33.96,102.37 0,31.53 -11.16,63.07 -33.96,91.69 -22.8,28.14 -57.25,39.78 -99.94,39.78 -34.44,0 -65.49,-11.64 -91.21,-39.78 -28.62,-28.62 -42.69,-60.16 -42.69,-91.69 0,-45.61 14.07,-79.57 42.69,-102.37 25.72,-19.89 56.77,-31.53 91.21,-31.53zm2590.19 382.29c65.49,0 125.17,-19.89 176.59,-65.49 48.52,-45.61 74.23,-105.76 74.23,-182.9 0,-79.57 -22.8,-142.64 -68.41,-193.58 -42.69,-48.51 -105.76,-74.22 -182.41,-74.22 -65.98,0 -128.57,25.71 -182.9,74.22 -56.76,50.94 -85.39,114.01 -85.39,193.58 0,77.14 25.72,137.29 77.14,182.9 48.52,45.6 114.01,65.49 191.15,65.49zm0 -382.29c33.96,0 62.58,11.64 91.21,31.53 28.62,22.8 42.69,56.76 42.69,102.37 0,31.53 -14.07,63.07 -42.69,91.69 -28.63,28.14 -57.25,39.78 -91.21,39.78 -46.09,0 -77.14,-11.64 -99.94,-39.78 -22.8,-28.62 -34.45,-60.16 -34.45,-91.69 0,-45.61 11.65,-79.57 34.45,-102.37 22.8,-19.89 53.85,-31.53 99.94,-31.53zm2572.72 382.29c68.41,0 128.08,-19.89 185.32,-65.49 54.34,-45.61 82.96,-105.76 82.96,-182.9 0,-79.57 -25.71,-142.64 -74.22,-193.58 -51.43,-48.51 -114.01,-74.22 -194.06,-74.22 -65.49,0 -128.56,25.71 -182.41,74.22 -57.25,50.94 -82.96,114.01 -82.96,193.58 0,77.14 22.8,137.29 74.22,182.9 51.43,45.6 114.01,65.49 191.15,65.49zm0 -382.29c45.6,0 80.05,11.64 102.85,31.53 19.89,22.8 31.05,56.76 31.05,102.37 0,31.53 -11.16,63.07 -31.05,91.69 -22.8,28.14 -57.25,39.78 -102.85,39.78 -31.53,0 -62.58,-11.64 -91.21,-39.78 -28.62,-28.62 -42.69,-60.16 -42.69,-91.69 0,-45.61 14.07,-79.57 42.69,-102.37 28.63,-19.89 59.68,-31.53 91.21,-31.53zm0 2338.88c68.41,0 128.08,-25.71 185.32,-74.23 54.34,-50.94 82.96,-114.01 82.96,-193.57 0,-65.98 -25.71,-128.56 -74.22,-182.9 -51.43,-56.76 -114.01,-85.38 -194.06,-85.38 -65.49,0 -128.56,25.71 -182.41,77.13 -57.25,48.52 -82.96,114.01 -82.96,191.15 0,79.56 22.8,142.63 74.22,193.57 51.43,48.52 114.01,74.23 191.15,74.23zm0 -367.74c45.6,0 80.05,11.16 102.85,33.96 19.89,22.8 31.05,54.34 31.05,99.94 0,34.45 -16.98,57.25 -48.51,74.23 -33.96,16.98 -62.59,25.71 -85.39,25.71 -31.53,0 -62.58,-11.64 -91.21,-34.45 -28.62,-19.89 -42.69,-53.85 -42.69,-99.45 0,-34.44 14.07,-57.25 42.69,-74.23 28.63,-17.46 59.68,-25.71 91.21,-25.71zm-12901.45 4429.86c65.49,0 128.08,-25.72 182.41,-77.14 57.25,-48.52 85.87,-114.01 85.87,-191.15 0,-77.14 -25.71,-142.63 -77.13,-191.15 -48.52,-51.42 -114.01,-77.13 -191.15,-77.13 -68.41,0 -128.56,25.71 -185.33,77.13 -54.33,48.52 -82.96,114.01 -82.96,191.15 0,77.14 28.63,142.63 82.96,191.15 56.77,51.42 116.92,77.14 185.33,77.14zm0 -402.19c45.6,0 77.14,11.16 99.94,33.96 22.8,22.8 33.96,54.34 33.96,99.94 0,34.45 -11.16,65.5 -33.96,91.21 -22.8,28.62 -54.34,42.69 -99.94,42.69 -34.45,0 -65.49,-14.07 -91.21,-42.69 -28.62,-25.71 -42.69,-56.76 -42.69,-91.21 0,-45.6 14.07,-77.14 42.69,-99.94 25.72,-22.8 56.76,-33.96 91.21,-33.96zm2589.7 402.19c57.25,0 111.58,-25.72 168.35,-77.14 54.33,-48.52 82.96,-114.01 82.96,-191.15 0,-77.14 -22.81,-142.63 -65.5,-191.15 -45.6,-51.42 -108.67,-77.13 -185.81,-77.13 -88.29,0 -156.7,25.71 -199.39,77.13 -45.61,48.52 -68.41,114.01 -68.41,191.15 0,77.14 22.8,142.63 68.41,191.15 42.69,51.42 111.1,77.14 199.39,77.14zm0 -402.19c34.45,0 63.07,11.16 82.96,33.96 22.8,22.8 34.45,54.34 34.45,99.94 0,34.45 -11.65,65.5 -34.45,91.21 -19.89,28.62 -48.51,42.69 -82.96,42.69 -45.6,0 -76.65,-14.07 -99.45,-42.69 -22.8,-25.71 -34.45,-56.76 -34.45,-91.21 0,-45.6 11.65,-77.14 34.45,-99.94 22.8,-22.8 53.85,-33.96 99.45,-33.96zm2573.21 402.19c68.4,0 128.08,-25.72 185.32,-77.14 54.34,-48.52 82.48,-114.01 82.48,-191.15 0,-77.14 -25.23,-142.63 -73.74,-191.15 -51.43,-51.42 -114.5,-77.13 -194.06,-77.13 -77.14,0 -139.72,25.71 -191.15,77.13 -51.42,48.52 -74.23,114.01 -74.23,191.15 0,77.14 22.81,142.63 74.23,191.15 51.43,51.42 114.01,77.14 191.15,77.14zm0 -402.19c45.6,0 79.56,11.16 102.36,33.96 20.38,22.8 31.54,54.34 31.54,99.94 0,34.45 -11.16,65.5 -31.54,91.21 -22.8,28.62 -56.76,42.69 -102.36,42.69 -42.69,0 -77.14,-14.07 -99.94,-42.69 -22.8,-25.71 -31.54,-56.76 -31.54,-91.21 0,-45.6 8.74,-77.14 31.54,-99.94 22.8,-22.8 57.25,-33.96 99.94,-33.96zm2575.63 402.19c65.5,0 128.56,-25.72 182.42,-77.14 57.24,-48.52 85.87,-114.01 85.87,-191.15 0,-77.14 -25.72,-142.63 -77.14,-191.15 -48.52,-51.42 -114.01,-77.13 -191.15,-77.13 -68.4,0 -125.65,25.71 -177.08,77.13 -48.03,48.52 -73.74,114.01 -73.74,191.15 0,77.14 22.8,142.63 65.5,191.15 45.6,51.42 105.27,77.14 185.32,77.14zm0 -402.19c42.69,0 77.14,11.16 99.94,33.96 22.8,22.8 33.96,54.34 33.96,99.94 0,34.45 -11.16,65.5 -33.96,91.21 -22.8,28.62 -57.25,42.69 -99.94,42.69 -34.44,0 -65.49,-14.07 -91.21,-42.69 -28.62,-25.71 -42.69,-56.76 -42.69,-91.21 0,-45.6 14.07,-77.14 42.69,-99.94 25.72,-22.8 56.77,-33.96 91.21,-33.96zm2590.19 402.19c65.49,0 125.17,-25.72 176.59,-77.14 48.52,-48.52 74.23,-114.01 74.23,-191.15 0,-77.14 -22.8,-142.63 -68.41,-191.15 -42.69,-51.42 -105.76,-77.13 -182.41,-77.13 -65.98,0 -128.57,25.71 -182.9,77.13 -56.76,48.52 -85.39,114.01 -85.39,191.15 0,77.14 25.72,142.63 77.14,191.15 48.52,51.42 114.01,77.14 191.15,77.14zm0 -402.19c33.96,0 62.58,11.16 91.21,33.96 28.62,22.8 42.69,54.34 42.69,99.94 0,34.45 -14.07,65.5 -42.69,91.21 -28.63,28.62 -57.25,42.69 -91.21,42.69 -46.09,0 -77.14,-14.07 -99.94,-42.69 -22.8,-25.71 -34.45,-56.76 -34.45,-91.21 0,-45.6 11.65,-77.14 34.45,-99.94 22.8,-22.8 53.85,-33.96 99.94,-33.96zm2572.72 402.19c68.41,0 128.08,-25.72 185.32,-77.14 54.34,-48.52 82.96,-114.01 82.96,-191.15 0,-77.14 -25.71,-142.63 -74.22,-191.15 -51.43,-51.42 -114.01,-77.13 -194.06,-77.13 -65.49,0 -128.56,25.71 -182.41,77.13 -57.25,48.52 -82.96,114.01 -82.96,191.15 0,77.14 22.8,142.63 74.22,191.15 51.43,51.42 114.01,77.14 191.15,77.14zm0 -402.19c45.6,0 80.05,11.16 102.85,33.96 19.89,22.8 31.05,54.34 31.05,99.94 0,34.45 -11.16,65.5 -31.05,91.21 -22.8,28.62 -57.25,42.69 -102.85,42.69 -31.53,0 -62.58,-14.07 -91.21,-42.69 -28.62,-25.71 -42.69,-56.76 -42.69,-91.21 0,-45.6 14.07,-77.14 42.69,-99.94 28.63,-22.8 59.68,-33.96 91.21,-33.96zm0 -1520.44c68.41,0 128.08,-25.71 185.32,-74.23 54.34,-51.42 82.96,-114.01 82.96,-194.06 0,-65.49 -25.71,-128.07 -74.22,-182.41 -51.43,-57.25 -114.01,-85.39 -194.06,-85.39 -65.49,0 -128.56,25.72 -182.41,76.66 -57.25,48.51 -82.96,114.49 -82.96,191.14 0,68.41 22.8,128.57 74.22,185.33 51.43,54.33 114.01,82.96 191.15,82.96zm0 -402.19c45.6,0 80.05,11.16 102.85,33.96 19.89,23.29 31.05,57.25 31.05,99.94 0,34.45 -11.16,65.5 -31.05,91.21 -22.8,28.62 -57.25,43.18 -102.85,43.18 -31.53,0 -62.58,-14.56 -91.21,-43.18 -28.62,-25.71 -42.69,-56.76 -42.69,-91.21 0,-42.69 14.07,-76.65 42.69,-99.94 28.63,-22.8 59.68,-33.96 91.21,-33.96zm-12901.45 -1737.3c65.49,0 128.08,-25.71 182.41,-74.23 57.25,-50.94 85.87,-114.01 85.87,-193.57 0,-65.98 -25.71,-128.56 -77.13,-182.9 -48.52,-56.76 -114.01,-85.38 -191.15,-85.38 -68.41,0 -128.56,25.71 -185.33,77.13 -54.33,48.52 -82.96,114.01 -82.96,191.15 0,79.56 28.63,142.63 82.96,193.57 56.77,48.52 116.92,74.23 185.33,74.23zm0 -367.74c45.6,0 77.14,11.16 99.94,33.96 22.8,22.8 33.96,54.34 33.96,99.94 0,34.45 -11.16,57.25 -33.96,74.23 -22.8,16.98 -54.34,25.71 -99.94,25.71 -34.45,0 -65.49,-11.64 -91.21,-34.45 -28.62,-19.89 -42.69,-53.85 -42.69,-99.45 0,-34.44 14.07,-57.25 42.69,-74.23 25.72,-17.46 56.76,-25.71 91.21,-25.71zm0 2507.23c65.49,0 128.08,-25.71 182.41,-74.23 57.25,-51.42 85.87,-114.01 85.87,-194.06 0,-65.49 -25.71,-128.07 -77.13,-182.41 -48.52,-57.25 -114.01,-85.39 -191.15,-85.39 -68.41,0 -128.56,25.72 -185.33,76.66 -54.33,48.51 -82.96,114.49 -82.96,191.14 0,68.41 28.63,128.57 82.96,185.33 56.77,54.33 116.92,82.96 185.33,82.96zm0 -402.19c45.6,0 77.14,11.16 99.94,33.96 22.8,23.29 33.96,57.25 33.96,99.94 0,34.45 -11.16,65.5 -33.96,91.21 -22.8,28.62 -54.34,43.18 -99.94,43.18 -34.45,0 -65.49,-14.56 -91.21,-43.18 -28.62,-25.71 -42.69,-56.76 -42.69,-91.21 0,-42.69 14.07,-76.65 42.69,-99.94 25.72,-22.8 56.76,-33.96 91.21,-33.96zm767.01 -5915.85l151.37 51.42c34.44,11.16 62.58,25.72 82.96,48.52 22.8,22.8 39.78,50.94 50.94,85.38l51.42 148.46c0,11.16 5.83,22.8 14.56,33.96 11.16,11.64 22.8,17.46 33.96,17.46 22.8,0 40.27,-5.82 51.42,-17.46 11.65,-11.16 16.98,-22.8 16.98,-33.96l48.52 -148.46c11.64,-34.44 28.62,-62.58 51.42,-85.38 22.81,-22.8 48.52,-37.36 82.96,-48.52l150.88 -51.42c11.65,0 22.8,-5.82 34.45,-16.98 8.25,-11.64 14.07,-25.71 14.07,-48.52 0,-11.64 -5.82,-22.8 -14.07,-34.44 -11.65,-11.16 -22.8,-16.98 -34.45,-16.98l-150.88 -48.52c-34.44,-11.64 -60.15,-28.62 -82.96,-51.42 -22.8,-22.8 -39.78,-51.43 -51.42,-82.96l0 -202.31c-11.16,-31.53 -33.96,-48.51 -65.5,-48.51 -34.44,0 -57.24,16.98 -68.4,48.51l-48.52 151.37c-11.64,22.8 -31.53,48.51 -59.67,74.23 -28.62,28.13 -51.42,48.03 -74.23,59.67l-168.34 51.42c-11.64,0 -22.8,5.83 -31.54,14.07 -11.15,11.65 -16.98,22.81 -16.98,34.45 0,33.96 2.92,56.76 8.25,68.4 5.82,8.74 14.56,25.72 22.8,48.52zm419.65 -268.29c11.16,34.45 36.87,71.32 74.23,108.68 39.78,39.78 76.65,65.49 108.19,76.65 -31.54,11.64 -68.41,34.44 -108.19,65.98 -37.36,33.96 -63.07,73.74 -74.23,116.92 -11.64,-43.18 -34.44,-82.96 -68.4,-116.92 -31.54,-31.54 -71.32,-54.34 -116.92,-65.98 45.6,-11.16 85.38,-36.87 116.92,-76.65 33.96,-37.36 56.76,-74.23 68.4,-108.68zm1052.28 -450.7l168.35 51.43c19.89,11.64 42.69,28.62 65.49,57.25 22.8,28.14 40.27,53.85 51.43,76.65l65.49 148.45c0,22.81 5.82,39.79 17.47,51.43 11.16,11.16 22.8,16.98 33.96,16.98 11.64,0 19.89,-5.82 31.53,-16.98 11.64,-11.64 16.98,-28.62 16.98,-51.43l51.43 -148.45c11.64,-22.8 31.53,-48.51 57.24,-76.65 28.14,-28.63 53.85,-45.61 76.66,-57.25l148.45 -51.43c22.8,0 39.78,-5.82 51.43,-16.98 11.64,-11.64 16.98,-22.8 16.98,-31.53 0,-11.16 -5.34,-22.8 -16.98,-33.96 -11.65,-11.64 -28.63,-17.47 -51.43,-17.47l-148.45 -50.94c-22.81,-20.37 -48.52,-43.17 -76.66,-65.98 -25.71,-22.8 -45.6,-45.6 -57.24,-65.49l-51.43 -168.35c-11.16,-22.8 -31.05,-33.96 -65.49,-33.96 -34.45,0 -57.25,11.16 -68.41,33.96l-48.51 168.35c-11.65,19.89 -31.54,42.69 -59.68,65.49 -25.71,22.81 -51.42,45.61 -74.22,65.98l-151.37 50.94c-22.8,0 -39.78,5.83 -48.51,17.47 -11.16,11.16 -16.98,22.8 -16.98,33.96 0,8.73 11.16,19.89 31.05,31.53 23.28,11.16 40.26,16.98 51.42,16.98zm419.65 -233.84c8.25,34.45 33.96,71.32 73.74,108.68 40.27,39.78 74.23,65.49 108.68,76.65 -34.45,8.73 -68.41,31.53 -108.68,65.49 -39.78,34.45 -65.49,71.32 -73.74,117.41 -11.64,-46.09 -34.44,-82.96 -68.89,-117.41 -33.96,-33.96 -70.83,-56.76 -116.92,-65.49 46.09,-11.16 82.96,-36.87 116.92,-76.65 34.45,-37.36 57.25,-74.23 68.89,-108.68z"/>
 </g>
</svg>
