<?xml version="1.0" encoding="UTF-8"?>
<!DOCTYPE svg PUBLIC "-//W3C//DTD SVG 1.1//EN" "http://www.w3.org/Graphics/SVG/1.1/DTD/svg11.dtd">
<!-- Creator: CorelDRAW 2020 (64-Bit) -->
<svg xmlns="http://www.w3.org/2000/svg" xml:space="preserve" width="109.22mm" height="105.579mm" version="1.1" style="shape-rendering:geometricPrecision; text-rendering:geometricPrecision; image-rendering:optimizeQuality; fill-rule:evenodd; clip-rule:evenodd"
viewBox="0 0 10921.98 10557.92"
 xmlns:xlink="http://www.w3.org/1999/xlink"
 xmlns:xodm="http://www.corel.com/coreldraw/odm/2003">
 <defs>
  <style type="text/css">
   <![CDATA[
    .fil0 {fill:none}
    .fil1 {fill:#2B2A29;fill-rule:nonzero}
   ]]>
  </style>
 </defs>
 <g id="Warstwa_x0020_1">
  <metadata id="CorelCorpID_0Corel-Layer"/>
  <rect class="fil0" x="-0.02" y="4.23" width="10921.99" height="10557.93"/>
  <path class="fil1" d="M7905.93 1088.36c-5.24,-68.11 -34.92,-129.23 -85.57,-179.88 -52.39,-50.64 -118.75,-76.84 -200.84,-76.84l-4317.08 0c-75.09,0 -139.71,26.2 -195.59,76.84 -54.14,50.65 -83.83,111.77 -90.81,179.88l-440.09 5626.87c0,41.92 5.24,80.34 13.97,118.76 10.48,36.67 33.18,69.85 68.11,96.05 19.21,27.94 48.9,50.64 85.57,66.36 38.42,17.47 76.84,26.2 118.75,26.2l5197.27 0c41.91,0 80.33,-8.73 118.75,-26.2 36.67,-15.72 66.36,-38.42 85.57,-66.36 27.95,-33.18 48.9,-68.11 62.87,-101.29 12.23,-34.93 19.21,-71.6 19.21,-113.52l-440.09 -5626.87zm-5043.58 5647.83l440.09 -5628.62 4317.08 0 440.1 5628.62 -5197.27 0zm4696.05 461.05l-4338.04 0c-41.91,0 -75.09,13.97 -103.03,45.4 -26.2,31.44 -40.17,66.37 -40.17,108.28 0,40.17 13.97,75.09 40.17,101.29 27.94,27.94 61.12,41.91 103.03,41.91l4338.04 0c41.91,0 75.1,-13.97 103.04,-41.91 26.19,-26.2 40.17,-61.12 40.17,-101.29 0,-41.91 -13.98,-76.84 -40.17,-108.28 -27.94,-31.43 -61.13,-45.4 -103.04,-45.4zm-2762.79 501.21l-378.97 0c-26.19,0 -50.64,8.73 -71.6,24.45 -19.21,17.46 -29.69,36.68 -29.69,57.63l-532.65 2537.51c-6.98,26.19 0,54.14 20.96,82.08 20.96,26.2 47.15,40.17 82.08,40.17l368.49 0c19.21,0 40.17,-6.99 61.12,-20.96 20.96,-12.22 29.69,-33.18 29.69,-61.12l553.61 -2527.03c6.98,-34.93 0,-64.62 -20.96,-92.56 -20.96,-26.2 -47.15,-40.17 -82.08,-40.17zm1648.59 0l-389.44 0c-27.94,0 -50.65,13.97 -71.6,40.17 -20.96,27.94 -27.95,57.63 -20.96,92.56l532.65 2527.03c6.98,27.94 19.21,48.9 34.93,61.12 17.46,13.97 36.67,20.96 57.63,20.96l377.22 0c27.94,0 52.39,-13.97 71.6,-40.17 20.96,-27.94 27.94,-55.89 20.96,-82.08l-511.7 -2537.51c0,-20.95 -10.47,-40.17 -29.68,-57.63 -20.96,-15.72 -45.41,-24.45 -71.61,-24.45zm-819.05 0l-389.45 0c-33.18,0 -59.38,12.23 -76.84,34.93 -17.46,24.45 -24.45,50.64 -24.45,76.84l19.21 1370.92c0,34.93 10.48,61.12 31.44,76.84 20.95,17.46 43.65,26.2 71.6,26.2l368.49 0c26.19,0 48.89,-10.48 66.36,-31.44 17.46,-19.21 26.19,-43.66 26.19,-71.6l0 -1370.92c0,-26.2 -10.47,-52.39 -31.43,-76.84 -20.96,-22.7 -40.17,-34.93 -61.12,-34.93zm-358.01 -7039.7l387.69 0c20.96,0 40.17,-6.99 57.64,-20.96 15.71,-13.97 24.44,-34.93 24.44,-61.12l0 -195.6c0,-19.21 -8.73,-38.42 -24.44,-55.88 -17.47,-17.47 -36.68,-26.2 -57.64,-26.2l-387.69 0c-20.96,0 -40.17,8.73 -57.64,26.2 -15.71,17.46 -24.44,36.67 -24.44,55.88l0 195.6c0,26.19 8.73,47.15 24.44,61.12 17.47,13.97 36.68,20.96 57.64,20.96zm787.62 0l501.21 0c27.94,0 47.16,-6.99 61.13,-20.96 13.97,-13.97 20.95,-34.93 20.95,-61.12l0 -368.49c0,-27.94 -6.98,-48.9 -20.95,-61.13 -13.97,-13.97 -33.19,-20.95 -61.13,-20.95l-501.21 0c-20.96,0 -40.17,6.98 -55.89,20.95 -17.46,12.23 -26.19,33.19 -26.19,61.13l0 368.49c0,26.19 8.73,47.15 26.19,61.12 15.72,13.97 34.93,20.96 55.89,20.96zm-1709.72 0l501.22 0c27.94,0 48.89,-6.99 62.87,-20.96 12.22,-13.97 19.21,-34.93 19.21,-61.12l0 -368.49c0,-27.94 -6.99,-48.9 -19.21,-61.13 -13.98,-13.97 -34.93,-20.95 -62.87,-20.95l-501.22 0c-19.21,0 -38.42,6.98 -55.88,20.95 -17.47,12.23 -24.45,33.19 -24.45,61.13l0 368.49c0,26.19 8.73,47.15 29.69,61.12 20.95,13.97 38.42,20.96 50.64,20.96zm2088.69 4481.24l-1004.18 -890.66 869.7 -562.34c20.96,-13.97 40.17,-33.18 57.63,-55.88 15.72,-24.45 27.95,-50.65 34.93,-76.85 13.97,-20.95 24.45,-43.66 31.44,-66.36 6.98,-24.45 10.48,-50.64 10.48,-76.84 0,-20.96 -6.99,-43.66 -20.96,-66.36 -13.97,-24.45 -31.44,-50.65 -50.65,-76.84 -13.97,-20.96 -33.18,-40.17 -57.63,-57.63 -22.7,-15.72 -45.4,-27.95 -66.36,-34.93 -26.2,-13.97 -52.39,-24.45 -76.84,-31.44 -22.71,-6.98 -52.39,-8.73 -85.58,-8.73 -27.94,0 -55.88,3.49 -82.08,13.97 -27.94,10.48 -55.88,22.7 -82.08,36.68l-1012.9 665.37 10.48 -1627.64c0,-27.94 -3.5,-52.39 -10.48,-76.84 -6.99,-24.45 -13.97,-45.4 -20.96,-66.36 -13.97,-27.94 -29.69,-48.9 -45.41,-66.36 -17.46,-17.47 -40.16,-29.69 -66.36,-36.68 -20.96,-12.22 -45.41,-20.95 -71.6,-24.45 -27.94,-3.49 -55.89,-5.24 -82.08,-5.24 -34.93,0 -64.62,3.5 -92.56,10.48 -27.94,6.99 -50.65,12.23 -71.6,19.21 -27.94,13.97 -48.9,29.69 -66.37,47.16 -17.46,17.46 -33.18,34.92 -47.15,55.88 -19.21,20.96 -33.18,41.91 -40.16,66.36 -6.99,24.45 -10.48,48.9 -10.48,76.84l-82.08 3152.24c0,33.18 3.49,64.62 10.47,90.81 6.99,27.95 20.96,52.39 41.92,71.61 12.22,27.94 27.94,50.64 45.4,68.1 17.47,15.72 38.43,31.44 66.37,45.41 20.95,20.96 43.66,33.18 71.6,40.17 27.94,6.98 57.63,10.48 92.56,10.48 26.19,0 54.14,-3.5 82.08,-10.48 26.19,-6.99 50.64,-19.21 71.6,-40.17 26.2,-13.97 50.65,-29.69 71.6,-45.41 19.21,-17.46 33.18,-40.16 40.17,-68.1 20.96,-19.22 34.93,-43.66 41.91,-71.61 5.24,-26.19 8.74,-57.63 8.74,-90.81l20.95 -768.41 1094.99 983.22c13.97,13.97 29.69,24.45 47.15,34.92 15.72,10.48 38.42,19.22 66.36,26.2 12.23,6.99 31.44,12.23 55.89,15.72 24.45,3.49 41.91,5.24 55.88,5.24 20.96,0 40.17,-3.5 61.13,-10.48 20.95,-6.99 41.91,-13.97 61.12,-20.96 27.94,-13.97 50.65,-27.94 66.36,-40.16 17.47,-13.98 36.68,-27.95 57.64,-41.92 19.21,-26.19 34.92,-52.39 45.4,-76.84 10.48,-22.7 19.21,-52.39 26.2,-87.32 12.22,-26.19 15.71,-54.14 10.48,-80.33 -6.99,-27.95 -13.98,-55.89 -20.96,-82.08 0,0 -6.99,-10.48 -20.96,-31.44 -13.97,-20.96 -26.19,-40.17 -40.16,-61.12z"/>
 </g>
</svg>
