<?xml version="1.0" encoding="UTF-8"?>
<!DOCTYPE svg PUBLIC "-//W3C//DTD SVG 1.1//EN" "http://www.w3.org/Graphics/SVG/1.1/DTD/svg11.dtd">
<!-- Creator: CorelDRAW 2020 (64-Bit) -->
<svg xmlns="http://www.w3.org/2000/svg" xml:space="preserve" width="109.22mm" height="105.579mm" version="1.1" style="shape-rendering:geometricPrecision; text-rendering:geometricPrecision; image-rendering:optimizeQuality; fill-rule:evenodd; clip-rule:evenodd"
viewBox="0 0 10921.98 10557.92"
 xmlns:xlink="http://www.w3.org/1999/xlink"
 xmlns:xodm="http://www.corel.com/coreldraw/odm/2003">
 <defs>
  <style type="text/css">
   <![CDATA[
    .fil0 {fill:none}
    .fil1 {fill:#2B2A29;fill-rule:nonzero}
   ]]>
  </style>
 </defs>
 <g id="Warstwa_x0020_1">
  <metadata id="CorelCorpID_0Corel-Layer"/>
  <rect class="fil0" x="-0.02" y="4.23" width="10921.99" height="10557.93"/>
  <path class="fil1" d="M10461.33 483.15l-10011.51 0c-64.97,0 -120.91,25.26 -169.63,73.98 -50.53,48.72 -73.98,108.27 -73.98,178.65l0 9094.81c0,70.38 23.45,129.93 73.98,178.65 48.72,48.73 104.66,73.99 169.63,73.99l10011.51 0c70.38,0 131.73,-25.26 180.45,-73.99 48.73,-48.72 73.99,-108.27 73.99,-178.65l0 -9094.81c0,-70.38 -25.26,-129.93 -73.99,-178.65 -48.72,-48.72 -110.07,-73.98 -180.45,-73.98zm0 252.63l0 4484.25 -10011.51 0 0 -4484.25 10011.51 0zm-10011.51 9094.81l0 -4347.1 10011.51 0 0 4347.1 -10011.51 0zm1532.04 -6545.01c281.51,0 521.51,-99.25 720.01,-297.75 196.69,-196.69 295.94,-436.7 295.94,-718.2 0,-281.51 -99.25,-521.51 -295.94,-718.2 -198.5,-198.5 -438.5,-295.95 -720.01,-295.95 -281.51,0 -521.51,97.45 -718.2,295.95 -198.5,196.69 -295.94,436.69 -295.94,718.2 0,281.5 99.24,521.51 301.35,718.2 200.3,198.5 438.5,297.75 712.79,297.75zm0 -1766.64c211.13,0 393.39,75.79 544.97,227.38 151.58,151.58 227.37,330.22 227.37,534.14 0,211.12 -75.79,393.38 -227.37,544.96 -151.58,151.58 -333.84,227.37 -544.97,227.37 -203.91,0 -382.56,-75.79 -534.14,-227.37 -151.58,-151.58 -227.37,-337.44 -227.37,-555.79 0,-211.13 75.79,-389.78 227.37,-534.14 151.58,-144.36 330.23,-216.55 534.14,-216.55zm-84.81 3150.71c28.87,21.65 59.55,32.48 95.64,32.48 36.09,0 66.76,-10.83 95.64,-32.48l1427.38 -1449.04 1447.23 1449.04c7.22,7.22 19.85,14.43 37.89,21.65 18.05,7.22 34.29,10.83 46.92,10.83 21.65,0 39.7,-3.61 54.14,-10.83 14.43,-7.22 23.46,-14.43 30.67,-21.65l1966.94 -1966.94c55.94,-55.94 129.92,-84.81 221.95,-84.81 92.04,0 166.02,28.87 221.96,84.81l1903.78 1892.95c27.06,28.88 59.55,43.31 95.64,43.31 34.28,0 63.15,-14.43 84.81,-43.31 27.07,-21.65 41.5,-48.72 41.5,-84.81 0,-34.29 -14.43,-66.77 -41.5,-93.84l-1914.6 -1862.27c-106.47,-111.88 -238.2,-167.82 -397,-167.82 -158.8,0 -290.53,55.94 -395.19,167.82l-1873.1 1862.27 -1447.23 -1449.03c-7.22,-7.22 -18.05,-14.44 -32.48,-21.65 -14.44,-7.22 -32.48,-10.83 -52.33,-10.83 -14.44,0 -28.87,3.61 -43.31,10.83 -12.63,7.21 -27.07,14.43 -41.51,21.65l-1512.19 1532.04c-36.09,28.88 -52.33,57.75 -52.33,84.82 0,28.87 10.83,57.74 30.68,84.81zm7602.47 -750.68c7.22,7.21 14.43,10.82 21.65,10.82 7.22,0 18.05,0 30.68,0 7.22,0 14.44,0 21.65,0 7.22,0 14.44,-3.61 21.66,-10.82 21.65,-21.66 32.48,-37.9 32.48,-52.34 0,-14.43 -10.83,-32.48 -32.48,-54.13l-1501.37 -1490.54c-14.43,-19.85 -30.68,-30.68 -46.92,-30.68 -18.04,0 -34.28,10.83 -48.72,30.68 -14.43,14.44 -21.65,30.68 -21.65,48.72 0,16.24 7.22,32.48 21.65,46.92l1501.37 1501.37zm-2769.95 -1616.86c7.22,0 16.24,0 27.07,0 10.82,0 18.04,-7.22 25.26,-21.65 106.47,-106.47 238.2,-175.04 397,-205.72 158.79,-32.48 308.57,-16.24 449.32,46.92 21.66,7.21 39.7,7.21 52.34,0 14.43,-7.22 25.26,-18.05 32.48,-32.48 7.21,-19.85 7.21,-37.9 0,-52.34 -7.22,-14.43 -18.05,-25.26 -32.48,-30.67 -167.83,-77.6 -344.67,-99.25 -528.73,-64.97 -182.26,36.09 -337.45,117.3 -463.76,243.62 -21.66,14.43 -32.49,30.67 -32.49,48.72 0,16.24 10.83,32.48 32.49,46.92 5.41,0 12.63,3.6 19.85,10.82 7.21,7.22 14.43,10.83 21.65,10.83zm-3975.37 4016.88c-28.88,0 -48.73,7.21 -63.16,21.65 -14.44,14.44 -21.66,34.29 -21.66,63.16l0 665.87 -687.52 0c-21.65,0 -39.7,7.22 -57.75,21.65 -18.04,14.44 -27.06,30.68 -27.06,52.33 0,28.88 9.02,50.53 27.06,63.16 18.05,14.44 36.1,21.66 57.75,21.66l772.34 0c21.65,0 39.7,-7.22 57.74,-21.66 18.05,-12.63 27.07,-34.28 27.07,-63.16l0 -739.85c0,-28.87 -9.02,-48.72 -27.07,-63.16 -18.04,-14.44 -36.09,-21.65 -57.74,-21.65zm1575.35 0c-21.66,0 -39.7,7.21 -52.33,21.65 -14.44,14.44 -21.66,34.29 -21.66,63.16l0 665.87 -687.52 0c-28.87,0 -48.72,7.22 -63.16,21.65 -14.44,14.44 -21.65,30.68 -21.65,52.33 0,28.88 7.21,50.53 21.65,63.16 14.44,14.44 34.29,21.66 63.16,21.66l761.51 0c28.87,0 48.72,-7.22 63.16,-21.66 14.43,-12.63 21.65,-34.28 21.65,-63.16l0 -739.85c0,-28.87 -7.22,-48.72 -21.65,-63.16 -14.44,-14.44 -34.29,-21.65 -63.16,-21.65zm1586.18 0c-21.66,0 -41.51,7.21 -57.75,21.65 -18.04,14.44 -27.06,34.29 -27.06,63.16l0 665.87 -676.7 0c-28.87,0 -48.72,7.22 -63.16,21.65 -14.44,14.44 -21.66,30.68 -21.66,52.33 0,28.88 7.22,50.53 21.66,63.16 14.44,14.44 34.29,21.66 63.16,21.66l761.51 0c27.07,0 48.72,-7.22 63.16,-21.66 14.43,-12.63 21.65,-34.28 21.65,-63.16l0 -739.85c0,-28.87 -7.22,-48.72 -21.65,-63.16 -14.44,-14.44 -36.09,-21.65 -63.16,-21.65zm1586.18 0c-28.88,0 -50.53,7.21 -63.16,21.65 -14.44,14.44 -21.66,34.29 -21.66,63.16l0 665.87 -687.52 0c-21.65,0 -39.7,7.22 -57.75,21.65 -18.04,14.44 -27.06,30.68 -27.06,52.33 0,28.88 9.02,50.53 27.06,63.16 18.05,14.44 36.1,21.66 57.75,21.66l772.34 0c19.85,0 39.7,-7.22 57.74,-21.66 18.05,-12.63 27.07,-34.28 27.07,-63.16l0 -739.85c0,-28.87 -9.02,-48.72 -27.07,-63.16 -18.04,-14.44 -37.89,-21.65 -57.74,-21.65zm-4747.71 1575.35c-28.88,0 -48.73,9.02 -63.16,27.07 -14.44,18.04 -21.66,36.09 -21.66,57.74l0 665.87 -687.52 0c-21.65,0 -39.7,9.02 -57.75,27.07 -18.04,18.04 -27.06,36.09 -27.06,57.74 0,28.88 9.02,48.73 27.06,63.16 18.05,14.44 36.1,21.66 57.75,21.66l772.34 0c21.65,0 39.7,-7.22 57.74,-21.66 18.05,-14.43 27.07,-34.28 27.07,-63.16l0 -750.68c0,-21.65 -9.02,-39.7 -27.07,-57.74 -18.04,-18.05 -36.09,-27.07 -57.74,-27.07zm1575.35 0c-21.66,0 -39.7,9.02 -52.33,27.07 -14.44,18.04 -21.66,36.09 -21.66,57.74l0 665.87 -687.52 0c-28.87,0 -48.72,9.02 -63.16,27.07 -14.44,18.04 -21.65,36.09 -21.65,57.74 0,28.88 7.21,48.73 21.65,63.16 14.44,14.44 34.29,21.66 63.16,21.66l761.51 0c28.87,0 48.72,-7.22 63.16,-21.66 14.43,-14.43 21.65,-34.28 21.65,-63.16l0 -750.68c0,-21.65 -7.22,-39.7 -21.65,-57.74 -14.44,-18.05 -34.29,-27.07 -63.16,-27.07zm1586.18 0c-21.66,0 -41.51,9.02 -57.75,27.07 -18.04,18.04 -27.06,36.09 -27.06,57.74l0 665.87 -676.7 0c-28.87,0 -48.72,9.02 -63.16,27.07 -14.44,18.04 -21.66,36.09 -21.66,57.74 0,28.88 7.22,48.73 21.66,63.16 14.44,14.44 34.29,21.66 63.16,21.66l761.51 0c27.07,0 48.72,-7.22 63.16,-21.66 14.43,-14.43 21.65,-34.28 21.65,-63.16l0 -750.68c0,-21.65 -7.22,-39.7 -21.65,-57.74 -14.44,-18.05 -36.09,-27.07 -63.16,-27.07zm1586.18 0c-28.88,0 -50.53,9.02 -63.16,27.07 -14.44,18.04 -21.66,36.09 -21.66,57.74l0 665.87 -687.52 0c-21.65,0 -39.7,9.02 -57.75,27.07 -18.04,18.04 -27.06,36.09 -27.06,57.74 0,28.88 9.02,48.73 27.06,63.16 18.05,14.44 36.1,21.66 57.75,21.66l772.34 0c19.85,0 39.7,-7.22 57.74,-21.66 18.05,-14.43 27.07,-34.28 27.07,-63.16l0 -750.68c0,-21.65 -9.02,-39.7 -27.07,-57.74 -18.04,-18.05 -37.89,-27.07 -57.74,-27.07zm1575.35 -1575.35c-21.66,0 -39.7,7.21 -54.14,21.65 -12.63,14.44 -19.85,34.29 -19.85,63.16l0 665.87 -687.52 0c-28.87,0 -48.72,7.22 -63.16,21.65 -14.44,14.44 -21.65,30.68 -21.65,52.33 0,28.88 7.21,50.53 21.65,63.16 14.44,14.44 34.29,21.66 63.16,21.66l761.51 0c27.07,0 48.72,-7.22 63.16,-21.66 14.43,-12.63 21.65,-34.28 21.65,-63.16l0 -739.85c0,-28.87 -7.22,-48.72 -21.65,-63.16 -14.44,-14.44 -36.09,-21.65 -63.16,-21.65z"/>
 </g>
</svg>
