<?xml version="1.0" encoding="UTF-8"?>
<!DOCTYPE svg PUBLIC "-//W3C//DTD SVG 1.1//EN" "http://www.w3.org/Graphics/SVG/1.1/DTD/svg11.dtd">
<!-- Creator: CorelDRAW 2020 (64-Bit) -->
<svg xmlns="http://www.w3.org/2000/svg" xml:space="preserve" width="109.22mm" height="105.579mm" version="1.1" style="shape-rendering:geometricPrecision; text-rendering:geometricPrecision; image-rendering:optimizeQuality; fill-rule:evenodd; clip-rule:evenodd"
viewBox="0 0 10921.98 10557.92"
 xmlns:xlink="http://www.w3.org/1999/xlink"
 xmlns:xodm="http://www.corel.com/coreldraw/odm/2003">
 <defs>
  <style type="text/css">
   <![CDATA[
    .fil0 {fill:none}
    .fil1 {fill:#2B2A29;fill-rule:nonzero}
   ]]>
  </style>
 </defs>
 <g id="Warstwa_x0020_1">
  <metadata id="CorelCorpID_0Corel-Layer"/>
  <rect class="fil0" x="-0.02" y="4.23" width="10921.99" height="10557.93"/>
  <path class="fil1" d="M8609.19 254l-6984.32 0c-46.06,0 -86.9,17.09 -119.34,49.53 -33.89,33.89 -50.98,73.28 -50.98,119.05l0 9719.49c0,47.5 17.09,86.6 50.98,120.78 32.44,32.44 73.28,49.53 119.34,49.53l5357.65 0c27.52,0 53.01,-3.48 75.02,-10.43 23.75,-6.66 42.58,-18.53 56.19,-39.1l1606.11 -1646.95c13.61,-13.61 23.75,-32.15 28.97,-54.45 6.66,-23.75 10.13,-49.24 10.13,-74.73l0 -8064.14c13.62,-45.77 3.48,-85.16 -28.96,-119.05 -34.18,-32.44 -73.28,-49.53 -120.79,-49.53zm-6984.32 168.58l6965.5 0 0 7973.77 -1607.85 0c-18.54,0 -39.1,10.13 -59.38,30.7 -18.82,18.54 -28.96,39.1 -28.96,59.67l0 1655.35 -5269.31 0 0 -9719.49zm5458.16 9620.72l0 -1476.64 1447.67 0 -1447.67 1476.64zm1416.97 -339.18l-240.12 248.8c-6.67,6.67 -8.4,13.62 -8.4,20.28 0,6.95 1.73,17.09 8.4,28.97 0,0 3.47,1.73 10.13,5.21 6.96,3.47 13.91,5.21 20.57,5.21 6.95,0 11.87,0 15.35,0 3.48,0 8.4,-3.47 15.35,-10.42l238.38 -258.66c6.96,-6.95 10.14,-13.62 10.14,-20.57 0,-4.92 -3.18,-11.87 -10.14,-18.82 -13.61,-6.67 -25.49,-10.14 -34.17,-10.14 -10.14,0 -18.54,3.47 -25.49,10.14zm907.76 -3901.59c-6.66,0 -13.61,3.48 -20.28,10.14 -5.21,5.21 -8.69,12.17 -8.69,18.83l0 2246.23c0,112.39 -11.87,223.32 -35.62,333.97 -24.04,108.91 -54.46,214.63 -95.59,313.4 -25.49,86.89 -62.85,166.84 -108.91,240.12 -46.05,73.28 -100.5,146.27 -160.17,219.55 -13.62,20.57 -28.97,40.84 -49.24,64.88 -20.57,23.76 -39.11,40.85 -59.67,54.46l-40.84 50.98c-6.95,5.21 -10.14,13.61 -10.14,23.75 0,10.43 3.19,18.83 10.14,25.78 0,0 3.47,1.74 10.14,4.92 6.95,3.48 13.61,5.22 20.56,5.22 6.66,0 11.88,0 15.35,0 3.48,0 8.4,-3.48 15.35,-10.14l49.24 -49.53c20.57,-27.23 39.11,-52.72 59.67,-75.02 20.57,-23.75 39.11,-45.77 59.67,-64.59 59.67,-73.29 114.12,-148.3 159.89,-224.77 46.05,-76.76 90.37,-158.44 129.47,-245.34 40.84,-112.38 69.81,-224.76 90.37,-333.67 20.28,-110.65 28.97,-224.77 28.97,-344.11l0 -2236.09c-11.88,-6.66 -23.75,-13.62 -34.18,-18.83 -10.14,-6.66 -18.54,-10.14 -25.49,-10.14zm0 -2135.59c-6.66,0 -13.61,3.48 -20.28,10.14 -5.21,6.95 -8.69,12.17 -8.69,18.83l0 1696.19c0,6.95 3.48,13.61 8.69,20.56 6.67,6.67 13.62,10.14 20.28,10.14 6.95,0 13.61,-3.47 20.56,-10.14 6.67,-6.95 10.14,-13.61 10.14,-20.56l0 -1696.19c0,-6.66 -3.47,-11.88 -10.14,-18.83 -6.95,-6.66 -13.61,-10.14 -20.56,-10.14zm-3472.61 -2026.68l1606.11 0c20.56,0 40.84,-10.13 61.4,-28.96 18.54,-20.28 28.97,-44.32 28.97,-69.81 0,-20.27 -10.43,-40.84 -28.97,-59.66 -20.56,-20.28 -40.84,-30.42 -61.4,-30.42l-1606.11 0c-25.49,0 -49.24,10.14 -69.81,30.42 -20.27,18.82 -28.96,39.39 -28.96,59.66 12.16,25.49 25.78,49.53 39.39,69.81 13.61,18.83 33.89,28.96 59.38,28.96zm-3302.01 1427.11l4010.49 0c20.57,0 41.13,-10.14 59.67,-28.97 20.56,-20.27 30.7,-44.02 30.7,-69.8 0,-20.28 -10.14,-40.84 -30.7,-61.12 -18.54,-18.83 -39.1,-28.96 -59.67,-28.96l-4010.49 0c-27.23,0 -49.53,10.13 -64.88,28.96 -16.8,20.28 -25.49,40.84 -25.49,61.12 0,25.78 8.69,49.53 25.49,69.8 15.35,18.83 37.65,28.97 64.88,28.97zm4010.49 529.77l-4010.49 0c-27.23,0 -49.53,10.14 -64.88,28.96 -16.8,20.57 -25.49,44.32 -25.49,69.81 0,20.56 8.69,40.84 25.49,61.4 15.35,18.54 37.65,28.97 64.88,28.97l4010.49 0c20.57,0 41.13,-10.43 59.67,-28.97 20.56,-20.56 30.7,-40.84 30.7,-61.4 -6.66,-25.49 -18.83,-49.24 -35.63,-69.81 -15.35,-18.82 -34.17,-28.96 -54.74,-28.96zm-1874.9 727.31l-2135.59 0c-27.23,0 -49.53,10.14 -64.88,30.41 -16.8,20.57 -25.49,39.39 -25.49,59.67 0,27.23 8.69,49.53 25.49,69.81 15.35,20.56 37.65,30.7 64.88,30.7l2135.59 0c25.49,0 49.24,-10.14 69.8,-30.7 18.83,-20.28 28.97,-42.58 28.97,-69.81 -6.95,-25.49 -18.83,-47.5 -34.18,-64.59 -16.8,-17.09 -39.1,-25.49 -64.59,-25.49zm-40.84 718.62l-2094.75 0c-27.23,0 -49.53,10.14 -64.88,30.7 -16.8,20.28 -25.49,42.58 -25.49,69.81 0,20.27 8.69,39.1 25.49,59.67 15.35,20.27 37.65,30.41 64.88,30.41l2094.75 0c20.27,0 40.84,-10.14 59.66,-30.41 20.28,-20.57 30.42,-39.4 30.42,-59.67 0,-27.23 -10.14,-49.53 -30.42,-69.81 -18.82,-20.56 -39.39,-30.7 -59.66,-30.7zm-1027.1 4111l-1067.65 0c-27.23,0 -49.53,8.69 -64.88,25.78 -16.8,16.8 -25.49,37.36 -25.49,64.59 0,27.23 8.69,47.79 25.49,64.59 15.35,17.09 37.65,25.78 64.88,25.78l1067.65 0c25.78,0 49.53,-8.69 69.8,-25.78 18.83,-16.8 28.97,-37.36 28.97,-64.59 0,-27.23 -10.14,-47.79 -28.97,-64.59 -20.27,-17.09 -44.02,-25.78 -69.8,-25.78z"/>
 </g>
</svg>
