<?xml version="1.0" encoding="UTF-8"?>
<!DOCTYPE svg PUBLIC "-//W3C//DTD SVG 1.1//EN" "http://www.w3.org/Graphics/SVG/1.1/DTD/svg11.dtd">
<!-- Creator: CorelDRAW 2020 (64-Bit) -->
<svg xmlns="http://www.w3.org/2000/svg" xml:space="preserve" width="109.22mm" height="105.579mm" version="1.1" style="shape-rendering:geometricPrecision; text-rendering:geometricPrecision; image-rendering:optimizeQuality; fill-rule:evenodd; clip-rule:evenodd"
viewBox="0 0 10921.98 10557.92"
 xmlns:xlink="http://www.w3.org/1999/xlink"
 xmlns:xodm="http://www.corel.com/coreldraw/odm/2003">
 <defs>
  <style type="text/css">
   <![CDATA[
    .fil0 {fill:none}
    .fil1 {fill:#2B2A29;fill-rule:nonzero}
   ]]>
  </style>
 </defs>
 <g id="Warstwa_x0020_1">
  <metadata id="CorelCorpID_0Corel-Layer"/>
  <rect class="fil0" x="-0.02" y="4.23" width="10921.99" height="10557.93"/>
  <path class="fil1" d="M10251.02 236.37l-5116.7 0c-13.98,0 -29.7,0 -47.17,0 -17.47,0 -31.44,3.49 -45.42,10.48l-4463.36 2007.21c-40.17,12.22 -76.87,41.92 -106.56,85.59 -31.45,45.42 -47.17,90.83 -47.17,139.76l0 7604.3c0,40.18 12.23,80.36 36.69,117.04 22.71,38.43 52.4,69.88 87.34,97.82 12.23,13.99 31.45,22.72 55.9,26.22 22.71,3.49 45.42,5.23 66.39,5.23 13.97,0 27.95,0 45.42,0 17.47,0 36.69,-3.49 55.89,-10.48l4269.46 -1954.79 5209.29 0c61.14,0 118.79,-24.46 169.46,-71.62 50.65,-48.92 76.85,-106.57 76.85,-174.7l0 -7635.75c0,-68.13 -22.71,-125.78 -66.37,-174.69 -45.42,-47.17 -104.82,-71.62 -179.94,-71.62zm0 5742.09l-3869.41 0c-162.46,0 -300.46,57.65 -414.02,169.46 -111.79,113.54 -169.44,248.06 -169.44,405.28l0 1554.75 134.51 0 0 -1554.75c0,-124.04 43.67,-228.84 132.76,-317.94 87.35,-89.09 193.91,-132.76 316.19,-132.76l3879.89 0 0 2005.45 -5272.18 0 -4318.36 1975.76 0 -7604.3 4339.33 -1935.59 0 920.62c0,27.96 12.23,55.91 36.68,82.11 22.71,27.95 52.41,41.93 87.35,41.93 40.18,0 73.36,-10.48 96.07,-31.45 24.46,-20.95 36.7,-50.66 36.7,-92.59l0 -971.27c0,0 0,0 0,0 0,0 0,0 0,0l4994.41 0 0 5485.29 -10.48 0zm-5116.7 -1739.92c-27.95,0 -55.91,10.48 -82.11,31.45 -27.95,20.96 -41.92,50.66 -41.92,92.59l0 971.27c0,27.96 12.23,54.16 36.68,82.11 22.71,27.95 52.41,41.93 87.35,41.93 40.18,0 73.36,-10.48 96.07,-31.45 24.46,-20.97 36.7,-50.66 36.7,-92.59l0 -971.27c-6.99,-41.93 -22.71,-71.63 -47.18,-92.59 -22.7,-20.97 -52.4,-31.45 -85.59,-31.45zm0 1935.58c-27.95,0 -55.91,10.49 -82.11,29.69 -27.95,20.97 -41.92,52.42 -41.92,92.59l0 973.04c0,26.2 12.23,54.14 36.68,82.1 22.71,26.2 52.41,40.18 87.35,40.18 40.18,0 73.36,-10.49 96.07,-31.44 24.46,-19.22 36.7,-50.67 36.7,-90.84l0 -973.04c-6.99,-40.17 -22.71,-71.62 -47.18,-92.59 -22.7,-19.2 -52.4,-29.69 -85.59,-29.69zm0 -3869.41c-27.95,0 -55.91,10.49 -82.11,29.69 -27.95,20.97 -41.92,52.42 -41.92,92.59l0 973.04c0,26.2 12.23,54.15 36.68,82.1 22.71,26.2 52.41,40.18 87.35,40.18 40.18,0 73.36,-10.49 96.07,-29.7 24.46,-20.96 36.7,-52.41 36.7,-92.58l0 -973.04c-6.99,-40.17 -22.71,-71.62 -47.18,-92.59 -22.7,-19.2 -52.4,-29.69 -85.59,-29.69zm1175.67 4360.3l153.72 0 0 153.73c0,13.97 3.51,24.45 10.49,29.69 6.99,6.99 17.47,10.48 31.44,10.48 19.21,0 33.2,-3.49 40.18,-10.48 6.99,-5.24 10.48,-15.72 10.48,-29.69l0 -153.73 143.25 0c20.96,0 34.94,-3.5 40.18,-10.48 6.98,-7 10.48,-17.48 10.48,-29.71 0,-20.96 -3.5,-34.94 -10.48,-41.92 -5.24,-6.99 -19.22,-10.48 -40.18,-10.48l-143.25 0 0 -143.26c0,-20.95 -3.49,-33.18 -10.48,-40.17 -6.98,-6.99 -20.97,-10.48 -40.18,-10.48 -13.97,0 -24.45,3.49 -31.44,10.48 -6.98,6.99 -10.49,19.22 -10.49,40.17l0 143.26 -153.72 0c-12.23,0 -22.71,3.49 -29.7,10.48 -6.99,6.98 -10.48,20.96 -10.48,41.92 0,12.23 3.49,22.71 10.48,29.71 6.99,6.98 17.47,10.48 29.7,10.48zm-2620.37 1504.08l-255.05 113.55c-20.96,6.99 -34.93,19.22 -41.93,34.94 -5.23,17.47 -5.23,33.19 0,47.17 13.98,6.99 24.46,12.23 31.45,19.22 6.98,6.98 20.97,10.48 40.18,10.48 6.99,0 12.23,0 15.73,0 3.49,0 8.72,0 15.71,0l256.8 -111.81c12.23,-6.99 22.71,-17.46 29.69,-31.45 7,-13.97 7,-29.69 0,-50.65 -6.98,-13.98 -20.95,-24.46 -40.17,-31.45 -20.97,-6.98 -38.43,-6.98 -52.41,0zm-613.17 276.02l-1760.88 768.64c-13.98,13.97 -24.45,27.95 -31.45,40.18 -5.24,13.97 -5.24,27.95 0,41.92 7,6.99 15.72,13.97 26.21,20.97 10.48,5.23 22.71,8.73 36.68,8.73 5.25,0 10.48,0 13.97,0 3.5,0 8.74,0 15.73,0l1750.41 -766.9c13.97,-6.98 24.46,-19.21 31.44,-36.68 6.99,-15.72 6.99,-31.44 0,-45.43 -6.98,-13.97 -19.21,-24.45 -36.69,-29.69 -17.46,-6.99 -31.44,-6.99 -45.42,-1.74z"/>
 </g>
</svg>
