<?xml version="1.0" encoding="UTF-8"?>
<!DOCTYPE svg PUBLIC "-//W3C//DTD SVG 1.1//EN" "http://www.w3.org/Graphics/SVG/1.1/DTD/svg11.dtd">
<!-- Creator: CorelDRAW 2020 (64-Bit) -->
<svg xmlns="http://www.w3.org/2000/svg" xml:space="preserve" width="109.22mm" height="105.579mm" version="1.1" style="shape-rendering:geometricPrecision; text-rendering:geometricPrecision; image-rendering:optimizeQuality; fill-rule:evenodd; clip-rule:evenodd"
viewBox="0 0 10921.98 10557.92"
 xmlns:xlink="http://www.w3.org/1999/xlink"
 xmlns:xodm="http://www.corel.com/coreldraw/odm/2003">
 <defs>
  <style type="text/css">
   <![CDATA[
    .fil0 {fill:none}
    .fil1 {fill:#2B2A29;fill-rule:nonzero}
   ]]>
  </style>
 </defs>
 <g id="Warstwa_x0020_1">
  <metadata id="CorelCorpID_0Corel-Layer"/>
  <rect class="fil0" x="-0.02" y="4.23" width="10921.99" height="10557.93"/>
  <path class="fil1" d="M9773.5 1706.64l-8625.03 0c-263.74,0 -488.28,92.67 -673.61,276.22 -183.55,185.33 -276.22,409.87 -276.22,673.61l0 4082.64c0,265.52 92.67,490.06 276.22,673.6 185.33,185.34 409.87,276.22 673.61,276.22l8625.03 0c263.74,0 488.28,-90.88 673.61,-276.22 183.55,-183.54 276.22,-408.08 276.22,-673.6l0 -4093.33c0,-263.74 -92.67,-486.5 -276.22,-668.26 -185.33,-179.99 -409.87,-270.88 -673.61,-270.88zm700.34 5012.86c0,194.25 -69.5,361.75 -204.93,500.76 -135.43,139 -301.16,208.5 -495.41,208.5l-8625.03 0c-187.11,0 -351.06,-67.72 -490.07,-203.16 -138.99,-135.44 -208.49,-304.73 -208.49,-506.1l0 -4073.72c0,-194.25 67.71,-361.75 203.15,-500.76 135.43,-138.99 301.16,-208.49 495.41,-208.49l8625.03 0c187.11,0 351.06,67.71 490.07,203.15 138.99,135.43 210.27,304.73 210.27,506.1l0 4073.72zm-8019.15 -4209.16c-390.26,0 -725.29,137.22 -1003.28,413.43 -278,274.44 -416.99,609.46 -416.99,1006.85 0,383.14 137.21,712.82 411.64,992.59 274.44,278 611.25,417 1008.63,417 388.49,0 721.73,-137.21 996.16,-411.65 274.43,-276.22 413.43,-607.68 413.43,-997.94 0,-397.39 -139,-732.41 -413.43,-1006.85 -274.43,-276.21 -607.67,-413.43 -996.16,-413.43zm0 2569.69c-320.75,0 -595.19,-115.82 -825.07,-345.71 -229.88,-229.88 -345.72,-504.31 -345.72,-825.08 0,-318.99 115.84,-595.21 345.72,-823.3 229.88,-229.89 504.32,-345.71 825.07,-345.71 318.99,0 593.42,115.82 823.31,345.71 229.88,228.09 345.71,504.31 345.71,823.3 0,327.89 -115.83,604.11 -345.71,830.42 -229.89,226.33 -504.32,340.37 -823.31,340.37zm6702.23 -513.22l-3695.93 0c-33.86,0 -65.94,12.47 -94.45,37.43 -26.73,24.94 -40.99,57.01 -40.99,99.78 0,33.86 12.48,64.16 35.64,87.33 24.95,24.94 58.81,37.42 99.8,37.42l3695.93 0c35.65,0 65.94,-12.48 94.45,-37.42 28.52,-23.17 40.98,-53.47 40.98,-87.33 0,-42.77 -10.69,-74.84 -35.63,-99.78 -24.95,-24.96 -57.03,-37.43 -99.8,-37.43zm0 773.4l-3695.93 0c-33.86,0 -65.94,12.47 -94.45,37.42 -26.73,23.17 -40.99,57.03 -40.99,98.02 0,42.76 12.48,73.06 35.64,94.44 24.95,21.38 58.81,32.08 99.8,32.08l3695.93 0c35.65,0 65.94,-10.7 94.45,-32.08 28.52,-21.38 40.98,-51.68 40.98,-94.44 0,-40.99 -10.69,-74.85 -35.63,-98.02 -24.95,-24.95 -57.03,-37.42 -99.8,-37.42zm-844.68 773.41l-2851.25 0c-33.86,0 -65.94,12.47 -94.45,35.63 -26.73,24.95 -40.99,57.03 -40.99,99.79 0,41 12.48,73.07 35.64,94.46 24.95,19.6 58.81,30.29 99.8,30.29l2851.25 0c26.73,0 55.24,-10.69 83.75,-30.29 26.73,-21.39 40.99,-53.46 40.99,-94.46 0,-42.76 -12.47,-74.84 -37.42,-99.79 -23.17,-23.16 -53.46,-35.63 -87.32,-35.63zm-5232.05 2619.58l-625.5 0c-21.38,0 -39.2,5.35 -53.46,16.04 -14.26,10.69 -19.6,26.73 -19.6,48.11 0,12.47 5.34,26.73 19.6,40.99 14.26,14.25 32.08,21.39 53.46,21.39l625.5 0c14.26,0 28.51,-7.14 42.77,-21.39 12.47,-14.26 19.6,-28.52 19.6,-40.99 0,-21.38 -7.13,-37.42 -19.6,-48.11 -14.26,-10.69 -28.51,-16.04 -42.77,-16.04zm2015.48 0l-1545.02 0c-14.26,0 -28.51,5.35 -42.77,16.04 -12.48,10.69 -19.6,26.73 -19.6,48.11 0,12.47 7.12,26.73 19.6,40.99 14.26,14.25 28.51,21.39 42.77,21.39l1545.02 0c21.38,0 37.42,-7.14 51.68,-21.39 14.25,-14.26 21.38,-28.52 21.38,-40.99 0,-21.38 -7.13,-37.42 -21.38,-48.11 -14.26,-10.69 -30.3,-16.04 -51.68,-16.04zm-1242.08 -417c0,-14.25 -7.13,-28.51 -21.39,-40.98 -14.25,-14.26 -32.07,-21.39 -51.67,-21.39l-627.28 0c-14.25,0 -26.73,7.13 -40.99,21.39 -14.25,12.47 -21.38,26.73 -21.38,40.98 0,21.38 7.13,37.43 21.38,46.34 14.26,10.69 26.74,16.04 40.99,16.04l627.28 0c19.6,0 37.42,-5.35 51.67,-16.04 14.26,-8.91 21.39,-24.96 21.39,-46.34zm-1106.65 0c0,-14.25 -7.12,-28.51 -21.38,-40.98 -14.25,-14.26 -28.51,-21.39 -42.77,-21.39l-1545.01 0c-19.61,0 -37.43,7.13 -51.69,21.39 -14.25,12.47 -21.38,26.73 -21.38,40.98 0,21.38 7.13,37.43 21.38,46.34 14.26,10.69 32.08,16.04 51.69,16.04l1545.01 0c14.26,0 28.52,-5.35 42.77,-16.04 14.26,-8.91 21.38,-24.96 21.38,-46.34z"/>
 </g>
</svg>
