<?xml version="1.0" encoding="UTF-8"?>
<!DOCTYPE svg PUBLIC "-//W3C//DTD SVG 1.1//EN" "http://www.w3.org/Graphics/SVG/1.1/DTD/svg11.dtd">
<!-- Creator: CorelDRAW 2020 (64-Bit) -->
<svg xmlns="http://www.w3.org/2000/svg" xml:space="preserve" width="109.22mm" height="105.579mm" version="1.1" style="shape-rendering:geometricPrecision; text-rendering:geometricPrecision; image-rendering:optimizeQuality; fill-rule:evenodd; clip-rule:evenodd"
viewBox="0 0 10921.98 10557.92"
 xmlns:xlink="http://www.w3.org/1999/xlink"
 xmlns:xodm="http://www.corel.com/coreldraw/odm/2003">
 <defs>
  <style type="text/css">
   <![CDATA[
    .fil0 {fill:none}
    .fil1 {fill:#2B2A29;fill-rule:nonzero}
   ]]>
  </style>
 </defs>
 <g id="Warstwa_x0020_1">
  <metadata id="CorelCorpID_0Corel-Layer"/>
  <rect class="fil0" x="-0.02" y="4.23" width="10921.99" height="10557.93"/>
  <path class="fil1" d="M3390.33 3755.87c7.02,0 15.8,0 26.34,0 10.53,0 19.31,-3.51 26.33,-10.53l2262.87 -1007.68c33.36,-14.04 56.19,-35.1 66.72,-66.71 10.53,-31.6 12.3,-63.19 5.28,-98.31 -21.09,-26.34 -45.66,-45.64 -72,-56.17 -28.08,-10.53 -57.93,-12.3 -93.03,-5.28l-2273.42 1007.68c-26.34,14.05 -45.64,36.87 -56.17,68.47 -10.55,29.84 -12.29,63.2 -5.27,96.56 21.06,21.06 38.61,38.62 56.18,50.91 17.55,14.04 36.85,21.06 56.17,21.06zm-122.89 1367.57c7.03,14.04 17.56,26.34 31.6,36.87 14.04,10.53 26.34,15.78 40.38,15.78 14.04,0 21.06,0 21.06,0 0,0 7.02,0 21.06,0l3444.37 -1543.1c28.1,-7.02 45.65,-22.83 52.67,-45.65 7.02,-24.58 7.02,-47.4 0,-68.47 -7.02,-26.33 -22.83,-43.89 -47.4,-50.91 -22.83,-7.02 -45.63,-7.02 -66.72,0l-3465.42 1543.13c-21.06,14.04 -35.11,31.59 -42.13,50.91 -7.02,21.06 -3.51,42.12 10.53,61.44zm258.07 484.53c5.25,0 10.53,0 14.04,0 3.51,0 8.79,0 15.81,0l3467.17 -1543.12c26.33,-7.02 43.89,-21.06 50.91,-40.38 7.04,-21.06 7.04,-45.64 0,-73.74 -7.02,-19.3 -22.81,-35.1 -45.64,-45.63 -24.57,-10.54 -47.4,-8.79 -66.71,5.25l-3467.18 1532.59c-28.1,7.02 -43.89,22.83 -50.91,45.66 -7.02,24.57 -7.02,47.4 0,68.46 7.02,19.3 15.79,33.36 29.83,40.38 14.06,7.02 31.62,10.53 52.68,10.53zm194.85 421.33c7.02,0 12.3,0 15.81,0 3.51,0 8.79,0 15.81,0l3465.42 -1543.13c28.09,-7.02 43.89,-19.31 50.91,-40.38 7.02,-21.06 7.02,-45.63 0,-71.97 -7.02,-21.06 -21.06,-36.87 -45.65,-47.4 -24.57,-8.78 -45.64,-7.02 -66.7,5.28l-3467.19 1532.57c-26.34,7.02 -43.89,22.83 -50.91,47.4 -7.02,22.83 -7.02,45.65 0,66.72 7.02,21.06 17.55,33.35 31.59,40.37 12.3,7.03 29.85,10.54 50.91,10.54zm3497.04 1183.23c7.02,28.09 21.07,43.89 42.13,50.91 19.31,7.03 43.89,10.54 71.97,10.54 5.28,0 14.06,0 24.59,0 10.53,0 19.3,-3.51 26.32,-10.54l904.11 -410.79c35.11,-14.06 56.17,-36.87 63.21,-66.72 7.02,-31.59 7.02,-59.69 0,-87.78 -14.06,-35.1 -36.87,-56.18 -66.72,-66.71 -31.59,-10.53 -64.95,-12.28 -98.31,-5.26l-905.86 410.79c-26.33,21.07 -47.4,47.41 -61.44,77.25 -14.04,31.6 -14.04,63.19 0,98.31zm-781.21 -6902.78c-14.06,-33.34 -33.36,-59.68 -56.18,-77.23 -24.58,-15.81 -47.4,-35.13 -68.47,-56.19 -19.31,-7.02 -36.86,-10.53 -50.91,-10.53 -14.04,0 -22.82,0 -29.84,0 -14.05,0 -29.85,0 -47.4,0 -17.56,0 -35.11,3.51 -56.17,10.53l-4845.29 2161.07c-61.44,19.32 -103.58,63.21 -128.15,128.16 -24.58,64.95 -22.83,128.14 5.27,189.6l3251.25 7324.09c0,0 0,1.75 0,5.26 0,3.51 0,8.79 0,15.81l80.74 -421.33 -307.21 -679.39c-56.18,-21.06 -101.82,-52.67 -140.43,-98.31 -36.87,-43.89 -59.7,-93.05 -66.72,-149.22 -7.02,-26.34 -8.78,-57.93 -5.27,-91.29 3.51,-35.1 8.78,-70.23 15.8,-103.59l-2601.71 -5893.32 4824.22 -2161.07 3260.04 7324.09 -3177.53 1409.71c-35.11,33.34 -70.21,59.68 -108.84,77.23 -36.87,15.81 -77.25,24.59 -117.63,24.59l-287.89 133.42c-7.02,35.1 -22.83,70.23 -47.4,108.84 -22.83,36.87 -52.68,70.23 -86.04,98.31 -7.02,5.26 -14.04,10.53 -21.06,14.04 -7.02,3.51 -17.55,8.79 -31.59,15.81l-10.53 103.57 3981.55 -1790.64c35.1,-14.06 61.44,-31.61 82.5,-56.19 21.08,-24.57 36.87,-45.63 50.91,-66.71 7.02,-35.11 10.53,-66.7 10.53,-98.31 0,-29.83 -3.51,-59.68 -10.53,-87.76l-3260.02 -7303.05zm-709.23 7992.97c-14.06,-68.47 -38.64,-129.91 -73.74,-184.33 -33.36,-56.18 -77.25,-96.56 -133.42,-124.65 -40.38,-26.33 -86.03,-47.4 -133.43,-61.44 -47.4,-14.04 -93.04,-21.08 -133.41,-21.08 -14.05,0 -29.85,0 -45.64,0 -17.57,0 -33.36,3.53 -47.4,10.55 -68.48,21.06 -128.16,49.15 -179.07,82.5 -52.68,35.11 -94.8,79 -129.92,133.42 -33.34,56.19 -57.93,114.12 -71.98,175.56 -12.27,61.44 -8.76,119.37 10.53,175.56 14.07,68.46 38.64,129.9 72,184.32 35.1,54.42 78.99,96.55 133.41,122.89 56.17,35.12 115.86,57.93 180.82,71.97 64.95,14.06 124.65,14.06 180.81,0 129.93,-26.32 231.75,-96.55 307.23,-210.66 75.48,-112.36 96.55,-231.73 63.21,-354.61zm-52.68 1028.74l21.06 -175.56c14.04,-7.02 31.62,-15.79 56.19,-29.85 24.57,-14.04 43.89,-31.59 56.17,-52.65l175.55 52.65c47.4,7.04 94.8,1.77 138.69,-15.79 43.89,-17.55 80.76,-45.65 108.85,-87.77 19.31,-33.36 29.84,-77.25 29.84,-128.16 0,-50.91 -17.55,-98.31 -50.91,-138.69l-114.11 -133.42c7.02,-21.06 12.29,-42.12 15.8,-61.44 3.51,-21.06 8.79,-45.65 15.81,-71.97l154.48 -93.06c33.36,-28.08 63.2,-63.18 87.78,-108.84 22.82,-43.89 31.59,-91.29 24.57,-138.69 -12.28,-47.4 -36.87,-87.78 -71.97,-117.61 -33.36,-31.61 -75.49,-50.91 -122.89,-56.18l-184.34 -21.07c-7.02,-14.04 -17.55,-31.59 -31.6,-50.91 -14.04,-21.06 -28.08,-42.14 -40.38,-63.2l40.38 -173.8c7.03,-49.14 3.51,-94.8 -10.53,-138.69 -14.04,-45.63 -40.38,-80.76 -82.5,-108.84 -40.38,-21.06 -87.78,-29.85 -138.69,-29.85 -50.91,0 -98.31,15.81 -138.69,50.91l-133.42 112.36c-21.08,-7.02 -42.14,-12.28 -61.44,-14.05 -21.08,-3.51 -42.14,-8.76 -61.46,-15.78l-103.56 -143.97c-21.07,-42.12 -52.68,-71.97 -98.32,-93.03 -43.89,-21.07 -89.52,-28.09 -138.69,-21.07 -47.4,7.03 -87.78,29.83 -117.62,66.7 -31.6,38.64 -52.66,80.76 -66.7,129.93l-10.53 173.79c-21.08,7.02 -42.15,17.55 -61.44,31.59 -21.09,14.04 -38.64,29.85 -52.68,50.91l-184.32 -50.91c-47.4,-7.02 -94.8,-1.74 -138.69,15.81 -45.66,15.79 -77.25,45.63 -98.31,86.01 -26.34,35.11 -38.62,77.25 -35.11,129.91 3.51,50.91 17.55,96.56 45.64,138.69l114.11 133.43c-7.02,26.32 -12.29,49.15 -15.8,66.7 -3.51,17.55 -8.79,38.63 -15.81,66.72l-154.48 71.97c-40.38,28.08 -73.73,63.21 -98.31,108.84 -22.82,43.89 -31.59,89.55 -24.57,138.69 14.04,47.4 36.85,86.02 71.97,117.63 33.36,31.59 75.49,49.14 122.89,56.17l184.32 21.06c7.02,14.06 17.55,33.36 31.61,56.18 14.05,24.58 31.6,43.89 50.92,56.19l-50.92 175.54c-7.02,47.4 -3.51,94.8 10.54,138.69 14.04,45.65 40.38,80.76 82.5,108.84 21.06,7.02 36.87,12.3 50.91,19.32 14.04,7.02 31.59,10.53 50.91,10.53l-163.26 895.33 400.26 -247.54 308.98 370.42 165.02 -874.26c0,0 3.51,0 10.53,0 5.26,0 8.77,0 8.77,0 7.02,0 14.04,0 21.06,0 7.04,0 14.06,0 21.08,0 61.45,-7.03 107.08,-28.09 138.69,-66.7 31.6,-36.87 49.15,-80.76 56.17,-128.16zm-287.91 -308.97c-28.08,14.04 -49.15,21.06 -66.7,21.06 -17.57,0 -38.63,0 -66.71,0 -61.45,0 -121.14,-8.77 -180.82,-26.34 -57.93,-17.55 -114.12,-45.64 -168.54,-87.76 -75.48,-47.4 -136.92,-107.1 -186.09,-179.07 -47.4,-71.97 -78.99,-145.71 -91.29,-221.19 -14.04,-82.53 -14.04,-166.8 0,-252.81 12.3,-84.27 43.89,-165.03 91.29,-240.51 49.17,-68.46 108.84,-128.16 180.82,-175.56 71.99,-47.38 149.22,-78.99 231.74,-93.04 177.31,-33.35 340.57,-5.25 488.04,87.78 147.46,93.04 238.75,228.22 272.11,407.29 35.1,170.28 3.51,331.8 -93.06,482.77 -94.8,150.98 -231.72,244.02 -410.79,277.38zm-3240.72 -3086.25c-5.26,-19.3 -14.04,-31.59 -24.57,-35.1 -10.54,-3.51 -22.83,-5.26 -36.87,-5.26 -19.32,0 -31.6,7.02 -35.11,21.06 -3.51,12.28 -5.27,29.85 -5.27,50.91l266.85 575.81c0,14.06 5.25,24.59 15.8,31.61 10.53,7.02 19.3,8.77 26.32,8.77 0,0 3.51,0 8.79,0 7.02,0 10.53,0 10.53,0 14.04,-12.28 22.83,-22.81 26.34,-29.83 3.51,-7.02 5.25,-21.08 5.25,-40.38l-258.06 -577.59zm-1213.07 -2745.66c-7.02,-14.04 -15.8,-22.8 -26.34,-26.31 -8.78,-3.52 -24.57,-5.28 -45.63,-5.28 -14.06,7.02 -22.83,19.32 -26.34,36.87 -3.51,17.55 -5.27,31.59 -5.27,45.63l1070.88 2387.54c0,5.26 7.02,12.3 21.06,19.32 12.3,7.02 22.83,10.53 29.85,10.53 0,0 3.51,0 10.53,0 7.02,0 10.53,0 10.53,0 14.05,-7.02 21.07,-15.81 24.58,-24.59 3.51,-10.53 5.27,-26.32 5.27,-47.38l-1069.12 -2396.33zm7838.48 1367.57c0,7.02 7.02,14.06 21.06,21.08 12.29,7.02 22.83,10.53 29.85,10.53 0,0 3.51,0 10.53,0 7.02,0 10.53,0 10.53,0 14.04,-7.02 22.83,-15.81 26.34,-26.34 1.74,-10.53 3.51,-22.83 3.51,-35.1l-266.85 -607.42c-7.02,-14.06 -14.04,-22.83 -21.06,-26.34 -7.02,-3.51 -19.32,-5.27 -40.38,-5.27 -14.04,7.02 -22.83,15.81 -26.34,26.34 -3.51,10.53 -5.26,22.82 -5.26,35.1l258.07 607.42zm1316.65 2684.21l-1069.12 -2375.24c-7.02,-21.06 -15.81,-33.34 -26.34,-36.85 -10.53,-1.76 -22.83,-3.51 -36.87,-3.51 -19.32,12.28 -31.59,22.81 -35.1,29.83 -3.51,7.02 -5.28,21.08 -5.28,42.14l1069.12 2375.25c0,14.04 7.02,22.8 21.07,26.31 14.06,3.51 24.59,5.28 31.61,5.28 0,0 1.74,0 8.76,0 7.03,0 10.54,0 10.54,0 14.06,-7.02 24.59,-14.04 31.61,-21.06 7.02,-7.02 7.02,-21.07 0,-42.15z"/>
 </g>
</svg>
