<?xml version="1.0" encoding="UTF-8"?>
<!DOCTYPE svg PUBLIC "-//W3C//DTD SVG 1.1//EN" "http://www.w3.org/Graphics/SVG/1.1/DTD/svg11.dtd">
<!-- Creator: CorelDRAW 2020 (64-Bit) -->
<svg xmlns="http://www.w3.org/2000/svg" xml:space="preserve" width="109.22mm" height="105.579mm" version="1.1" style="shape-rendering:geometricPrecision; text-rendering:geometricPrecision; image-rendering:optimizeQuality; fill-rule:evenodd; clip-rule:evenodd"
viewBox="0 0 10921.98 10557.92"
 xmlns:xlink="http://www.w3.org/1999/xlink"
 xmlns:xodm="http://www.corel.com/coreldraw/odm/2003">
 <defs>
  <style type="text/css">
   <![CDATA[
    .fil0 {fill:none}
    .fil1 {fill:#2B2A29;fill-rule:nonzero}
   ]]>
  </style>
 </defs>
 <g id="Warstwa_x0020_1">
  <metadata id="CorelCorpID_0Corel-Layer"/>
  <rect class="fil0" x="-0.02" y="4.23" width="10921.99" height="10557.93"/>
  <path class="fil1" d="M1620.96 6513.44c-19.14,0 -36.51,6.77 -50.35,20.61 -13.84,12.07 -20.61,29.44 -20.61,50.35l0 304.47c0,13.84 6.77,26.21 20.61,40.05 13.84,13.84 31.21,20.61 50.35,20.61 13.84,0 27.68,-6.77 41.52,-20.61 13.84,-13.84 19.14,-26.21 19.14,-40.05l0 -304.47c0,-27.68 -5.3,-45.05 -19.14,-55.65 -13.84,-10.31 -27.68,-15.31 -41.52,-15.31zm0 770.3c-19.14,0 -36.51,7.07 -50.35,20.91 -13.84,13.83 -20.61,27.67 -20.61,39.75l0 1613.63c0,20.61 6.77,37.98 20.61,50.06 13.84,13.84 31.21,20.9 50.35,20.9 13.84,0 27.68,-7.06 41.52,-20.9 13.84,-12.08 19.14,-29.45 19.14,-50.06l0 -1613.63c0,-12.08 -5.3,-25.92 -19.14,-39.75 -13.84,-13.84 -27.68,-20.91 -41.52,-20.91zm-415.48 425.79c-20.91,0 -36.51,7.06 -50.35,20.9 -13.84,13.84 -20.61,31.21 -20.61,50.06l0 304.76c0,13.84 6.77,27.68 20.61,41.52 13.84,12.37 29.44,19.14 50.35,19.14 13.84,0 27.68,-6.77 39.75,-19.14 13.84,-13.84 20.91,-27.68 20.91,-41.52l0 -304.76c0,-18.85 -7.07,-36.22 -20.91,-50.06 -12.07,-13.84 -25.91,-20.9 -39.75,-20.9zm0 -2100.08c-20.91,0 -36.51,5.3 -50.35,15.61 -13.84,10.6 -20.61,25.91 -20.61,46.81l0 1611.87c0,13.84 6.77,27.68 20.61,41.52 13.84,12.07 29.44,19.14 50.35,19.14 13.84,0 27.68,-7.07 39.75,-19.14 13.84,-13.84 20.91,-27.68 20.91,-41.52l0 -1611.87c0,-20.9 -7.07,-36.21 -20.91,-46.81 -12.07,-10.31 -25.91,-15.61 -39.75,-15.61zm2363.03 -2292.06c0,0 1.76,0 5.3,0 3.53,0 1.76,0 -5.3,0 528.26,-13.84 1030.31,31.21 1506.45,131.62 477.9,101.88 922.83,261.18 1334.77,477.61 7.07,0 12.08,0 15.61,0 3.53,0 8.54,0 13.84,0 13.84,0 25.91,-3.24 36.22,-10.3 10.6,-6.78 22.67,-13.84 36.51,-20.62 5.3,-14.13 5.3,-27.97 -1.77,-45.05 -5.3,-17.37 -19.14,-29.44 -39.75,-36.51 -419.01,-223.2 -872.77,-386.04 -1359.22,-491.75 -486.44,-103.65 -1000.57,-146.93 -1542.66,-126.32 -18.85,0 -36.22,7.07 -50.06,20.91 -13.84,12.07 -20.91,25.91 -20.91,39.75 0,20.61 7.07,36.22 20.91,45.05 13.84,10.31 31.21,15.61 50.06,15.61zm0 630.14c0,0 1.76,0 5.3,0 3.53,0 1.76,0 -5.3,0 528.26,-20.91 1030.31,20.61 1506.45,126.32 477.9,103.94 922.83,265.01 1334.77,481.44 7.07,0 12.08,0 15.61,0 3.53,0 8.54,0 13.84,0 13.84,0 25.91,-3.53 36.22,-10.6 10.6,-6.77 22.67,-17.08 36.51,-29.45 5.3,-13.84 5.3,-27.68 -1.77,-41.52 -5.3,-13.83 -19.14,-22.37 -39.75,-29.44 -419.01,-230.27 -872.77,-396.34 -1359.22,-496.75 -486.44,-102.18 -1000.57,-145.46 -1542.66,-133.39 -18.85,0 -36.22,7.07 -50.06,20.9 -13.84,13.84 -20.91,27.68 -20.91,39.76 0,20.9 7.07,37.98 20.91,51.82 13.84,13.84 31.21,20.91 50.06,20.91zm10.6 618.07c527.96,-13.84 1030.01,31.21 1506.15,131.62 477.91,102.18 924.6,259.71 1345.38,476.14 6.77,0 10.31,0 13.84,0 3.24,0 8.54,0 15.61,0 6.77,0 17.08,-1.77 30.91,-8.84 13.84,-6.77 22.68,-13.84 29.45,-20.61 7.07,-20.91 7.07,-38.28 0,-50.35 -6.77,-13.84 -15.61,-24.15 -29.45,-31.21 -425.78,-223.2 -881.01,-387.8 -1364.22,-491.45 -484.68,-105.71 -998.8,-147.23 -1547.67,-126.62 -13.84,0 -27.68,5.3 -39.75,13.84 -13.84,10.6 -20.91,26.21 -20.91,46.82 -7.07,13.84 -3.53,25.91 10.31,39.75 13.84,13.84 29.44,20.91 50.35,20.91zm5832.62 -3367.43c20.91,0 34.75,-5.3 41.52,-15.6 7.07,-10.31 10.6,-22.38 10.6,-36.22 0,-12.37 -3.53,-24.44 -10.6,-34.75 -6.77,-10.3 -20.61,-15.6 -41.52,-15.6l-171.37 0 0 -162.84c0,-13.84 -3.24,-22.38 -10.31,-29.45 -7.06,-6.77 -20.9,-10.3 -41.51,-10.3 -12.08,0 -22.68,3.53 -29.45,10.3 -7.07,7.07 -10.31,15.61 -10.31,29.45l0 183.74 -183.74 0c-12.07,0 -22.38,3.24 -29.44,10.31 -6.78,6.77 -10.31,19.14 -10.31,39.75 0,13.84 3.53,24.15 10.31,31.21 7.06,7.07 17.37,10.31 29.44,10.31l183.74 0 0 161.07c0,13.84 3.24,25.91 10.31,36.51 6.77,10.31 17.37,15.31 29.45,15.31 20.61,0 34.45,-5 41.51,-15.31 7.07,-10.6 10.31,-22.67 10.31,-36.51l0 -171.38 171.37 0zm-607.46 586.86l-173.14 0 0 -171.38c0,-20.61 -3.54,-34.45 -10.6,-41.52 -6.78,-5.3 -18.85,-8.54 -39.76,-8.54 -13.84,0 -24.14,3.24 -31.21,13.84 -6.77,10.31 -10.3,22.38 -10.3,36.22l0 171.38 -161.07 0c-13.84,0 -25.92,3.53 -36.22,10.3 -10.6,7.07 -15.61,20.91 -15.61,41.82 0,13.84 5.01,22.38 15.61,29.44 10.3,6.77 22.38,10.31 36.22,10.31l161.07 0 0 183.45c0,13.84 3.53,22.37 10.3,29.44 7.07,7.07 17.37,10.31 31.21,10.31 20.91,0 32.98,-3.24 39.76,-10.31 7.06,-7.07 10.6,-15.6 10.6,-29.44l0 -183.45 173.14 0c18.84,0 32.68,-3.54 39.75,-10.31 6.77,-7.06 10.31,-15.6 10.31,-29.44 0,-20.91 -3.54,-34.75 -10.31,-41.82 -7.07,-6.77 -20.91,-10.3 -39.75,-10.3zm933.14 751.45l-173.15 0 0 -173.14c0,-19.14 -5.3,-32.98 -15.6,-39.75 -8.84,-7.07 -20.91,-10.6 -34.75,-10.6 -20.61,0 -34.45,3.53 -41.52,10.6 -6.77,6.77 -8.54,20.61 -8.54,39.75l0 173.14 -173.14 0c-20.9,0 -34.74,3.54 -41.52,10.31 -5.3,7.07 -8.83,20.91 -8.83,39.75 0,14.14 3.53,24.44 8.83,31.21 6.78,7.07 20.62,10.61 41.52,10.61l173.14 0 0 181.68c0,13.84 1.77,25.91 8.54,36.21 7.07,10.6 20.91,15.61 41.52,15.61 13.84,0 25.91,-5.01 34.75,-15.61 10.3,-10.3 15.6,-22.37 15.6,-36.21l0 -181.68 173.15 0c13.84,0 24.14,-3.54 34.45,-10.61 10.6,-6.77 15.6,-17.07 15.6,-31.21 0,-18.84 -5,-32.68 -15.6,-39.75 -10.31,-6.77 -20.61,-10.31 -34.45,-10.31zm-1947.85 -659.58c-13.83,0 -24.14,0 -31.21,0 -6.77,0 -20.61,-3.54 -39.75,-10.31l19.14 -699.63c0,-20.61 -3.53,-37.99 -8.83,-55.36 -6.78,-17.37 -13.84,-32.98 -20.62,-46.82 -7.06,-12.07 -20.9,-20.61 -41.51,-24.14 -19.14,-3.54 -40.05,-5.3 -60.66,-5.3 -25.91,0 -57.13,3.53 -90.11,10.6 -34.45,6.77 -67.43,10.3 -102.17,10.3l0 -640.74c0,-18.84 -3.54,-37.98 -10.31,-55.36 -7.07,-17.37 -17.37,-31.21 -29.45,-45.05 -20.9,-6.77 -37.98,-13.84 -51.82,-20.61 -13.84,-7.07 -29.45,-7.07 -50.35,0 -405.18,102.18 -811.82,205.83 -1217,315.07 -412.24,107.18 -824.19,224.97 -1232.89,349.82 -408.42,124.55 -817.13,254.41 -1222.3,391.04 -406.65,142.22 -811.82,287.39 -1217,434.62 0,0 0,0 0,0 0,0 0,0 0,0 0,0 0,0 0,0 0,0 0,0 0,0 0,0 0,0 0,0 0,0 -3.53,0 -10.3,0 0,0 -3.53,0 -10.6,0 -6.77,0 -10.31,7.06 -10.31,20.9 0,0 0,0 0,0 0,0 -6.77,0 -20.61,0 0,0 0,0 0,0 0,0 0,0 0,0 0,0 0,0 0,0 0,0 0,0 0,0 0,0 0,0 0,0 0,0 0,3.54 0,10.31 0,0 0,3.53 0,10.31 0,7.06 -3.53,10.6 -8.83,10.6 0,0 0,0 0,0 0,0 0,3.24 0,10.3 0,0 0,0 0,0 0,0 0,0 0,0 0,0 0,1.77 0,5.01 0,3.53 0,7.07 0,14.13 0,0 0,1.47 0,5.01 0,3.53 0,5.3 0,5.3 0,0 0,3.53 0,10.3 0,7.07 0,10.31 0,10.31 0,0 0,0 0,0 0,0 0,0 0,0l0 7029.31c0,20.61 1.76,37.98 8.83,51.82 6.77,13.84 13.84,22.67 20.61,29.45 7.07,7.06 19.14,13.84 36.51,20.9 15.32,6.77 30.92,10.31 44.76,10.31 398.4,-7.07 801.81,13.84 1206.99,60.66 413.71,46.82 829.19,121.02 1248.2,223.2 419.02,102.17 848.34,230.26 1287.96,386.03 439.92,154.3 886.62,337.74 1340.08,547.1 5.3,0 12.08,3.54 19.14,10.6 6.78,6.78 17.38,10.31 31.22,10.31 6.77,0 17.07,-1.77 29.44,-5.3 13.84,-3.24 24.15,-8.54 30.92,-15.61 13.84,-6.77 26.21,-20.61 36.51,-39.75 8.54,-20.61 13.84,-41.52 13.84,-60.66l0 -872.48 41.52 8.54c13.84,0 19.14,0 19.14,0 0,0 6.77,0 20.61,0 13.84,0 25.91,-3.24 36.52,-8.54 10.3,-6.77 20.61,-13.84 34.45,-20.9 20.9,-6.78 34.74,-20.61 41.52,-41.52 7.06,-18.85 8.83,-36.22 8.83,-50.06l0 -7181.54c0,-27.68 -7.07,-53.59 -24.15,-76.26 -17.37,-24.15 -40.04,-36.22 -65.96,-36.22zm-152.23 993.79c-7.07,-5.3 -10.6,-8.83 -10.6,-8.83 0,0 -6.77,0 -20.61,0 -263.25,-108.95 -529.73,-207.59 -801.52,-294.16 -263.24,-88.34 -530.02,-168.14 -800.04,-239.1 -271.79,-70.97 -538.27,-136.63 -801.52,-197.29 -271.78,-60.66 -538.56,-112.48 -801.51,-152.23 290.63,-7.07 588.62,-10.61 891.62,-10.61 304.47,7.07 600.69,13.84 888.08,20.91 287.4,7.07 555.65,19.14 806.82,39.75 249.41,20.91 465.54,45.06 649.28,70.97l0 770.59zm-141.93 -1033.54c-209.65,-27.68 -450.23,-52.12 -720.24,-70.97 -270.32,-14.13 -554.17,-24.44 -851.87,-31.21 -297.7,-7.07 -599.22,-7.07 -903.69,0 -311.83,0 -607.76,0 -891.62,0 276.79,-40.05 560.94,-84.8 851.57,-131.62 297.99,-39.76 592.16,-81.57 886.61,-121.32 294.17,-41.52 580.09,-77.74 858.64,-112.48 277.09,-32.98 533.27,-60.66 770.6,-81.27l0 548.87zm-304.76 -772.37c-249.41,27.68 -517.66,58.89 -801.81,91.87 -283.86,34.46 -569.48,70.97 -856.88,112.49 -287.39,39.75 -573.01,83.03 -856.87,131.62 -284.15,39.75 -557.7,84.8 -822.42,131.62 277.08,-95.4 555.64,-185.21 832.73,-273.55 277.08,-81.56 553.87,-162.83 830.96,-244.11 277.08,-81.56 559.17,-159.3 843.33,-233.79 276.79,-74.5 553.87,-145.47 830.96,-212.9l0 496.75zm262.95 8907.66c-432.56,-195.52 -855.11,-368.67 -1267.06,-517.66 -412.24,-149 -820.65,-270.02 -1222.29,-365.13 -401.94,-93.64 -796.51,-164.6 -1182.54,-213.19 -391.34,-46.52 -777.37,-70.96 -1156.64,-70.96 -6.77,0 -13.84,0 -24.14,0 -10.6,0 -22.68,0 -36.51,0l0 -6776.37c399.87,7.07 801.8,38.28 1206.68,91.87 414.01,46.82 822.43,112.49 1227.6,197.29 406.94,84.8 815.36,188.75 1227.6,310.07 406.94,121.02 815.35,259.71 1227.3,415.48l0 6928.6z"/>
 </g>
</svg>
