<?xml version="1.0" encoding="UTF-8"?>
<!DOCTYPE svg PUBLIC "-//W3C//DTD SVG 1.1//EN" "http://www.w3.org/Graphics/SVG/1.1/DTD/svg11.dtd">
<!-- Creator: CorelDRAW 2020 (64-Bit) -->
<svg xmlns="http://www.w3.org/2000/svg" xml:space="preserve" width="109.22mm" height="105.579mm" version="1.1" style="shape-rendering:geometricPrecision; text-rendering:geometricPrecision; image-rendering:optimizeQuality; fill-rule:evenodd; clip-rule:evenodd"
viewBox="0 0 10921.98 10557.92"
 xmlns:xlink="http://www.w3.org/1999/xlink"
 xmlns:xodm="http://www.corel.com/coreldraw/odm/2003">
 <defs>
  <style type="text/css">
   <![CDATA[
    .fil0 {fill:none}
    .fil1 {fill:#2B2A29;fill-rule:nonzero}
   ]]>
  </style>
 </defs>
 <g id="Warstwa_x0020_1">
  <metadata id="CorelCorpID_0Corel-Layer"/>
  <rect class="fil0" x="-0.02" y="4.23" width="10921.99" height="10557.93"/>
  <path class="fil1" d="M7958.47 1536.51c87.63,72.71 154.75,154.75 203.23,246.11 46.61,89.49 55.94,175.26 26.1,255.43 -14.91,80.18 -57.8,143.57 -130.51,192.05 -72.72,46.61 -167.8,74.57 -283.4,82.03 -255.44,27.97 -546.3,169.67 -874.45,419.51 -328.15,251.71 -645.11,527.65 -950.89,825.97l-600.36 883.77c145.43,-160.35 320.69,-348.66 523.92,-566.81 203.23,-220.01 419.51,-428.83 645.11,-628.33 225.6,-201.36 451.21,-372.9 676.81,-520.19 225.6,-145.43 426.97,-225.6 600.37,-238.66 145.43,-14.91 268.48,-57.79 367.3,-126.78 96.95,-68.99 164.08,-158.48 201.37,-266.62 29.83,-124.92 16.78,-249.84 -39.16,-378.49 -54.07,-126.79 -139.84,-231.2 -255.43,-311.37 -95.09,-80.18 -205.1,-134.25 -328.15,-162.21 -123.06,-29.84 -255.44,-41.02 -393.41,-33.56 0,35.42 -3.73,68.98 -11.19,98.81 -7.46,27.97 -11.18,54.07 -11.18,76.45 124.92,-7.46 240.51,1.86 350.52,26.1 108.14,26.1 203.23,67.12 283.4,126.79zm798 7592.19c-37.29,-80.17 -121.19,-171.53 -251.7,-274.08 -130.52,-100.68 -363.58,-158.48 -699.19,-173.4 -298.31,-7.45 -579.85,-124.92 -846.47,-350.52 -266.63,-225.6 -510.87,-486.63 -736.48,-786.81l261.03 591.04c190.18,195.77 395.27,363.57 617.15,501.55 221.87,139.83 453.07,212.55 693.59,218.14 205.09,7.46 374.76,41.02 514.59,98.82 137.98,59.66 229.34,137.97 272.22,240.52 29.83,65.26 35.43,134.24 16.78,206.96 -18.64,74.58 -55.93,143.56 -115.6,208.82 -93.22,108.14 -247.97,201.36 -464.26,277.81 -214.41,76.44 -477.3,93.22 -790.54,50.34 0,27.97 0,52.21 0,70.85 0,16.78 0,41.02 0,70.85 0,7.46 0,14.92 0,22.37 0,5.6 0,9.33 0,9.33 50.34,7.46 96.96,11.18 141.7,11.18 42.89,0 87.63,0 130.52,0 270.35,0 497.82,-41.01 682.4,-124.92 186.45,-83.9 326.29,-177.12 421.37,-279.67 95.09,-93.22 154.76,-192.04 180.86,-294.59 24.24,-102.55 14.92,-199.5 -27.97,-294.59zm-1845.84 262.89l-1955.85 -4446.8 1998.73 -3026.06c50.34,-72.72 85.77,-151.03 104.41,-234.93 18.65,-83.9 26.11,-173.4 26.11,-268.49 0,-42.88 -1.87,-89.49 -3.73,-136.1 -3.73,-46.62 -13.05,-93.23 -27.97,-136.11 -7.46,-44.75 -20.51,-85.77 -39.15,-126.79 -16.78,-39.15 -33.57,-78.31 -48.48,-113.73 -22.37,-37.29 -42.88,-67.12 -65.26,-93.22 -22.37,-26.11 -52.2,-52.21 -87.63,-82.04 -37.29,-22.38 -70.85,-37.29 -104.41,-48.48 -31.7,-11.19 -67.12,-16.78 -102.55,-16.78 -52.2,0 -110,13.05 -175.26,37.29 -65.26,26.1 -134.24,85.77 -206.96,180.86l-2394 3648.8 44.75 -3287.09c0,-95.09 -11.19,-184.59 -33.56,-268.49 -22.38,-83.9 -50.34,-158.48 -87.63,-223.74 -42.89,-80.17 -95.09,-139.84 -158.49,-180.85 -61.52,-39.16 -124.92,-59.67 -190.17,-59.67 -65.26,0 -130.52,16.78 -192.05,48.48 -61.52,33.56 -117.46,85.77 -169.66,158.48 -42.89,65.26 -78.31,137.97 -102.55,218.15 -26.1,80.17 -39.16,171.53 -39.16,274.08l-119.32 8390.19c0,95.09 9.32,184.59 26.1,268.49 18.64,82.04 50.34,156.62 93.22,223.74 44.75,80.17 95.09,139.83 152.89,178.99 59.67,41.02 124.92,61.53 197.64,61.53 50.34,0 108.14,-13.05 175.26,-39.16 65.26,-26.1 126.79,-82.03 184.58,-169.67 44.75,-65.25 78.31,-137.97 104.42,-218.14 26.1,-80.17 37.29,-171.53 37.29,-272.22l33.56 -2960.8 447.47 -678.68 1836.52 4174.59c42.89,108.14 98.82,190.18 167.81,244.25 68.98,55.93 151.02,85.77 246.11,93.22 0,0 3.73,0 11.19,0 7.46,0 11.18,0 11.18,0 29.84,0 59.67,-5.59 93.23,-16.78 31.7,-9.32 63.39,-26.1 91.36,-48.47 22.37,-22.38 48.48,-46.62 78.31,-76.45 27.96,-29.83 54.07,-61.53 76.44,-98.81 13.05,-35.43 29.83,-72.72 48.48,-108.15 18.64,-37.28 37.29,-76.44 59.66,-121.19 0,0 0,0 0,0 0,0 0,0 0,0 0,0 1.87,0 5.6,0 3.72,0 5.59,0 5.59,0 0,-7.45 0,-13.05 0,-20.51 0,-7.45 0,-14.91 0,-22.37 7.46,-37.29 13.05,-70.85 16.78,-104.41 3.73,-31.7 5.59,-67.12 5.59,-102.55 7.46,-59.66 3.73,-123.05 -11.18,-192.04 -14.92,-68.99 -37.29,-136.11 -65.26,-201.37zm-121.19 632.07c-7.46,37.29 -18.65,72.71 -31.7,104.41 -14.92,33.56 -33.56,59.66 -55.93,82.04 -13.06,29.83 -29.84,52.2 -48.48,70.85 -18.65,18.64 -35.43,35.42 -48.48,50.34 -14.91,5.59 -31.69,13.05 -50.34,20.51 -16.78,7.45 -33.56,11.18 -48.48,11.18 -37.28,0 -78.3,-13.05 -124.92,-37.29 -48.47,-26.1 -93.22,-93.22 -137.97,-203.23l-1965.17 -4467.31 -645.11 982.59 -44.75 3003.69c0,80.17 -5.59,152.88 -20.51,220.01 -14.91,65.25 -41.02,123.05 -76.44,173.39 -37.29,44.75 -70.85,78.31 -104.41,104.41 -33.56,26.11 -67.13,39.16 -104.42,39.16 -42.88,0 -82.03,-13.05 -113.73,-39.16 -33.56,-26.1 -63.39,-63.39 -93.22,-115.59 -35.43,-57.8 -61.53,-121.2 -76.45,-190.18 -14.91,-68.99 -22.37,-143.57 -22.37,-223.74l98.82 -8401.38c0,-72.72 9.32,-143.57 27.96,-212.56 16.78,-68.98 44.75,-130.51 82.04,-180.85 35.43,-57.8 72.72,-96.95 108.14,-115.6 37.29,-16.78 65.26,-26.1 87.63,-26.1 44.75,0 83.9,14.91 121.19,42.88 35.43,29.83 65.26,68.99 85.77,121.19 37.29,57.8 65.26,121.19 82.04,190.18 18.64,68.99 27.97,139.84 27.97,214.42l-54.07 3878.13 2740.79 -4129.84c29.83,-52.21 63.4,-89.49 98.82,-115.6 37.29,-24.24 76.44,-33.56 121.19,-26.1l0 0c13.05,0 29.83,3.73 48.48,9.32 18.64,7.46 35.42,14.92 48.48,22.38 22.37,22.37 42.88,42.88 61.52,59.66 16.78,18.64 33.56,39.15 48.48,61.53 14.92,27.96 27.97,59.66 37.29,91.36 11.19,33.56 20.51,68.98 27.97,104.41 22.37,29.83 33.56,61.53 33.56,98.82 0,35.42 0,76.44 0,119.32 0,80.18 -7.46,152.89 -22.38,218.15 -14.91,67.12 -41.01,124.92 -76.44,175.26l-2054.67 3124.88 2000.6 4523.25c27.97,50.34 48.48,102.55 59.66,158.48 11.19,54.07 16.78,110.01 16.78,169.67 0,42.88 -3.72,83.9 -11.18,119.33 -7.46,37.29 -18.65,76.44 -33.56,119.33zm-4588.51 -2904.88c-27.97,0 -50.34,7.46 -65.26,22.38 -14.91,13.05 -22.37,35.42 -22.37,65.25l0 2938.44c0,22.37 7.46,41.02 22.37,59.66 14.92,18.65 37.29,27.97 65.26,27.97 22.38,0 42.88,-9.32 61.53,-27.97 16.78,-18.64 26.1,-37.29 26.1,-59.66l0 -2938.44c0,-29.83 -9.32,-52.2 -26.1,-65.25 -18.65,-14.92 -39.15,-22.38 -61.53,-22.38zm0 -1420.74c-27.97,0 -50.34,9.33 -65.26,27.97 -14.91,18.65 -22.37,37.29 -22.37,59.66l0 656.3c0,27.97 7.46,50.35 22.37,65.26 14.92,14.92 37.29,20.51 65.26,20.51 22.38,0 42.88,-5.59 61.53,-20.51 16.78,-14.91 26.1,-37.29 26.1,-65.26l0 -656.3c0,-22.37 -9.32,-41.01 -26.1,-59.66 -18.65,-18.64 -39.15,-27.97 -61.53,-27.97zm721.56 -5330.57c65.26,-52.2 137.97,-89.49 218.14,-115.6 80.18,-24.24 167.81,-37.29 262.9,-37.29 87.63,0 165.94,13.05 234.92,37.29 68.99,26.11 132.38,59.67 190.18,104.41 22.37,7.46 41.02,9.33 55.93,5.6 13.06,-3.73 31.7,-13.05 54.07,-27.97 7.46,-14.92 11.19,-29.83 11.19,-48.48 0,-18.64 -11.19,-35.42 -33.56,-50.34 -65.26,-57.8 -141.7,-100.68 -229.33,-130.51 -87.63,-27.97 -180.86,-42.88 -283.4,-42.88 -110.01,0 -210.69,14.91 -305.78,42.88 -95.09,29.83 -182.72,76.44 -262.89,141.7 -80.18,72.71 -139.84,151.02 -180.86,234.93 -39.15,83.9 -67.12,173.39 -80.17,268.48 0,14.92 5.59,27.97 20.51,42.88 14.91,14.92 33.56,22.38 55.93,22.38 0,0 0,0 0,0 0,0 0,0 0,0 13.05,0 27.97,-7.46 42.89,-22.38 14.91,-14.91 22.37,-27.96 22.37,-42.88 0,-80.17 14.92,-151.02 48.48,-212.55 33.56,-63.39 85.76,-119.33 158.48,-169.67zm1135.47 425.1c0,22.38 7.46,41.02 22.38,55.94 14.91,13.05 29.83,20.51 44.74,20.51 0,0 0,0 0,0 0,0 0,0 0,0 20.51,0 37.29,-7.46 48.48,-20.51 11.19,-14.92 16.78,-33.56 16.78,-55.94 0,-65.25 -7.46,-128.64 -22.37,-190.17 -14.92,-61.53 -39.16,-123.06 -76.45,-180.86 -7.46,-7.46 -22.37,-14.91 -42.88,-22.37 -22.37,-7.46 -37.29,-7.46 -44.75,0 -14.91,7.46 -24.24,22.37 -27.97,44.75 -1.86,22.37 1.87,42.88 16.78,65.25 22.38,42.89 39.16,89.5 50.35,136.11 9.32,48.48 14.91,96.95 14.91,147.29z"/>
 </g>
</svg>
