<?xml version="1.0" encoding="UTF-8"?>
<!DOCTYPE svg PUBLIC "-//W3C//DTD SVG 1.1//EN" "http://www.w3.org/Graphics/SVG/1.1/DTD/svg11.dtd">
<!-- Creator: CorelDRAW 2020 (64-Bit) -->
<svg xmlns="http://www.w3.org/2000/svg" xml:space="preserve" width="109.22mm" height="105.579mm" version="1.1" style="shape-rendering:geometricPrecision; text-rendering:geometricPrecision; image-rendering:optimizeQuality; fill-rule:evenodd; clip-rule:evenodd"
viewBox="0 0 10921.98 10557.92"
 xmlns:xlink="http://www.w3.org/1999/xlink"
 xmlns:xodm="http://www.corel.com/coreldraw/odm/2003">
 <defs>
  <style type="text/css">
   <![CDATA[
    .fil0 {fill:none}
    .fil1 {fill:#2B2A29;fill-rule:nonzero}
   ]]>
  </style>
 </defs>
 <g id="Warstwa_x0020_1">
  <metadata id="CorelCorpID_0Corel-Layer"/>
  <rect class="fil0" x="-0.02" y="4.23" width="10921.99" height="10557.93"/>
  <path class="fil1" d="M3353.11 3657.4c5.05,0 11.8,0 18.54,0 6.74,0 10.11,0 10.11,0 13.49,0 20.23,-3.37 20.23,-10.12 0,-5.05 0,-8.43 0,-8.43l79.22 -355.66 187.11 404.55c0,0 1.69,3.37 5.06,10.11 3.37,6.74 5.05,10.12 5.05,10.12 0,0 3.37,1.68 10.12,5.05 6.74,1.69 10.11,3.37 10.11,3.37 6.74,0 11.8,0 18.54,0 6.75,0 10.12,0 10.12,0l188.79 -276.44 77.54 414.67c0,13.48 1.68,23.59 5.05,30.34 3.38,6.74 5.06,10.11 5.06,10.11 13.49,6.74 20.23,10.11 20.23,10.11 0,0 6.74,6.75 20.23,20.23 6.74,0 11.8,0 18.54,0 6.74,0 13.48,0 20.23,0 6.74,0 11.8,-3.37 15.17,-10.11 3.37,-6.74 5.05,-13.49 5.05,-20.23 0,0 0,-1.68 0,-5.06 0,-3.37 0,-8.42 0,-15.17l-109.56 -622c0,-6.74 -3.37,-13.48 -8.43,-20.22 -6.74,-6.75 -10.11,-10.12 -10.11,-10.12 -6.75,-5.05 -11.8,-10.11 -15.18,-13.48 -3.37,-3.37 -8.42,-8.43 -15.17,-15.17 -6.74,0 -11.8,0 -15.17,0 -3.37,0 -8.42,0 -13.48,0 -6.74,0 -11.8,0 -15.17,0 -3.37,0 -5.06,3.37 -5.06,10.11l-197.22 315.21 -207.33 -453.43c0,-6.74 -1.69,-11.8 -5.06,-15.17 -3.37,-3.37 -5.06,-8.43 -5.06,-15.17 -6.74,-6.75 -11.8,-11.8 -15.17,-15.17 -3.37,-3.37 -8.42,-5.06 -15.17,-5.06 -13.48,0 -23.6,0 -28.65,0 -6.75,0 -10.12,0 -10.12,0 0,0 -1.68,3.37 -5.05,10.11 -3.37,6.75 -5.06,10.12 -5.06,10.12l-109.57 542.77 0 20.23c0,6.74 0,13.48 0,20.23 0,6.74 3.37,13.48 10.12,20.22 13.48,0 23.6,3.38 30.34,8.43 6.74,6.75 13.48,10.12 20.23,10.12zm947.32 355.67l394.44 138.22 10.12 0c6.74,0 11.79,0 15.17,0 3.37,0 8.42,0 15.17,0 13.48,0 20.22,0 20.22,0 0,0 0,-3.37 0,-10.12 0,0 0,-1.68 0,-8.42 0,-6.75 0,-10.12 0,-10.12 0,0 0,-1.68 0,-5.06 0,-3.37 0,-5.05 0,-5.05 -6.74,-13.49 -15.17,-25.29 -25.28,-35.4 -10.11,-8.43 -18.54,-13.49 -25.28,-13.49l-355.67 -129.79c0,0 0,0 0,0 0,0 0,0 0,0 0,0 0,0 0,0 0,0 0,0 0,0l0 -187.11c0,0 0,0 0,0 0,0 0,0 0,0 0,0 0,0 0,0 0,0 0,0 0,0l198.9 79.23c0,0 1.69,0 8.43,0 6.74,0 10.11,0 10.11,0 0,0 3.37,0 10.12,0 6.74,0 10.11,0 10.11,0 0,0 1.69,-3.37 5.06,-10.11 3.37,-6.75 5.05,-13.49 5.05,-20.23 0,-6.74 0,-11.8 0,-18.54 0,-6.75 -3.37,-16.86 -10.11,-30.35 -13.48,-6.74 -23.6,-11.79 -30.34,-15.17 -6.74,-3.37 -11.8,-8.42 -18.54,-15.17l-207.34 -77.54c0,0 0,0 0,0 0,0 0,0 0,0 0,0 0,0 0,0 0,0 0,0 0,0l0 -198.9c0,0 0,0 0,0 0,0 0,0 0,0 0,0 0,0 0,0 0,0 0,0 0,0l364.1 119.68c6.74,0 13.49,0 20.23,0 6.74,0 10.11,0 10.11,0 6.75,0 10.12,-3.37 10.12,-10.11 0,-6.75 0,-13.49 0,-20.23 0,-6.74 0,-13.49 0,-20.23 0,-5.06 -3.37,-8.43 -10.12,-8.43 -6.74,0 -11.8,-3.37 -15.17,-10.11 -3.37,-6.74 -8.43,-13.49 -15.17,-20.23l-433.21 -158.45c-13.48,0 -20.22,0 -20.22,0 0,0 -6.75,0 -20.23,0 -6.74,0 -10.12,3.37 -10.12,10.11 0,6.75 0,10.12 0,10.12l0 601.77c0,6.74 3.38,15.17 10.12,25.28 6.74,10.12 13.48,18.55 20.23,25.29 26.97,6.74 42.14,11.8 48.88,18.54 6.74,6.74 10.11,10.12 10.11,10.12zm652.34 247.78c13.49,0 20.23,0 20.23,0 0,0 5.06,0 18.54,0 6.75,0 10.12,-3.37 10.12,-10.11 0,-6.74 0,-13.49 0,-20.23l0 -434.89c0,0 0,0 0,0 0,0 0,0 0,0l394.44 613.57c0,6.74 1.68,10.11 5.05,10.11 3.37,0 5.06,0 5.06,0 0,0 1.69,0 5.06,0 3.37,0 8.42,5.06 15.17,18.55 0,0 1.68,0 5.05,0 3.38,0 5.06,3.37 5.06,10.11 0,0 3.37,0 10.11,0 6.75,0 10.12,0 10.12,0 6.74,0 11.8,0 18.54,0 6.74,0 10.11,-3.37 10.11,-10.11l0 0 0 0 0 0 0 0 0 -583.23c0,-5.06 0,-11.8 0,-18.55 0,-6.74 -6.74,-13.48 -20.22,-20.22 0,-13.49 -1.69,-20.23 -8.43,-20.23 -6.74,0 -13.49,-6.74 -20.23,-18.54l0 0 -10.11 0c-6.75,0 -11.8,0 -15.17,0 -3.37,0 -8.43,0 -15.17,0 -11.8,0 -18.55,3.37 -18.55,8.42 0,6.75 0,10.12 0,10.12l0 455.12 -386.01 -611.89c0,-6.74 -3.37,-11.8 -10.11,-15.17 -6.74,-3.37 -8.43,-8.42 -8.43,-15.17 -6.74,0 -11.8,-1.68 -15.17,-5.05 -3.37,-3.38 -5.06,-5.06 -5.06,-5.06 0,0 -1.68,0 -5.05,0 -3.37,0 -5.06,0 -5.06,0 0,0 -6.74,0 -20.23,0 -13.48,0 -21.91,3.37 -28.65,10.11l0 611.89c0,6.74 3.37,13.48 8.42,20.23 6.75,6.74 13.49,13.48 20.23,20.22 6.74,-6.74 13.49,-10.11 20.23,-10.11 6.74,0 10.11,3.37 10.11,10.11zm691.11 79.23c6.75,25.28 15.17,47.2 25.29,64.05 8.43,15.17 26.97,37.09 53.94,64.06 20.23,20.22 40.45,40.45 64.05,64.05 23.6,23.6 47.2,40.46 74.17,53.94 6.74,13.49 13.49,20.23 20.23,20.23 5.06,0 15.17,0 28.65,0l30.35 0c38.77,13.48 74.16,20.23 102.82,20.23 30.34,0 60.68,-6.75 94.4,-20.23 26.97,-6.74 43.82,-18.54 53.94,-35.4 10.11,-15.17 18.54,-33.71 25.28,-53.94 0,-13.48 0,-20.23 0,-20.23 0,0 6.74,-6.74 20.23,-18.54l0 -414.67c0,-6.74 -1.69,-11.8 -5.06,-15.17 -3.37,-3.37 -8.43,-8.42 -15.17,-15.17 -6.74,-6.74 -13.49,-13.48 -20.23,-20.22 -6.74,-6.75 -16.85,-10.12 -30.34,-10.12 0,0 0,0 0,0 0,0 -1.68,0 -8.43,0 -6.74,0 -13.48,0 -20.22,0 -6.75,0 -10.12,0 -10.12,0 0,0 -3.37,3.37 -10.11,10.12 -6.75,6.74 -10.12,13.48 -10.12,20.22l0 386.01c0,5.06 0,10.12 0,13.49 0,3.37 0,8.43 0,15.17 0,20.23 -6.74,33.71 -18.54,40.45 -13.48,5.06 -23.6,15.18 -30.34,28.66 -13.48,6.74 -32.03,10.11 -53.94,10.11 -23.6,0 -45.51,-3.37 -64.05,-10.11 -6.75,0 -15.17,-3.37 -25.29,-10.11 -10.11,-6.75 -18.54,-16.86 -25.28,-28.66 -11.8,-6.74 -26.97,-16.86 -43.83,-30.34 -16.86,-13.49 -28.66,-26.97 -33.71,-38.77 -13.49,-26.97 -25.29,-52.26 -35.4,-74.17 -10.11,-23.6 -15.17,-42.14 -15.17,-55.62l0 -374.22c0,-6.74 -1.69,-13.48 -5.06,-20.22 -3.37,-6.75 -5.06,-10.12 -5.06,-10.12 -6.74,-6.74 -11.79,-11.8 -18.54,-15.17 -6.74,-3.37 -10.11,-6.74 -10.11,-13.48 0,0 0,0 0,0 0,0 0,0 0,0 -13.49,0 -23.6,0 -30.34,0 -6.75,0 -13.49,3.37 -20.23,8.43 0,0 0,0 0,0 0,0 0,0 0,0 0,0 0,0 0,0 0,0 0,0 0,0l0 406.23c-25.28,18.55 -37.08,33.72 -33.71,43.83 3.37,10.11 5.05,21.91 5.05,35.4zm-2479.57 -276.45l2914.47 1144.55c0,0 1.68,0 5.05,0 3.38,0 5.06,0 5.06,0 18.54,0 33.71,-3.37 43.83,-10.11 10.11,-5.06 18.54,-15.17 25.28,-28.66 6.75,-20.23 5.06,-37.08 0,-50.57 -6.74,-11.8 -16.85,-21.91 -30.34,-28.65l-2912.78 -1156.35c-13.48,-6.74 -28.65,-5.06 -45.51,0 -16.85,6.74 -26.97,16.86 -33.71,30.34 -6.74,26.97 -6.74,47.2 0,64.06 6.74,16.85 15.17,28.65 28.65,35.39zm4109.58 -1788.45c0,-26.97 -8.43,-50.57 -25.28,-74.17 -16.86,-23.6 -37.09,-33.72 -64.06,-33.72l-296.67 -69.11 0 -869.78c0,-33.72 -11.8,-59 -33.71,-79.23 -23.6,-20.23 -48.88,-32.03 -74.17,-38.77l-455.12 0 0 -642.23c0,-13.48 -3.37,-28.65 -10.11,-45.51 -6.75,-15.17 -18.55,-33.71 -38.77,-53.94 -13.49,-6.74 -28.66,-13.48 -43.83,-20.23 -16.86,-5.05 -32.03,-8.42 -45.51,-8.42l-3614 701.22c0,0 0,0 0,0 0,0 0,0 0,0 -20.23,0 -42.14,3.37 -64.06,8.43 -23.6,6.74 -42.14,13.48 -55.62,20.23 -32.03,26.97 -59,57.31 -79.23,94.39 -18.54,35.4 -28.65,74.17 -28.65,112.94l0 6735.8c0,47.19 13.48,89.34 38.77,128.11 26.97,40.45 60.68,69.11 99.45,89.33l4514.13 1975.57c11.8,6.74 26.97,11.8 43.83,15.17 16.85,3.37 32.02,5.06 43.82,5.06 26.97,0 52.26,-3.38 74.17,-10.12 23.6,-6.74 42.14,-13.48 55.63,-20.23 32.02,-25.28 58.99,-55.62 77.54,-89.33 20.22,-32.03 30.34,-70.8 30.34,-118l0 -6705.45c0,-20.23 -3.37,-43.83 -10.12,-69.12 -6.74,-26.97 -20.22,-50.56 -38.77,-69.11l0 -869.78zm-227.56 89.33l0 642.23 -3022.34 -1343.45 3022.34 701.22zm-394.44 -327.01l-3052.68 -711.34 3052.68 10.12 0 701.22zm-573.11 -927.1l-2538.57 -20.23 2538.57 -493.89 0 514.12zm1006.32 8878.24l-4512.44 -1975.56 0 -6686.92 256.21 60.69 4256.23 1896.34 0 6705.45zm1186.69 -8622.02c5.06,-6.74 8.43,-16.86 8.43,-30.34 0,-11.8 -3.37,-21.92 -8.43,-28.66l-268.02 -266.33c-6.74,-6.74 -15.17,-10.11 -28.65,-10.11 -13.49,0 -23.6,3.37 -30.34,10.11l-266.33 266.33c-6.75,6.74 -10.12,16.86 -10.12,28.66 0,13.48 3.37,23.6 10.12,30.34l266.33 266.33c0,0 3.37,3.37 10.11,10.11 6.74,6.75 13.48,10.12 20.23,10.12 6.74,0 11.8,-1.69 15.17,-5.06 1.68,-3.37 6.74,-8.43 13.48,-15.17l268.02 -266.33zm-493.89 -10.12l197.22 -207.33 207.33 207.33 -207.33 197.22 -197.22 -197.22zm1431.1 -187.1l-266.33 -266.33c-6.74,-6.74 -16.85,-10.12 -30.34,-10.12 -11.8,0 -25.28,3.38 -38.77,10.12l-256.22 266.33c-13.48,6.74 -20.22,16.86 -20.22,28.65 0,13.49 6.74,23.6 20.22,30.35l256.22 266.33c0,0 3.37,1.68 10.11,5.05 6.75,3.37 16.86,5.06 28.66,5.06 6.74,0 11.8,0 15.17,0 3.37,0 8.43,-3.37 15.17,-10.11l266.33 -266.33c6.74,-13.49 10.12,-25.29 10.12,-35.4 0,-8.43 -3.38,-16.86 -10.12,-23.6zm-296.67 227.56l-207.33 -198.91 207.33 -207.33 198.91 207.33 -198.91 198.91zm-591.66 591.66c-6.74,-6.74 -16.85,-10.12 -30.34,-10.12 -13.48,0 -25.28,3.38 -38.77,10.12l-257.9 266.33c-11.8,6.74 -18.54,16.85 -18.54,30.34 0,13.48 6.74,23.6 18.54,28.66l257.9 268.01c0,0 3.37,3.37 10.12,10.11 6.74,5.06 15.17,8.43 28.65,8.43 6.74,0 11.8,-1.68 15.17,-5.05 3.37,-3.38 8.43,-6.75 15.17,-13.49l266.33 -268.01c6.75,-5.06 10.12,-15.18 10.12,-28.66 0,-13.49 -3.37,-23.6 -10.12,-30.34l-266.33 -266.33zm-30.34 504l-207.33 -207.33 207.33 -197.22 197.22 197.22 -197.22 207.33zm-6528.46 2064.91c-13.49,0 -25.29,5.05 -38.77,18.54 -13.49,13.48 -20.23,30.34 -20.23,50.57l0 284.87c0,20.23 6.74,37.08 20.23,50.57 13.48,13.48 25.28,18.54 38.77,18.54 20.22,0 37.08,-5.06 50.57,-18.54 11.8,-13.49 18.54,-30.34 18.54,-50.57l0 -284.87c0,-20.23 -6.74,-37.09 -18.54,-50.57 -13.49,-13.49 -30.35,-18.54 -50.57,-18.54zm0 -3418.47c-13.49,0 -25.29,6.74 -38.77,20.23 -13.49,13.48 -20.23,26.97 -20.23,38.76l0 2973.46c0,13.49 6.74,26.98 20.23,38.77 13.48,13.49 25.28,20.23 38.77,20.23 20.22,0 37.08,-6.74 50.57,-20.23 11.8,-11.79 18.54,-25.28 18.54,-38.77l0 -2973.46c0,-25.28 -6.74,-42.14 -18.54,-48.88 -13.49,-6.74 -30.35,-10.11 -50.57,-10.11z"/>
 </g>
</svg>
