<?xml version="1.0" encoding="UTF-8"?>
<!DOCTYPE svg PUBLIC "-//W3C//DTD SVG 1.1//EN" "http://www.w3.org/Graphics/SVG/1.1/DTD/svg11.dtd">
<!-- Creator: CorelDRAW 2020 (64-Bit) -->
<svg xmlns="http://www.w3.org/2000/svg" xml:space="preserve" width="109.22mm" height="105.579mm" version="1.1" style="shape-rendering:geometricPrecision; text-rendering:geometricPrecision; image-rendering:optimizeQuality; fill-rule:evenodd; clip-rule:evenodd"
viewBox="0 0 10921.98 10557.92"
 xmlns:xlink="http://www.w3.org/1999/xlink"
 xmlns:xodm="http://www.corel.com/coreldraw/odm/2003">
 <defs>
  <style type="text/css">
   <![CDATA[
    .fil0 {fill:none}
    .fil1 {fill:#2B2A29;fill-rule:nonzero}
   ]]>
  </style>
 </defs>
 <g id="Warstwa_x0020_1">
  <metadata id="CorelCorpID_0Corel-Layer"/>
  <rect class="fil0" x="-0.02" y="4.23" width="10921.99" height="10557.93"/>
  <path class="fil1" d="M8378.23 8139.12c-111.82,21.64 -221.83,43.29 -326.44,63.13 -106.41,21.64 -209.21,46.89 -306.6,73.94 -21.65,7.22 -36.08,19.84 -43.29,37.88 -7.21,18.03 -10.82,32.46 -10.82,46.89 0,14.43 7.21,27.05 21.64,37.87 14.43,10.82 28.86,14.43 43.29,14.43 0,0 1.8,0 9.02,0 7.21,0 10.82,0 10.82,0 99.19,-27.05 201.99,-54.11 306.6,-77.55 106.41,-25.25 207.41,-45.09 306.61,-59.52 21.64,0 37.87,-7.21 46.89,-19.84 10.82,-14.43 12.62,-36.07 5.41,-64.93 0,-5.41 -7.22,-16.23 -19.84,-30.66 -14.43,-14.43 -28.86,-21.64 -43.29,-21.64zm-919.81 232.66c-584.35,183.96 -1107.38,425.64 -1569.09,728.64 -461.71,302.99 -842.26,656.49 -1145.26,1056.88 -7.21,14.43 -10.82,30.66 -10.82,48.69 0,16.24 10.82,32.47 30.66,46.9 7.21,14.43 14.43,21.64 21.64,21.64 7.22,0 10.82,0 10.82,0 7.22,0 16.24,-3.61 27.06,-10.82 9.01,-7.22 18.03,-14.43 25.25,-21.64 288.57,-394.98 658.29,-737.66 1109.18,-1029.83 450.89,-292.18 963.1,-526.64 1533.02,-703.39 21.65,-7.21 36.08,-18.04 41.49,-30.66 7.21,-14.43 10.82,-32.46 10.82,-54.11 0,-19.84 -10.82,-36.07 -30.66,-46.89 -21.65,-10.82 -39.68,-12.62 -54.11,-5.41zm3213.94 -2357.25c70.33,-77.55 108.21,-165.92 115.42,-268.73 7.22,-102.8 -21.64,-194.78 -84.76,-279.55l-3179.67 -4566.6c-14.43,-19.84 -37.88,-41.48 -68.54,-63.12 -32.46,-19.84 -63.12,-30.66 -90.17,-30.66 -14.43,0 -25.25,0 -32.47,0 -7.21,0 -10.82,0 -10.82,0 -19.84,0 -43.28,3.6 -68.53,10.82 -23.45,5.41 -50.5,16.23 -79.36,30.66 -400.39,302.99 -806.19,571.72 -1215.6,802.58 -400.39,225.44 -804.38,416.62 -1208.38,571.73 -405.8,155.1 -809.8,270.53 -1210.18,348.08 -394.98,77.56 -793.57,117.23 -1193.96,117.23 -310.21,0 -624.03,-25.25 -941.45,-73.94 -317.43,-50.5 -631.25,-120.84 -939.66,-211.02 -14.42,-7.21 -27.05,-12.62 -37.87,-16.23 -10.82,-3.61 -23.45,-5.41 -36.07,-5.41 -43.29,0 -81.16,9.02 -117.23,25.25 -34.27,18.03 -63.13,45.09 -84.77,79.36 -34.27,43.28 -54.11,90.17 -57.71,142.48 -3.61,54.1 9.01,101 37.87,144.28l728.64 1130.83 -349.89 432.85c-41.48,55.91 -64.93,122.64 -68.54,200.2 -3.6,77.55 16.23,147.89 59.52,211.01l3212.13 5591.02c14.43,27.06 32.47,48.7 57.72,63.13 25.24,14.43 54.1,21.64 90.17,21.64 0,0 0,0 0,0 0,0 0,0 0,0 34.27,0 64.93,-7.21 90.18,-21.64 23.45,-14.43 43.29,-36.07 57.71,-63.13 162.32,-239.87 355.3,-465.31 580.75,-676.33 225.44,-211.01 472.53,-409.41 739.46,-591.56 268.73,-183.97 553.69,-349.89 856.69,-497.79 302.99,-155.1 616.81,-292.17 939.65,-411.21 176.75,-43.28 351.69,-90.17 523.03,-142.48 173.14,-54.1 348.08,-119.03 523.03,-196.58 367.92,-97.4 734.05,-174.95 1100.17,-232.66 366.12,-55.91 714.21,-93.79 1046.06,-115.43 41.48,0 79.36,-10.82 110.02,-32.47 32.46,-19.83 55.91,-48.69 70.34,-82.96 19.83,-28.86 28.85,-63.12 25.25,-101 -3.61,-39.68 -16.24,-75.75 -36.08,-111.82l-369.72 -602.39c90.17,-82.96 178.55,-169.53 263.31,-257.9 84.77,-88.38 169.54,-178.56 254.31,-270.54zm-3351.01 -4965.18c0,0 0,0 0,0 0,0 0,0 0,0 0,0 0,0 0,0 0,0 0,0 0,0zm-2355.44 3316.73l-147.89 54.11 -423.84 -1174.11 147.89 -41.49 254.3 676.34 30.66 -10.82c7.22,0 12.63,-3.61 16.24,-10.83 3.6,-7.21 9.01,-10.82 16.23,-10.82 0,0 3.6,-3.6 10.82,-10.82 7.21,-7.21 10.82,-12.62 10.82,-19.84l147.89 -349.89c0,-7.21 3.61,-12.62 10.82,-14.43 7.22,-3.6 10.82,-9.01 10.82,-16.23 0,-14.43 1.81,-21.64 9.02,-21.64 7.22,0 14.43,0 21.65,0l126.24 -52.3 -156.91 422.03c0,14.43 -3.6,27.05 -10.82,37.87 -7.21,9.02 -18.03,18.04 -32.46,25.25 14.43,0 21.64,0 21.64,0 0,0 7.22,7.22 21.64,21.65 5.42,0 10.83,1.8 14.43,5.41 3.61,3.6 9.02,5.41 16.24,5.41l443.67 284.96 -147.89 52.3c-7.22,0 -12.63,0 -16.23,0 -3.61,0 -9.02,0 -14.43,0 -7.22,0 -12.63,-1.8 -16.23,-5.41 -3.61,-3.61 -9.02,-9.02 -16.24,-14.43l-369.73 -232.66c-7.21,-7.21 -12.62,-12.62 -16.23,-16.23 -3.6,-3.6 -9.01,-5.41 -16.23,-5.41 -7.21,0 -10.82,0 -14.43,0 -3.6,0 -9.02,0 -16.23,0l-32.46 21.64 117.23 400.39zm-1267.9 -306.6c0,-19.84 1.8,-43.29 9.02,-68.54 7.21,-23.44 21.64,-50.5 43.28,-79.35 14.43,-19.84 28.86,-39.68 46.89,-57.72 18.04,-18.03 34.27,-36.07 48.7,-57.71 19.84,-14.43 45.09,-27.05 73.95,-37.87 27.05,-9.02 59.51,-18.04 93.78,-25.25 21.64,-7.22 46.89,-10.83 73.95,-10.83 28.85,0 54.1,3.61 73.94,10.83 28.86,7.21 52.31,12.62 68.54,16.23 18.03,3.6 41.48,14.43 68.53,36.07 14.43,14.43 30.66,30.66 48.7,46.89 18.03,18.04 32.46,34.27 46.89,48.7 21.64,14.43 36.07,36.07 43.29,68.53 7.21,30.66 12.62,57.72 19.84,79.36 0,7.21 0,18.03 0,30.66 0,14.43 0,21.64 0,21.64 0,7.22 -1.81,12.63 -5.42,16.23 -3.6,3.61 -10.82,5.41 -25.25,5.41l-550.08 115.43c14.43,21.64 25.25,45.09 32.46,68.54 7.22,25.25 14.43,45.09 19.84,59.51 7.22,19.84 18.04,37.88 32.47,52.31 14.43,14.43 25.25,25.25 32.46,32.46 19.84,5.41 36.07,12.63 46.89,19.84 10.83,7.21 23.45,10.82 36.07,10.82 21.65,0 39.68,0 54.11,0 14.43,0 30.66,0 52.3,0 14.43,0 28.86,-3.61 43.29,-10.82 12.62,-7.21 27.05,-14.43 41.48,-19.84 7.22,-7.21 18.04,-14.43 30.66,-21.64 14.43,-7.22 25.25,-10.82 32.47,-10.82 7.21,-7.22 14.42,-14.43 21.64,-21.65 7.21,-7.21 18.03,-10.82 30.66,-10.82 7.21,-7.21 12.62,-12.62 16.23,-14.42 3.61,-3.61 9.02,-5.42 16.23,-5.42 7.22,0 12.63,1.81 16.24,5.42 3.6,1.8 9.01,7.21 16.23,14.42l63.12 54.11c-7.21,12.63 -14.43,25.25 -21.64,36.07 -7.22,10.82 -18.04,19.84 -32.46,27.05 -7.22,7.22 -16.24,14.43 -30.67,21.65 -14.42,5.41 -25.25,16.23 -32.46,30.66 -14.43,7.21 -25.25,14.43 -36.07,21.64 -10.82,7.21 -27.05,14.43 -48.7,21.64 -12.62,5.41 -27.05,10.82 -41.48,14.43 -14.43,3.61 -28.86,9.02 -41.48,16.23 -7.21,14.43 -30.66,21.65 -70.34,21.65 -37.87,0 -68.53,-7.22 -88.37,-21.65 -28.86,-7.21 -55.91,-16.23 -79.36,-27.05 -25.25,-9.02 -52.3,-21.64 -79.36,-36.07 -21.64,-14.43 -41.48,-30.66 -59.51,-46.89 -16.24,-18.04 -36.07,-41.49 -57.72,-68.54 -14.43,-21.64 -25.25,-50.5 -36.07,-84.77 -10.82,-36.07 -19.84,-68.53 -27.05,-95.58 -21.64,-36.08 -32.47,-68.54 -36.07,-101 -3.61,-30.66 -1.81,-61.32 5.41,-90.18zm63.12 -1278.72c19.84,0 36.07,-1.8 46.9,-3.61 10.82,-3.61 23.44,-5.41 37.87,-5.41 -7.21,0 -18.04,0 -32.46,0 -14.43,0 -32.47,3.61 -52.31,9.02zm465.32 -115.43c19.84,-7.21 37.87,-12.62 52.3,-16.23 14.43,-3.61 23.45,-9.02 30.66,-16.23 -7.21,7.21 -16.23,12.62 -30.66,16.23 -14.43,3.61 -32.46,9.02 -52.3,16.23zm400.39 -137.07c21.64,-7.21 39.68,-14.43 52.3,-21.64 14.43,-7.22 32.47,-10.82 54.11,-10.82 -7.22,0 -21.64,3.6 -43.29,10.82 -19.84,7.21 -41.48,14.43 -63.12,21.64zm497.78 -191.18c0,0 0,0 0,0 0,0 0,0 0,0 0,0 0,0 0,0 0,0 0,0 0,0zm304.8 1406.78c-19.84,-28.86 -34.27,-57.72 -41.48,-84.77 -7.21,-28.86 -10.82,-59.52 -10.82,-95.59 0,-21.64 1.8,-46.89 5.41,-79.35 3.61,-30.67 9.02,-61.33 16.23,-90.18 7.22,-19.84 16.23,-43.29 27.05,-68.54 9.02,-23.44 28.86,-43.28 57.72,-57.71 14.43,-21.64 32.46,-39.68 57.71,-52.3 25.25,-14.43 46.89,-32.47 68.54,-54.11 28.85,-12.63 55.91,-23.45 84.76,-30.66 28.86,-7.22 55.91,-10.82 84.77,-10.82 21.64,0 45.09,0 73.95,0 27.05,0 52.3,3.6 73.94,10.82 27.06,7.21 52.31,19.84 73.95,36.07 21.64,18.03 41.48,34.27 63.12,48.7 14.43,12.62 32.47,34.26 52.31,63.12 21.64,27.05 36.07,55.91 43.28,84.77 19.84,34.26 34.27,66.73 41.48,93.78 7.22,28.86 10.82,61.32 10.82,95.59 0,21.64 -1.8,48.7 -5.41,79.36 -3.6,32.46 -9.01,57.71 -16.23,79.35 -7.21,28.86 -14.43,54.11 -25.25,79.36 -10.82,25.25 -30.66,43.28 -59.52,57.71 -12.62,14.43 -32.46,30.66 -57.71,48.7 -23.45,16.23 -46.89,32.46 -68.53,46.89 -27.06,21.64 -55.91,34.27 -84.77,41.48 -27.05,7.22 -55.91,10.82 -84.77,10.82 -19.84,0 -45.09,0 -73.94,0 -27.06,0 -52.31,-3.6 -73.95,-10.82 -27.05,-12.62 -52.3,-27.05 -73.95,-41.48 -19.84,-14.43 -41.48,-28.86 -63.12,-41.48 -14.43,-28.86 -28.86,-55.91 -46.89,-79.36 -18.04,-25.25 -34.27,-52.3 -48.7,-79.35zm84.77 -1574.51c14.43,-7.21 30.66,-16.23 48.69,-27.05 16.24,-10.82 39.68,-19.84 68.54,-27.05 -21.64,0 -41.48,7.21 -57.71,21.64 -18.04,14.43 -37.88,25.25 -59.52,32.46zm434.66 -221.83c12.62,-7.22 25.24,-14.43 36.07,-21.65 10.82,-7.21 27.05,-14.42 46.89,-21.64 -19.84,7.22 -36.07,14.43 -46.89,21.64 -10.83,7.22 -23.45,14.43 -36.07,21.65zm982.93 -613.21c-21.64,12.62 -41.48,27.05 -59.51,41.48 -16.24,14.43 -36.08,28.86 -57.72,43.28 21.64,-14.42 41.48,-30.66 57.72,-48.69 18.03,-18.04 37.87,-28.86 59.51,-36.07zm-423.83 284.96c-14.43,7.21 -27.06,14.43 -41.48,21.64 -14.43,7.22 -28.86,16.23 -43.29,30.66 14.43,-14.43 28.86,-23.44 43.29,-30.66 14.42,-7.21 27.05,-14.43 41.48,-21.64zm-3064.24 1215.6c-14.43,0 -30.66,1.8 -46.9,5.41 -18.03,3.6 -41.48,5.41 -70.33,5.41 28.85,0 52.3,0 70.33,0 16.24,0 32.47,-3.61 46.9,-10.82zm-476.14 63.12c0,0 0,0 0,0 0,0 0,0 0,0 0,0 0,0 0,0 0,0 0,0 0,0zm-391.37 30.66c-12.63,0 -28.86,0 -46.9,0 -18.03,0 -34.26,0 -46.89,0 7.22,0 19.84,0 41.48,0 21.65,0 39.68,0 52.31,0zm-1722.4 -156.91c-77.55,-21.64 -155.1,-43.28 -232.66,-64.93 -77.55,-19.84 -153.3,-37.87 -230.85,-52.3 70.34,14.43 146.09,32.46 227.25,52.3 79.35,21.65 158.71,43.29 236.26,64.93zm1374.31 156.91c-48.7,0 -95.59,0 -137.07,0 -43.28,0 -88.37,-1.8 -137.07,-9.02 48.7,7.22 95.59,9.02 142.48,9.02 45.09,0 90.18,0 131.66,0zm-465.32 -9.02c-41.48,-7.21 -86.57,-14.43 -131.66,-21.64 -45.08,-7.21 -97.39,-10.82 -153.3,-10.82 55.91,0 108.22,3.61 153.3,10.82 45.09,7.21 90.18,14.43 131.66,21.64zm-465.31 -73.94c-48.7,-7.22 -99.2,-16.24 -153.31,-27.06 -52.3,-10.82 -106.41,-23.44 -162.32,-37.87 55.91,14.43 110.02,27.05 162.32,37.87 54.11,10.82 104.61,19.84 153.31,27.06zm2611.54 7280.95l-3159.82 -5495.43c-14.43,-28.86 -19.84,-52.31 -16.24,-73.95 3.61,-21.64 9.02,-43.28 16.24,-63.12l306.6 -360.72 2324.78 3594.49c27.06,41.48 57.72,75.75 90.18,99.2 30.66,25.25 68.54,48.69 110.02,68.53 409.4,135.27 807.99,234.46 1199.36,301.19 391.37,66.74 773.73,101 1147.06,101 48.7,0 101,-1.8 153.3,-5.41 52.31,-3.6 106.41,-9.01 164.13,-16.23 -479.75,239.87 -921.62,514.01 -1327.42,818.81 -403.99,306.61 -741.26,651.09 -1008.19,1031.64zm6382.79 -2896.51c-198.4,14.43 -398.59,34.27 -602.39,57.71 -203.8,25.25 -416.62,55.91 -634.85,90.18 162.32,-97.39 317.42,-203.8 465.31,-317.43 147.9,-111.82 292.18,-234.46 432.86,-369.72l339.07 539.26zm-2166.07 358.91c-176.75,50.5 -349.89,101 -517.62,153.3 -169.54,54.11 -342.68,115.43 -519.43,185.76 -189.37,41.49 -382.35,72.15 -575.33,90.18 -192.98,18.04 -393.18,25.25 -596.98,25.25 -358.91,0 -726.83,-32.46 -1103.77,-99.19 -376.95,-66.73 -766.52,-160.52 -1168.71,-281.36 -14.43,-5.41 -25.25,-14.43 -36.07,-25.25 -10.82,-10.82 -19.84,-19.84 -27.05,-27.05l-1394.15 -2176.89c669.12,203.8 1312.99,310.21 1933.41,317.42 613.21,7.22 1197.56,-79.35 1754.86,-259.71 555.49,-178.55 1083.94,-445.48 1583.52,-797.17 508.6,-351.69 986.55,-779.14 1437.43,-1278.72 7.22,-7.21 14.43,-16.23 21.65,-27.05 7.21,-9.02 10.82,-21.65 10.82,-36.07l1574.5 2240.01c28.86,36.07 39.68,75.75 36.07,120.84 -3.6,46.89 -18.03,82.96 -46.89,111.82 -358.91,409.41 -734.05,759.3 -1125.42,1051.47 -391.37,292.18 -804.38,530.25 -1240.84,712.41zm-2398.73 -3740.58c34.27,14.43 68.53,21.65 99.19,21.65 32.47,0 64.93,-7.22 101,-21.65 34.27,-14.43 64.93,-34.26 90.18,-63.12 23.45,-28.86 39.68,-55.91 46.89,-84.77 7.22,-34.27 7.22,-72.14 0,-110.02 -7.21,-39.67 -25.25,-79.35 -52.3,-122.64 -28.86,-41.48 -55.91,-79.35 -79.36,-110.01 -25.25,-32.47 -48.69,-57.72 -68.53,-79.36 -36.07,-14.43 -68.54,-21.64 -101,-21.64 -32.47,0 -64.93,7.21 -101,21.64 -34.27,21.64 -64.93,43.29 -88.37,68.53 -25.25,25.25 -41.49,54.11 -48.7,90.18 -7.21,27.06 -7.21,63.13 0,104.61 7.21,43.28 25.25,84.77 54.11,128.05 27.05,41.48 54.1,79.36 77.55,110.02 25.25,32.46 48.7,54.1 70.34,68.53zm-1480.72 95.59c-7.22,-14.43 -16.23,-27.05 -25.25,-37.87 -10.82,-9.02 -19.84,-18.04 -27.05,-25.25 -7.22,-7.22 -18.04,-14.43 -32.47,-21.65 -12.62,-7.21 -23.44,-10.82 -30.66,-10.82 -14.43,0 -28.86,0 -43.28,0 -14.43,0 -27.06,0 -41.49,0 -36.07,7.22 -64.92,19.84 -90.17,37.88 -25.25,16.23 -43.29,36.07 -57.72,57.71 -14.43,28.86 -25.25,55.91 -32.46,84.77 -7.22,27.05 -7.22,63.12 0,104.6l432.85 -104.6c-5.41,-14.43 -14.43,-28.86 -25.25,-43.29 -10.82,-12.62 -19.84,-27.05 -27.05,-41.48zm413.01 -2261.66c0,0 0,0 0,0 0,0 0,0 0,0l73.95 -10.82c48.69,-14.43 90.18,-23.44 120.84,-30.66 32.46,-7.21 72.14,-21.64 120.84,-43.28 21.64,-7.22 36.07,-18.04 43.28,-30.66 7.21,-14.43 10.82,-32.47 10.82,-54.11 -7.21,-12.63 -18.03,-23.45 -32.46,-30.66 -14.43,-7.22 -30.66,-10.82 -52.31,-10.82 -48.69,14.43 -90.17,25.25 -120.83,30.66 -32.47,7.21 -72.15,18.03 -122.65,32.46l-52.3 21.64c-21.64,0 -37.87,9.02 -48.69,25.25 -9.02,18.04 -10.83,34.27 -3.61,48.7 0,14.43 5.41,25.25 19.84,36.07 14.43,10.82 28.85,16.23 43.28,16.23zm654.69 -180.35c0,0 1.81,0 5.41,0 3.61,0 5.42,0 5.42,0 324.63,-111.82 633.04,-256.11 930.63,-432.86 295.78,-174.94 625.83,-414.81 991.95,-717.81 21.65,-21.64 52.31,-37.87 90.18,-48.7 39.68,-9.01 72.14,-10.82 101,-5.41 34.27,14.43 68.54,28.86 99.2,43.29 32.46,14.43 55.91,34.27 70.34,63.12l696.17 993.76c14.43,21.64 30.66,30.66 48.69,30.66 16.24,0 36.08,-3.6 57.72,-9.02 14.43,-7.21 23.44,-21.64 25.25,-43.28 3.6,-21.64 -1.81,-41.48 -14.43,-63.13l-697.98 -993.75c-28.85,-41.49 -66.73,-79.36 -117.23,-110.02 -48.69,-32.46 -97.39,-52.3 -147.89,-59.52 -55.91,-5.41 -108.21,-1.8 -156.91,10.82 -50.5,14.43 -95.59,39.68 -138.87,73.95 -358.91,303 -681.75,541.07 -966.71,714.21 -284.96,173.14 -586.15,312.01 -903.58,416.62 -14.43,7.21 -23.45,19.84 -30.66,37.87 -7.21,18.04 -10.82,32.47 -10.82,46.89 7.21,14.43 14.43,27.06 21.64,37.88 5.41,10.82 19.84,14.43 41.48,14.43z"/>
 </g>
</svg>
