<?xml version="1.0" encoding="UTF-8"?>
<!DOCTYPE svg PUBLIC "-//W3C//DTD SVG 1.1//EN" "http://www.w3.org/Graphics/SVG/1.1/DTD/svg11.dtd">
<!-- Creator: CorelDRAW 2020 (64-Bit) -->
<svg xmlns="http://www.w3.org/2000/svg" xml:space="preserve" width="109.22mm" height="105.579mm" version="1.1" style="shape-rendering:geometricPrecision; text-rendering:geometricPrecision; image-rendering:optimizeQuality; fill-rule:evenodd; clip-rule:evenodd"
viewBox="0 0 10921.98 10557.92"
 xmlns:xlink="http://www.w3.org/1999/xlink"
 xmlns:xodm="http://www.corel.com/coreldraw/odm/2003">
 <defs>
  <style type="text/css">
   <![CDATA[
    .fil0 {fill:#2B2A29;fill-rule:nonzero}
   ]]>
  </style>
 </defs>
 <g id="Warstwa_x0020_1">
  <metadata id="CorelCorpID_0Corel-Layer"/>
  <path class="fil0" d="M8426.88 8218.38c-108.5,13.1 -216.99,33.67 -323.62,59.86 -104.75,26.19 -213.25,48.64 -323.62,71.09 -20.58,7.48 -35.54,20.57 -43.02,39.28 -7.49,16.84 -11.23,33.67 -11.23,48.64 0,22.44 7.49,35.54 22.45,43.02 14.97,7.48 29.93,11.23 43.03,11.23 0,0 3.74,0 11.22,0 7.48,0 11.22,0 11.22,0 102.89,-28.06 205.77,-54.25 312.4,-76.7 106.62,-22.45 213.25,-43.03 323.62,-65.47 14.96,0 29.93,-7.49 43.02,-22.45 14.97,-14.97 18.71,-35.54 11.23,-65.47 7.48,-14.97 3.74,-26.19 -11.23,-31.8 -13.09,-7.49 -35.54,-11.23 -65.47,-11.23zm-931.57 218.87c-598.61,183.32 -1133.61,428.37 -1605.01,738.9 -471.4,310.52 -860.49,675.29 -1167.27,1090.57 -7.48,14.97 -11.22,31.81 -11.22,50.51 0,18.71 7.48,37.41 22.44,59.86 7.49,7.48 13.1,11.23 20.58,11.23 7.48,0 11.22,0 11.22,0 14.97,0 26.19,-3.75 33.68,-11.23 7.48,-7.48 14.96,-14.96 20.57,-22.45 301.17,-394.7 680.91,-742.64 1141.09,-1045.68 460.17,-303.04 982.08,-546.22 1567.59,-729.55 20.57,-7.48 35.54,-20.57 43.02,-37.41 7.48,-18.7 11.23,-35.54 11.23,-50.5 0,-14.97 -7.49,-26.19 -22.45,-37.42 -14.97,-11.22 -35.54,-16.83 -65.47,-16.83zm3299.79 -2411.25c72.95,-80.43 112.24,-175.84 119.72,-284.33 7.48,-110.37 -20.58,-205.77 -87.92,-286.21l-3254.9 -4669.1c-22.45,-22.44 -46.76,-43.02 -76.69,-65.47 -28.06,-22.45 -61.73,-33.67 -99.15,-33.67 -5.61,0 -13.09,0 -20.57,0 -7.49,0 -11.23,0 -11.23,0 -29.93,0 -56.12,3.74 -82.31,11.22 -26.18,7.49 -48.63,22.45 -71.08,44.9 -417.15,306.78 -832.43,576.15 -1249.58,809.98 -417.15,233.83 -830.56,430.25 -1243.97,587.38 -413.41,157.13 -824.95,274.98 -1232.75,355.42 -409.67,80.44 -815.59,121.59 -1217.78,121.59 -321.75,0 -643.5,-26.19 -968.99,-76.69 -325.49,-52.38 -645.36,-125.34 -959.63,-220.74 -14.97,0 -29.93,-1.87 -43.03,-5.61 -14.96,-3.74 -26.18,-3.74 -33.67,-3.74 -43.02,0 -82.3,7.48 -115.98,26.19 -31.8,18.7 -63.6,43.02 -91.66,71.08 -29.93,44.9 -46.76,93.53 -50.5,147.78 -3.75,56.12 9.35,104.76 39.28,147.78l755.73 1172.89 -361.03 439.6c-44.89,57.98 -67.34,127.2 -71.08,207.64 -3.74,80.43 11.22,153.39 48.64,218.86l3299.79 5733.49c20.58,28.05 44.89,50.5 71.08,65.47 24.32,14.96 52.38,22.44 82.31,22.44 0,0 0,0 0,0 0,0 0,0 0,0 35.54,0 67.34,-7.48 93.53,-22.44 24.32,-14.97 48.64,-37.42 71.09,-65.47 160.87,-248.8 353.55,-482.63 579.89,-701.49 233.83,-218.87 488.24,-424.63 761.35,-613.57 274.98,-190.8 568.67,-362.9 882.94,-516.29 314.26,-153.39 636.01,-291.82 965.24,-415.28 181.45,-44.9 362.91,-93.53 542.49,-149.65 177.71,-54.25 355.42,-117.85 531.26,-190.81 379.73,-102.88 755.73,-185.19 1127.99,-246.92 374.12,-61.73 731.41,-101.02 1075.61,-114.11 43.02,0 82.31,-13.09 114.11,-39.28 33.67,-26.19 59.86,-52.38 82.31,-82.31 14.96,-35.54 22.44,-74.83 22.44,-114.11 0,-41.15 -14.96,-78.57 -44.89,-115.98l-394.7 -624.79c87.92,-72.95 173.96,-155.26 258.14,-246.92 84.18,-91.66 170.23,-183.33 258.15,-278.73zm-6926.95 4208.92l-3245.54 -5634.34c-13.1,-22.45 -18.71,-44.89 -14.97,-71.08 1.87,-26.19 7.48,-44.9 14.97,-59.86l318 -362.91 2379.45 3694.5c28.06,37.41 59.86,69.22 93.53,99.15 31.8,28.05 71.08,54.24 114.11,76.69 417.15,138.43 824.94,241.31 1227.13,306.78 402.19,65.48 793.15,99.15 1172.89,99.15 52.37,0 102.88,0 153.39,0 52.38,0 102.88,-3.74 153.39,-11.23 -480.75,233.83 -929.7,505.08 -1341.24,815.6 -413.41,310.52 -755.74,660.33 -1025.11,1047.55zm6532.25 -2948.11c-198.29,13.09 -402.19,33.67 -613.57,59.86 -213.25,26.19 -428.37,56.12 -647.24,93.53 153.39,-102.88 306.78,-213.25 460.18,-329.23 153.39,-117.85 303.04,-237.57 448.95,-361.03l351.68 536.87zm-2214.83 361.03c-173.97,43.02 -349.81,93.53 -525.65,147.78 -175.84,54.25 -349.81,115.98 -525.65,181.45 -198.28,43.03 -396.57,74.83 -598.6,93.53 -200.16,16.84 -402.18,26.19 -607.95,26.19 -372.26,0 -750.13,-33.67 -1133.61,-102.88 -383.48,-71.09 -783.79,-170.23 -1200.94,-303.05 -14.97,-5.61 -26.19,-13.09 -37.41,-20.57 -11.23,-7.48 -20.58,-14.97 -28.06,-22.45l-3277.35 -5097.47c336.71,102.88 669.69,179.58 997.05,230.09 329.23,52.37 662.2,76.69 998.91,76.69 422.77,0 847.4,-39.28 1270.16,-119.72 417.15,-80.44 838.05,-200.16 1266.42,-361.03 426.5,-160.87 856.75,-362.9 1286.99,-604.21 432.12,-241.32 862.37,-521.91 1294.48,-843.66l3254.9 4657.87c29.93,37.42 44.9,78.57 44.9,127.21 0,46.76 -18.71,86.05 -56.12,114.11 -372.26,424.63 -757.61,787.53 -1156.05,1090.57 -398.45,303.05 -819.34,546.23 -1266.42,729.55zm-3550.46 -6060.85c0,0 0,0 0,0 0,0 0,0 0,0l65.47 -22.44c50.51,-7.49 95.4,-16.84 130.95,-28.06 37.41,-9.36 80.43,-22.45 132.81,-37.42 13.1,-7.48 24.32,-20.57 31.8,-39.28 7.48,-16.84 11.23,-33.67 11.23,-48.64 -7.49,-14.96 -18.71,-28.06 -33.68,-37.41 -13.09,-11.22 -28.06,-16.83 -43.02,-16.83 -57.99,20.57 -104.76,33.67 -136.56,37.41 -33.67,3.74 -74.82,16.83 -127.2,39.28l-54.25 11.23c-14.96,0 -28.06,9.35 -43.02,31.8 -14.97,22.44 -14.97,41.15 0,54.24 0,14.97 5.61,28.06 14.96,39.29 11.23,11.22 28.06,16.83 50.51,16.83zm667.82 -198.28c0,0 3.74,0 11.22,0 7.48,0 11.22,0 11.22,0 329.23,-108.5 643.5,-252.54 942.8,-432.12 299.3,-179.58 636.02,-426.5 1008.27,-740.77 22.45,-20.58 52.38,-37.41 93.53,-48.64 39.29,-11.22 78.57,-9.35 114.11,5.62 29.93,7.48 61.73,18.7 93.53,33.67 33.68,13.09 56.12,35.54 71.09,65.47l712.71 1019.49c7.48,13.1 22.45,22.45 43.02,26.19 22.45,3.74 44.9,1.87 67.35,-5.61 13.09,-20.58 20.57,-41.15 20.57,-59.86 0,-18.71 -3.74,-35.54 -11.22,-48.64l-701.49 -1019.49c-35.54,-44.9 -74.82,-80.44 -119.72,-110.37 -43.02,-28.06 -99.14,-50.5 -164.61,-65.47 -50.51,-7.48 -102.89,-1.87 -159.01,16.84 -54.25,18.7 -102.88,41.15 -147.78,71.08 -364.77,306.78 -694,548.1 -985.82,723.93 -293.69,173.97 -604.21,321.75 -931.58,437.73 -14.96,7.48 -28.05,18.71 -39.28,33.67 -11.22,13.1 -16.83,31.8 -16.83,54.25 14.96,14.97 29.93,26.19 44.89,31.8 14.97,7.49 28.06,11.23 43.03,11.23zm-2652.56 2093.23l340.45 516.3c57.99,95.4 114.11,181.45 170.23,261.89 54.25,80.43 114.11,160.87 179.58,241.31l0 0c-80.43,-57.99 -160.87,-114.11 -239.44,-168.36 -80.44,-56.12 -175.84,-115.98 -286.2,-181.45l-854.88 -525.65 -196.42 9.36 809.98 1229 175.84 -33.67 -340.45 -514.42c-72.96,-110.37 -136.56,-202.03 -190.81,-274.99 -54.24,-72.95 -108.49,-149.65 -159,-230.09l0 0c80.44,57.99 166.49,119.73 258.15,181.46 89.79,61.73 183.32,121.59 278.72,181.45l866.1 536.87 187.07 -33.67 -811.86 -1227.14 -187.06 31.8zm4506.35 -1193.46l-209.51 22.45c-43.02,5.61 -86.05,1.87 -125.33,-11.23 -41.16,-14.96 -74.83,-41.15 -104.76,-76.69l-130.94 -153.39c-7.48,-7.49 -20.58,-14.97 -39.28,-22.45 -16.84,-7.48 -33.68,-7.48 -48.64,0 -14.97,7.48 -24.32,16.83 -28.06,28.06 -3.74,9.35 -5.61,26.19 -5.61,48.63l11.22 196.42c14.97,44.9 13.1,86.05 -5.61,127.2 -16.84,39.29 -44.9,74.83 -82.31,102.89l-153.39 144.04c-7.48,5.61 -13.09,16.83 -14.96,31.8 -3.75,14.96 -1.88,29.93 3.74,44.89 7.48,20.58 16.83,33.67 28.06,37.42 11.22,3.74 24.31,5.61 39.28,5.61l207.64 -22.45c43.02,-7.48 86.05,-3.74 125.33,11.22 41.16,14.97 71.09,41.16 93.53,76.7l142.17 153.39c7.48,7.48 16.84,13.1 28.06,16.84 11.22,3.74 20.58,5.61 28.06,5.61 7.48,0 11.22,0 14.97,0 3.74,0 9.35,0 16.83,0 14.97,-14.97 24.32,-26.19 28.06,-33.67 3.74,-7.48 5.61,-20.58 5.61,-43.03l-22.45 -207.64c-7.48,-37.41 -1.87,-76.69 16.84,-121.59 18.71,-43.02 41.15,-76.69 71.08,-99.14l164.62 -142.17c7.48,-7.48 13.09,-18.71 16.84,-31.8 3.74,-14.96 1.87,-33.67 -5.62,-56.12 -7.48,-7.48 -18.7,-13.09 -33.67,-20.58 -14.96,-7.48 -26.19,-11.22 -31.8,-11.22zm-198.29 175.84c-35.54,43.02 -67.34,95.4 -93.53,157.13 -24.32,63.6 -33.67,127.21 -26.19,192.68l0 0 0 0c-37.41,-43.03 -80.43,-74.83 -132.81,-93.53 -50.51,-18.71 -101.01,-26.19 -153.39,-26.19 -14.97,0 -24.32,0 -31.8,0 -7.49,0 -14.97,0 -22.45,0l0 0 0 0c43.02,-44.9 76.7,-99.15 99.14,-164.62 20.58,-65.47 28.06,-129.07 20.58,-187.06l0 0 0 0c44.89,43.02 95.4,74.82 153.39,93.53 59.86,18.71 121.59,28.06 187.06,28.06l0 0 0 0z"/>
 </g>
</svg>
