<?xml version="1.0" encoding="UTF-8"?>
<!DOCTYPE svg PUBLIC "-//W3C//DTD SVG 1.1//EN" "http://www.w3.org/Graphics/SVG/1.1/DTD/svg11.dtd">
<!-- Creator: CorelDRAW 2020 (64-Bit) -->
<svg xmlns="http://www.w3.org/2000/svg" xml:space="preserve" width="109.22mm" height="105.579mm" version="1.1" style="shape-rendering:geometricPrecision; text-rendering:geometricPrecision; image-rendering:optimizeQuality; fill-rule:evenodd; clip-rule:evenodd"
viewBox="0 0 10921.98 10557.92"
 xmlns:xlink="http://www.w3.org/1999/xlink"
 xmlns:xodm="http://www.corel.com/coreldraw/odm/2003">
 <defs>
  <style type="text/css">
   <![CDATA[
    .fil0 {fill:none}
    .fil1 {fill:#2B2A29;fill-rule:nonzero}
   ]]>
  </style>
 </defs>
 <g id="Warstwa_x0020_1">
  <metadata id="CorelCorpID_0Corel-Layer"/>
  <rect class="fil0" x="-0.02" y="4.23" width="10921.99" height="10557.93"/>
  <path class="fil1" d="M8731.46 1282.55l-740.47 0c-27.67,0 -53.86,10.3 -81.53,31.2 -25.9,20.6 -39.73,46.5 -39.73,81.23 0,32.96 10.3,63.86 29.43,91.82 20.9,25.9 51.8,39.73 91.83,39.73l628.04 0 0 8496.3 -6873.2 0 0 -8496.3 709.57 0c27.66,0 51.8,-12.07 75.93,-36.49 22.66,-22.37 34.73,-55.33 34.73,-95.06 0,-34.73 -12.07,-60.63 -34.73,-81.23 -24.13,-20.9 -48.27,-31.2 -75.93,-31.2l-822 0c-25.9,0 -53.56,10.3 -81.52,31.2 -25.9,20.6 -39.73,46.5 -39.73,81.23l0 8750.57c0,32.97 10.6,64.16 29.43,90.06 20.9,27.67 52.09,41.5 91.82,41.5l7098.06 0c25.9,0 53.56,-12.07 81.52,-36.2 25.9,-24.43 39.73,-55.33 39.73,-95.36l0 -8729.97c0,-41.5 -13.83,-72.4 -39.73,-96.83 -27.96,-24.13 -55.62,-36.2 -81.52,-36.2zm638.64 364.94c-20.9,0 -34.73,5.3 -41.5,15.6 -5.29,10.59 -8.83,22.66 -8.83,36.49l0 3021.34c0,12.07 3.54,24.13 8.83,34.43 6.77,10.3 20.6,15.6 41.5,15.6 13.83,0 24.13,-6.77 31.2,-20.6 5,-13.83 8.53,-22.66 8.53,-29.43l0 -3021.34c0,-7.06 -3.53,-17.36 -8.53,-31.2 -7.07,-13.83 -17.37,-20.89 -31.2,-20.89zm0 -364.94c13.83,0 24.13,-3.53 31.2,-8.83 5,-6.77 8.53,-20.6 8.53,-41.5 0,-141.85 -50.03,-261.34 -150.68,-359.93 -101.83,-98.59 -226.62,-147.15 -375.24,-147.15l-254.58 0c-13.83,0 -22.36,3.53 -29.43,10.59 -6.77,6.77 -10.3,20.6 -10.3,39.73 0,13.83 3.53,24.14 10.3,31.2 7.07,6.77 15.6,10.3 29.43,10.3l254.58 0c120.96,0 224.85,41.5 307.84,126.26 84.76,84.76 128.02,186.88 128.02,309.9 0,6.77 3.54,13.83 8.83,20.6 6.77,5.3 20.6,8.83 41.5,8.83zm-6499.44 1794.38c0,27.66 12.07,55.33 36.2,81.23 22.66,27.66 52.09,41.49 84.76,41.49l2393.29 0c34.73,0 63.87,-13.83 91.83,-41.49 27.66,-25.9 39.73,-53.57 39.73,-81.23 0,-32.96 -12.07,-64.16 -39.73,-90.06 -27.96,-27.66 -57.1,-41.49 -91.83,-41.49l-2393.29 0c-32.67,0 -62.1,13.83 -84.76,41.49 -24.13,25.9 -36.2,57.1 -36.2,90.06zm120.96 1126.6l2393.29 0c34.73,0 63.87,-12.36 91.83,-36.49 27.66,-22.37 39.73,-51.8 39.73,-84.76 0,-34.73 -12.07,-65.63 -39.73,-91.83 -27.96,-27.66 -57.1,-41.49 -91.83,-41.49l-2393.29 0c-32.67,0 -62.1,13.83 -84.76,41.49 -24.13,26.2 -36.2,57.1 -36.2,91.83 0,32.96 12.07,62.39 36.2,84.76 22.66,24.13 52.09,36.49 84.76,36.49zm4350.42 749.01l-4350.42 0c-32.67,0 -62.1,14.12 -84.76,41.79 -24.13,27.66 -36.2,57.09 -36.2,91.53 0,32.96 12.07,64.16 36.2,90.05 22.66,27.67 52.09,41.5 84.76,41.5l4350.42 0c27.67,0 53.57,-13.83 81.23,-41.5 27.67,-25.89 39.73,-57.09 39.73,-90.05 0,-34.44 -8.53,-63.87 -29.43,-91.53 -20.6,-27.67 -50.03,-41.79 -91.53,-41.79zm0 1014.17l-4350.42 0c-32.67,0 -62.1,13.84 -84.76,41.5 -24.13,25.9 -36.2,53.56 -36.2,81.23 0,32.96 12.07,64.16 36.2,90.06 22.66,27.66 52.09,41.49 84.76,41.49l4350.42 0c27.67,0 53.57,-13.83 81.23,-41.49 27.67,-25.9 39.73,-57.1 39.73,-90.06 0,-27.67 -8.53,-55.33 -29.43,-81.23 -20.6,-27.66 -50.03,-41.5 -91.53,-41.5zm0 984.75l-4350.42 0c-32.67,0 -62.1,13.83 -84.76,39.73 -24.13,27.66 -36.2,57.09 -36.2,91.53 0,32.96 12.07,64.16 36.2,91.82 22.66,25.9 52.09,39.73 84.76,39.73l4350.42 0c27.67,0 53.57,-13.83 81.23,-39.73 27.67,-27.66 39.73,-58.86 39.73,-91.82 0,-34.44 -8.53,-63.87 -29.43,-91.53 -20.6,-25.9 -50.03,-39.73 -91.53,-39.73zm0 1013.88l-4350.42 0c-32.67,0 -62.1,12.07 -84.76,39.73 -24.13,27.67 -36.2,53.56 -36.2,81.52 0,34.44 12.07,63.87 36.2,91.53 22.66,25.9 52.09,39.73 84.76,39.73l4350.42 0c27.67,0 53.57,-13.83 81.23,-39.73 27.67,-27.66 39.73,-57.09 39.73,-91.53 0,-27.96 -8.53,-53.85 -29.43,-81.52 -20.6,-27.66 -50.03,-39.73 -91.53,-39.73zm233.68 -6044.44c32.67,0 63.87,-10.3 91.53,-34.44 25.9,-24.42 39.73,-52.09 39.73,-86.52l0 -1389.71c0,-32.67 -12.06,-62.1 -34.43,-84.76 -24.14,-24.13 -57.1,-36.2 -96.83,-36.2 -41.79,0 -70.93,12.07 -91.82,36.2 -20.9,22.66 -29.43,52.09 -29.43,84.76l0 1400.01c0,34.73 12.06,60.63 39.73,81.23 27.66,20.89 53.86,29.43 81.52,29.43zm-477.66 0c34.44,0 65.63,-10.3 91.53,-34.44 27.67,-24.42 41.79,-52.09 41.79,-86.52l0 -1389.71c0,-32.67 -12.36,-62.1 -36.49,-84.76 -24.13,-24.13 -55.33,-36.2 -96.83,-36.2 -39.73,0 -69.16,12.07 -84.76,36.2 -17.36,22.66 -26.19,52.09 -26.19,84.76l0 1400.01c0,34.73 10.6,60.63 31.2,81.23 19.13,20.89 46.79,29.43 79.75,29.43zm-465.59 0c32.97,0 64.16,-10.3 91.83,-34.44 25.9,-24.42 39.73,-52.09 39.73,-86.52l0 -1389.71c0,-32.67 -12.07,-62.1 -34.73,-84.76 -24.13,-24.13 -57.1,-36.2 -96.83,-36.2 -39.73,0 -70.92,12.07 -91.53,36.2 -20.89,22.66 -29.43,52.09 -29.43,84.76l0 1400.01c0,34.73 12.07,60.63 39.73,81.23 27.67,20.89 53.57,29.43 81.23,29.43zm-456.76 0c27.67,0 53.56,-10.3 81.23,-34.44 27.66,-24.42 41.5,-52.09 41.5,-86.52l0 -1389.71c0,-32.67 -10.3,-62.1 -30.91,-84.76 -20.89,-24.13 -50.32,-36.2 -91.82,-36.2 -39.73,0 -72.69,12.07 -95.06,36.2 -24.43,22.66 -36.49,52.09 -36.49,84.76l0 1400.01c0,34.73 12.06,60.63 36.49,81.23 22.37,20.89 55.33,29.43 95.06,29.43zm-486.19 0c34.43,0 63.86,-10.3 91.53,-34.44 26.19,-24.42 40.02,-52.09 40.02,-86.52l0 -1389.71c0,-32.67 -12.36,-62.1 -34.72,-84.76 -24.14,-24.13 -57.1,-36.2 -96.83,-36.2 -34.73,0 -60.63,12.07 -81.52,36.2 -20.6,22.66 -29.43,52.09 -29.43,84.76l0 1400.01c0,34.73 10.59,60.63 34.72,81.23 24.14,20.89 48.56,29.43 76.23,29.43zm-456.76 0c27.66,0 55.33,-10.3 81.23,-34.44 27.66,-24.42 41.49,-52.09 41.49,-86.52l0 -1389.71c0,-32.67 -10.3,-62.1 -31.19,-84.76 -20.61,-24.13 -50.04,-36.2 -91.53,-36.2 -40.03,0 -72.7,12.07 -95.36,36.2 -24.13,22.66 -36.2,52.09 -36.2,84.76l0 1400.01c0,34.73 13.84,60.63 41.5,81.23 25.9,20.89 57.1,29.43 90.06,29.43zm-486.49 0c34.73,0 64.16,-10.3 91.82,-34.44 25.9,-24.42 39.74,-52.09 39.74,-86.52l0 -1389.71c0,-32.67 -12.07,-62.1 -34.44,-84.76 -24.43,-24.13 -55.62,-36.2 -97.12,-36.2 -32.67,0 -60.33,12.07 -81.23,36.2 -20.89,22.66 -29.43,52.09 -29.43,84.76l0 1400.01c0,34.73 10.3,60.63 34.73,81.23 24.13,20.89 48.27,29.43 75.93,29.43zm-456.76 0c34.73,0 64.16,-10.3 86.52,-34.44 24.14,-24.42 36.5,-52.09 36.5,-86.52l0 -1389.71c0,-32.67 -10.6,-62.1 -31.2,-84.76 -20.89,-24.13 -50.32,-36.2 -91.82,-36.2 -39.73,0 -69.16,12.07 -84.76,36.2 -17.37,22.66 -25.9,52.09 -25.9,84.76l0 1400.01c0,34.73 10.3,60.63 31.2,81.23 18.83,20.89 46.5,29.43 79.46,29.43zm-465.59 0c32.96,0 64.16,-10.3 91.82,-34.44 25.9,-24.42 39.73,-52.09 39.73,-86.52l0 -1389.71c0,-32.67 -12.06,-62.1 -34.43,-84.76 -24.43,-24.13 -57.1,-36.2 -97.12,-36.2 -41.5,0 -72.4,12.07 -96.83,36.2 -22.37,22.66 -34.43,52.09 -34.43,84.76l0 1400.01c0,34.73 13.83,60.63 39.73,81.23 27.66,20.89 57.09,29.43 91.53,29.43zm-475.6 0c32.67,0 62.1,-10.3 84.76,-34.44 24.13,-24.42 36.2,-52.09 36.2,-86.52l0 -1389.71c0,-32.67 -10.3,-62.1 -31.2,-84.76 -18.83,-24.13 -50.03,-36.2 -89.76,-36.2 -41.79,0 -71.22,12.07 -86.53,36.2 -17.36,22.66 -26.19,52.09 -26.19,84.76l0 1400.01c0,34.73 10.6,60.63 31.2,81.23 19.13,20.89 46.79,29.43 81.52,29.43zm-467.36 0c32.97,0 64.16,-10.3 91.83,-34.44 25.9,-24.42 39.73,-52.09 39.73,-86.52l0 -1389.71c0,-32.67 -12.07,-62.1 -34.73,-84.76 -24.13,-24.13 -57.09,-36.2 -96.83,-36.2 -39.73,0 -69.16,12.07 -86.52,36.2 -17.37,22.66 -25.9,52.09 -25.9,84.76l0 1400.01c0,34.73 10.3,60.63 31.2,81.23 20.6,20.89 46.5,29.43 81.22,29.43zm3336.25 1643.99c0,32.96 12.06,64.16 34.73,90.06 24.13,27.66 55.33,41.49 96.82,41.49l496.5 0 0 496.5c0,34.72 12.36,62.39 34.72,86.52 24.14,22.66 53.57,34.73 86.53,34.73 41.5,0 72.69,-10.3 96.83,-29.43 24.42,-20.9 34.72,-51.8 34.72,-91.82l0 -496.5 498.26 0c32.97,0 62.4,-12.06 84.76,-36.49 24.43,-22.37 36.5,-55.33 36.5,-95.06 0,-34.73 -15.6,-62.39 -45.03,-86.53 -31.2,-24.13 -64.16,-36.2 -96.83,-36.2l-496.79 0 0 -496.78c0,-32.97 -10.3,-63.87 -31.19,-90.06 -20.6,-27.67 -50.03,-41.5 -91.53,-41.5 -40.03,0 -72.69,12.07 -95.36,36.49 -24.13,22.37 -36.2,55.33 -36.2,95.07l0 496.78 -496.78 0c-25.9,0 -51.8,13.83 -75.93,41.5 -22.67,25.9 -34.73,53.56 -34.73,81.23z"/>
 </g>
</svg>
