<?xml version="1.0" encoding="UTF-8"?>
<!DOCTYPE svg PUBLIC "-//W3C//DTD SVG 1.1//EN" "http://www.w3.org/Graphics/SVG/1.1/DTD/svg11.dtd">
<!-- Creator: CorelDRAW 2020 (64-Bit) -->
<svg xmlns="http://www.w3.org/2000/svg" xml:space="preserve" width="109.22mm" height="105.579mm" version="1.1" style="shape-rendering:geometricPrecision; text-rendering:geometricPrecision; image-rendering:optimizeQuality; fill-rule:evenodd; clip-rule:evenodd"
viewBox="0 0 10921.98 10557.92"
 xmlns:xlink="http://www.w3.org/1999/xlink"
 xmlns:xodm="http://www.corel.com/coreldraw/odm/2003">
 <defs>
  <style type="text/css">
   <![CDATA[
    .fil0 {fill:none}
    .fil1 {fill:#2B2A29;fill-rule:nonzero}
   ]]>
  </style>
 </defs>
 <g id="Warstwa_x0020_1">
  <metadata id="CorelCorpID_0Corel-Layer"/>
  <rect class="fil0" x="-0.02" y="4.23" width="10921.99" height="10557.93"/>
  <path class="fil1" d="M8375.72 8136.65c-111.72,21.63 -221.64,43.25 -326.16,63.07 -106.32,21.63 -209.03,46.85 -306.34,73.88 -21.62,7.21 -36.04,19.83 -43.25,37.85 -7.2,18.02 -10.81,32.43 -10.81,46.85 0,14.41 7.21,27.03 21.63,37.84 14.41,10.81 28.83,14.42 43.24,14.42 0,0 1.81,0 9.01,0 7.21,0 10.82,0 10.82,0 99.11,-27.03 201.82,-54.06 306.34,-77.49 106.31,-25.23 207.23,-45.05 306.34,-59.47 21.62,0 37.84,-7.2 46.85,-19.82 10.81,-14.41 12.61,-36.04 5.4,-64.87 0,-5.41 -7.2,-16.22 -19.82,-30.63 -14.41,-14.42 -28.83,-21.63 -43.25,-21.63zm-919.02 232.46c-583.84,183.8 -1106.42,425.27 -1567.74,728.01 -461.31,302.73 -841.53,655.93 -1144.27,1055.97 -7.2,14.42 -10.81,30.63 -10.81,48.65 0,16.22 10.81,32.44 30.64,46.86 7.2,14.41 14.41,21.62 21.62,21.62 7.21,0 10.81,0 10.81,0 7.21,0 16.22,-3.6 27.03,-10.81 9.01,-7.21 18.02,-14.42 25.23,-21.63 288.32,-394.63 657.73,-737.01 1108.23,-1028.94 450.5,-291.92 962.27,-526.18 1531.7,-702.78 21.62,-7.21 36.04,-18.02 41.45,-30.63 7.2,-14.42 10.81,-32.44 10.81,-54.06 0,-19.82 -10.81,-36.04 -30.64,-46.85 -21.62,-10.82 -39.64,-12.62 -54.06,-5.41zm3211.17 -2355.21c70.28,-77.49 108.12,-165.79 115.33,-268.5 7.2,-102.72 -21.63,-194.62 -84.7,-279.31l-3176.92 -4562.67c-14.42,-19.82 -37.85,-41.44 -68.48,-63.07 -32.44,-19.82 -63.07,-30.63 -90.1,-30.63 -14.42,0 -25.23,0 -32.44,0 -7.2,0 -10.81,0 -10.81,0 -19.82,0 -43.25,3.6 -68.47,10.81 -23.43,5.41 -50.46,16.22 -79.29,30.64 -400.05,302.73 -805.5,571.23 -1214.55,801.89 -400.04,225.25 -803.69,416.26 -1207.34,571.23 -405.45,154.97 -809.1,270.3 -1209.14,347.79 -394.64,77.48 -792.88,117.13 -1192.93,117.13 -309.94,0 -623.49,-25.23 -940.64,-73.89 -317.15,-50.45 -630.7,-120.73 -938.84,-210.83 -14.42,-7.21 -27.03,-12.61 -37.84,-16.22 -10.82,-3.6 -23.43,-5.4 -36.04,-5.4 -43.25,0 -81.09,9.01 -117.13,25.22 -34.24,18.02 -63.07,45.05 -84.7,79.29 -34.24,43.25 -54.06,90.1 -57.66,142.36 -3.61,54.06 9.01,100.91 37.84,144.16l728.01 1129.85 -349.59 432.48c-41.45,55.87 -64.87,122.54 -68.48,200.03 -3.6,77.48 16.22,147.76 59.47,210.83l3209.36 5586.2c14.42,27.03 32.44,48.65 57.67,63.07 25.22,14.42 54.06,21.62 90.1,21.62 0,0 0,0 0,0 0,0 0,0 0,0 34.23,0 64.87,-7.2 90.1,-21.62 23.42,-14.42 43.24,-36.04 57.66,-63.07 162.18,-239.67 354.99,-464.92 580.24,-675.75 225.25,-210.83 472.13,-409.05 738.82,-591.06 268.5,-183.8 553.22,-349.58 855.95,-497.35 302.74,-154.97 616.29,-291.92 938.85,-410.85 176.59,-43.25 351.39,-90.1 522.58,-142.36 172.99,-54.06 347.78,-118.93 522.58,-196.42 367.6,-97.31 733.41,-174.79 1099.22,-232.46 365.8,-55.86 713.59,-93.7 1045.16,-115.33 41.44,0 79.28,-10.81 109.92,-32.43 32.43,-19.82 55.86,-48.66 70.28,-82.89 19.82,-28.84 28.83,-63.07 25.22,-100.92 -3.6,-39.64 -16.21,-75.68 -36.04,-111.72l-369.41 -601.87c90.1,-82.89 178.4,-169.39 263.1,-257.68 84.69,-88.3 169.38,-178.4 254.08,-270.3zm-401.85 43.24c0,-14.41 -3.6,-27.03 -10.81,-37.84 -7.21,-10.81 -23.43,-21.62 -52.26,-36.04 -43.25,-36.04 -63.07,-75.68 -63.07,-122.53 0,-45.05 14.42,-88.3 41.45,-131.55 43.25,-41.45 86.49,-63.07 131.54,-63.07 46.86,0 93.71,21.62 144.16,63.07 5.41,7.21 12.62,18.02 19.83,32.44 7.2,14.41 14.41,23.42 21.62,30.63 0,7.21 -3.6,16.22 -10.81,27.03 -7.21,10.81 -14.42,19.82 -21.63,27.03 -19.82,34.24 -48.65,70.28 -82.89,104.52 -36.04,36.04 -73.88,70.27 -117.13,106.31zm-8880.25 -3135.48c0,-7.2 3.6,-16.21 10.81,-27.03 7.21,-10.81 10.81,-19.82 10.81,-27.03 48.65,7.21 100.91,14.42 153.17,21.63 52.26,7.21 108.12,10.81 163.98,10.81 14.42,41.45 16.22,82.89 5.41,120.73 -10.81,39.65 -41.45,75.69 -90.1,111.73 -36.04,27.03 -70.28,41.44 -106.32,41.44 -34.24,0 -66.67,-14.41 -93.7,-41.44 -36.04,-36.04 -57.67,-68.48 -64.88,-100.91 -5.4,-30.64 -3.6,-68.48 10.82,-109.93zm2313.76 4454.55c0,-48.66 14.42,-90.1 46.86,-120.74 30.63,-32.43 75.68,-48.65 131.54,-48.65 63.07,0 108.12,16.22 131.55,48.65 25.23,30.64 45.05,72.08 59.46,120.74 -14.41,55.86 -37.84,100.91 -68.47,133.35 -32.44,30.63 -73.88,46.85 -122.54,46.85 -55.86,0 -100.91,-16.22 -131.54,-46.85 -32.44,-32.44 -46.86,-77.49 -46.86,-133.35zm-1120.84 -3874.3c64.87,0 108.12,18.02 133.35,52.26 23.42,36.04 36.04,77.48 36.04,126.14 -7.21,57.66 -25.23,102.71 -57.67,138.75 -32.43,34.24 -72.08,52.26 -120.73,52.26 -50.46,0 -91.9,-18.02 -127.94,-52.26 -34.24,-36.04 -52.26,-81.09 -52.26,-138.75 7.21,-55.87 27.03,-99.11 57.66,-131.55 32.44,-30.63 75.69,-46.85 131.55,-46.85zm-263.09 -117.13c-55.86,0 -100.91,-18.02 -131.55,-57.67 -32.43,-37.84 -45.05,-86.49 -37.84,-142.35 14.42,-55.87 37.84,-99.11 68.48,-126.14 32.43,-28.84 72.08,-43.25 122.53,-43.25 55.86,0 95.51,18.02 120.74,54.06 25.22,34.24 43.24,81.09 57.66,136.95 -14.42,48.65 -34.24,91.9 -63.07,126.14 -27.03,36.04 -73.88,52.26 -136.95,52.26zm517.17 601.87c55.86,0 99.11,18.02 126.14,54.06 28.83,34.23 43.25,77.48 43.25,126.14 -7.21,55.86 -25.23,100.91 -54.06,131.54 -27.03,32.44 -70.28,48.66 -126.14,48.66 -55.86,0 -100.91,-18.02 -136.95,-54.06 -36.04,-34.24 -52.26,-77.49 -52.26,-126.14 7.21,-48.66 27.03,-91.91 63.07,-126.14 34.24,-36.04 81.09,-54.06 136.95,-54.06zm6218.7 845.13c-55.86,0 -99.11,-19.82 -131.54,-57.66 -32.44,-39.64 -46.85,-86.5 -46.85,-142.36 0,-55.86 14.41,-99.11 46.85,-127.94 32.43,-27.03 75.68,-41.45 131.54,-41.45 63.07,0 108.12,18.02 131.55,52.26 25.23,36.04 45.05,73.88 59.47,117.13 -21.63,63.07 -46.86,111.73 -73.89,147.77 -28.83,34.23 -66.67,52.25 -117.13,52.25zm254.09 126.14c55.86,14.42 99.11,37.85 126.14,70.28 28.83,30.64 43.24,75.69 43.24,131.55 0,63.07 -16.21,108.12 -48.65,136.95 -30.63,28.83 -79.29,37.84 -142.36,32.44 -48.65,-7.21 -91.9,-27.03 -126.14,-59.47 -36.04,-30.63 -46.85,-72.08 -32.43,-120.73 0,-55.87 18.02,-102.72 54.06,-136.96 34.23,-36.04 77.48,-54.06 126.14,-54.06zm-5458.26 -273.9c55.86,0 99.11,18.02 131.54,52.26 30.64,36.04 54.06,70.28 68.48,106.32 -7.21,63.07 -25.23,111.72 -52.26,142.35 -28.83,32.44 -68.47,50.46 -117.13,57.67 -55.86,0 -100.91,-10.81 -131.54,-36.04 -32.44,-25.23 -46.86,-64.87 -46.86,-122.54 -7.2,-63.07 0,-111.72 25.23,-147.76 25.23,-34.24 64.87,-52.26 122.54,-52.26zm-243.27 -115.33c-63.07,0 -111.73,-19.82 -142.36,-59.46 -32.44,-37.85 -48.65,-81.09 -48.65,-131.55 0,-48.65 18.02,-88.3 54.06,-115.33 34.23,-28.83 81.09,-43.25 136.95,-43.25 55.86,0 97.31,16.22 126.14,48.66 28.83,30.63 45.05,75.68 52.26,131.54 -7.21,41.45 -23.43,79.29 -52.26,109.93 -28.83,32.43 -70.28,52.25 -126.14,59.46zm506.36 591.06c48.65,14.41 91.9,32.43 126.14,57.66 36.04,25.23 50.46,68.48 43.25,131.55 0,55.86 -16.22,100.91 -48.66,133.35 -30.63,30.63 -81.09,46.85 -153.17,46.85 -55.86,0 -97.3,-18.02 -126.14,-52.26 -27.03,-36.04 -41.44,-77.49 -41.44,-127.94 19.82,-63.07 46.85,-106.32 79.29,-131.55 30.63,-25.23 72.08,-43.25 120.73,-57.66zm1562.33 484.74c63.07,0 111.73,16.21 142.36,48.65 32.44,30.63 48.66,72.08 48.66,120.73 0,48.66 -16.22,91.91 -48.66,126.14 -30.63,36.04 -72.08,54.06 -120.73,54.06 -55.86,0 -102.72,-16.21 -136.95,-48.65 -36.04,-30.63 -50.46,-75.68 -43.25,-131.55 -7.21,-55.86 3.6,-100.91 32.43,-131.54 28.84,-32.44 70.28,-45.05 126.14,-37.84zm-243.27 -136.96c-55.86,0 -99.11,-16.21 -131.54,-46.85 -30.64,-32.43 -46.85,-75.68 -46.85,-131.54 0,-57.67 16.21,-99.11 46.85,-127.95 32.43,-27.03 75.68,-41.44 131.54,-41.44 50.46,0 90.1,16.22 122.54,46.85 30.63,32.44 50.46,72.08 57.66,122.54 -7.2,55.86 -28.83,99.11 -63.07,131.54 -36.04,30.64 -73.88,46.85 -117.13,46.85zm317.16 -464.91c0,-55.86 18.02,-97.31 54.06,-126.14 34.23,-28.83 73.88,-45.05 115.32,-52.26 55.87,7.21 100.92,23.43 131.55,52.26 32.44,28.83 48.65,70.28 48.65,126.14 0,63.07 -16.21,111.72 -48.65,142.36 -30.63,32.43 -72.08,48.65 -120.73,48.65 -55.87,7.21 -100.92,-7.21 -131.55,-43.25 -32.44,-34.24 -48.65,-84.69 -48.65,-147.76zm-104.52 -326.16c-50.46,0 -91.9,-16.22 -127.94,-48.66 -34.24,-30.63 -45.05,-72.08 -30.64,-120.73 0,-55.86 16.22,-100.91 52.26,-131.55 36.04,-32.43 81.09,-48.65 136.95,-48.65 55.87,0 99.11,18.02 127.95,54.06 27.03,34.24 41.44,77.48 41.44,126.14 -7.21,55.86 -27.03,99.11 -57.66,126.14 -32.44,28.83 -79.29,43.25 -142.36,43.25zm-232.46 -486.54c-50.45,0 -91.9,-14.42 -127.94,-41.45 -34.24,-28.83 -52.26,-70.28 -52.26,-127.94 0,-55.86 12.62,-99.11 37.84,-131.55 23.43,-30.63 68.48,-46.85 131.55,-46.85 55.86,-7.21 102.71,7.21 142.36,41.45 37.84,36.04 57.66,81.09 57.66,136.95 -14.41,43.25 -36.04,81.09 -68.47,117.13 -30.64,34.24 -72.08,52.26 -120.74,52.26zm-84.69 580.24c-7.21,50.46 -25.23,93.7 -52.26,133.35 -28.83,37.84 -72.08,57.66 -127.94,57.66 -55.86,0 -100.91,-16.22 -136.95,-46.85 -34.24,-32.44 -55.87,-73.88 -63.07,-122.54 -7.21,-55.86 5.4,-102.71 36.04,-142.35 32.43,-37.85 79.28,-57.67 144.16,-57.67 70.27,0 118.93,16.22 147.76,46.85 27.03,32.44 45.05,75.69 52.26,131.55zm-432.48 -295.53c-50.46,-7.21 -91.9,-23.42 -127.94,-52.26 -34.24,-28.83 -52.26,-66.67 -52.26,-115.32 0,-50.46 14.41,-91.91 41.44,-127.95 28.84,-34.23 72.08,-52.25 127.95,-52.25 55.86,0 100.91,16.21 136.95,46.85 34.24,32.43 55.86,75.68 63.07,133.35 -7.21,41.44 -27.03,77.48 -57.67,104.51 -32.43,28.83 -75.68,50.46 -131.54,63.07zm-73.88 582.05c0,48.65 -19.83,88.3 -59.47,120.73 -37.84,32.44 -82.89,50.46 -131.55,57.67 -48.65,-7.21 -91.9,-23.43 -126.14,-52.26 -36.04,-28.83 -50.45,-70.28 -43.24,-126.14 0,-64.87 19.82,-109.92 59.46,-138.76 37.84,-27.03 84.7,-41.44 142.36,-41.44 41.45,-7.21 79.29,7.21 109.92,41.44 32.44,36.04 48.66,81.09 48.66,138.76zm-454.11 -317.15c-50.45,0 -91.9,-16.22 -127.94,-48.66 -34.24,-30.63 -52.26,-73.88 -52.26,-131.54 0,-55.87 18.02,-97.31 52.26,-126.14 36.04,-28.84 77.49,-45.05 127.94,-52.26 55.86,7.21 99.11,25.23 131.55,57.66 30.63,30.64 46.85,72.08 46.85,120.74 14.42,57.66 1.8,100.91 -36.04,131.54 -39.64,32.44 -86.5,48.66 -142.36,48.66zm30.64 897.39c50.45,7.21 93.7,27.03 131.54,57.67 39.65,32.43 59.47,75.68 59.47,131.54 0,57.67 -18.02,100.91 -54.06,133.35 -34.24,30.63 -82.89,46.85 -147.77,46.85 -63.07,-7.21 -106.31,-27.03 -131.54,-57.66 -25.23,-32.44 -36.04,-72.08 -36.04,-122.54 0,-63.07 14.41,-108.12 46.85,-136.95 32.44,-27.03 75.68,-45.05 131.55,-52.26zm254.08 495.55c55.86,0 99.11,19.82 126.14,59.47 28.83,37.84 43.25,81.09 43.25,131.54 0,55.87 -16.22,97.31 -48.66,126.14 -30.63,28.84 -72.08,45.05 -120.73,52.26 -55.86,0 -102.72,-16.22 -136.95,-52.26 -36.04,-34.23 -54.06,-77.48 -54.06,-126.14 0,-57.66 19.82,-102.71 59.46,-136.95 37.84,-36.04 82.89,-54.06 131.55,-54.06zm63.07 -558.62c0,-55.86 16.22,-102.71 46.85,-136.95 32.44,-36.04 75.68,-57.66 133.35,-64.87 55.86,7.21 100.91,25.23 136.95,54.06 34.24,27.03 52.26,70.28 52.26,126.14 0,63.07 -16.22,113.52 -46.85,147.76 -32.44,36.04 -79.29,52.26 -142.36,52.26 -50.46,-7.21 -90.1,-25.23 -122.54,-57.66 -30.63,-30.64 -50.45,-72.08 -57.66,-120.74zm454.1 284.72c48.66,0 90.1,18.02 120.74,52.26 32.43,36.04 52.25,77.48 59.46,127.94 -7.21,48.65 -25.23,90.1 -54.06,126.14 -27.03,34.24 -70.28,52.26 -126.14,52.26 -48.65,0 -93.7,-12.62 -131.54,-36.04 -39.65,-25.23 -59.47,-64.88 -59.47,-122.54 0,-70.28 16.22,-120.73 48.65,-153.17 30.64,-30.63 79.29,-46.85 142.36,-46.85zm243.27 475.73c48.66,0 91.9,12.61 131.55,41.44 37.84,28.83 57.66,77.49 57.66,147.77 0,48.65 -16.22,90.1 -46.85,120.73 -32.44,32.44 -72.08,52.26 -122.54,59.47 -55.86,7.2 -100.91,-3.61 -136.95,-32.44 -34.24,-27.03 -55.86,-66.67 -63.07,-115.33 0,-70.28 16.22,-122.53 46.85,-153.17 32.44,-32.43 77.49,-55.86 133.35,-68.47zm189.21 1436.19c0,55.86 -14.41,99.11 -41.44,131.55 -28.84,30.63 -70.28,46.85 -127.95,46.85 -55.86,7.21 -100.91,-3.61 -136.95,-30.64 -34.24,-28.83 -55.86,-68.47 -63.07,-117.13 -7.21,-55.86 7.21,-102.71 43.25,-136.95 34.24,-36.04 81.09,-55.86 136.95,-63.07 48.66,0 90.1,14.42 120.74,41.45 32.43,28.83 54.06,70.28 68.47,127.94zm-104.51 -771.26c0,-57.66 18.02,-102.71 57.66,-136.95 37.84,-36.04 86.5,-50.45 142.36,-43.25 48.65,7.21 90.1,27.03 120.73,57.67 32.44,32.43 48.66,72.08 48.66,122.53 -7.21,63.07 -28.84,111.73 -63.07,147.77 -36.04,34.24 -81.09,48.65 -138.76,41.44 -48.65,0 -90.1,-16.21 -126.14,-46.85 -36.04,-32.43 -48.65,-79.29 -41.44,-142.36zm252.28 -738.82c0,-64.87 16.21,-111.72 48.65,-142.35 30.63,-32.44 81.09,-48.66 153.17,-48.66 55.86,0 99.11,16.22 131.55,48.66 30.63,30.63 39.64,77.48 25.22,142.35 -5.4,48.66 -25.22,88.3 -57.66,120.74 -30.63,32.43 -72.08,50.45 -120.73,57.66 -48.66,-7.21 -91.91,-23.42 -126.14,-52.26 -36.04,-28.83 -54.06,-70.27 -54.06,-126.14zm264.89 -749.63c0,-64.87 14.42,-111.72 46.85,-144.16 32.44,-30.63 82.89,-46.85 153.17,-46.85 55.86,7.21 99.11,28.83 126.14,63.07 28.83,36.04 43.25,81.09 43.25,136.95 -14.42,50.46 -34.24,90.1 -57.66,122.54 -25.23,30.63 -70.28,46.85 -133.35,46.85 -55.86,-7.21 -100.91,-25.23 -136.95,-57.66 -34.24,-32.44 -48.66,-72.08 -41.45,-120.74zm2259.71 -919.02c-50.46,-14.41 -91.9,-34.24 -127.94,-57.66 -34.24,-25.23 -52.26,-66.68 -52.26,-122.54 0,-63.07 16.22,-109.92 46.85,-142.36 32.44,-30.63 75.68,-46.85 133.35,-46.85 63.07,0 106.32,16.22 131.54,46.85 25.23,32.44 36.04,79.29 36.04,142.36 7.21,55.86 -7.2,97.31 -41.44,122.54 -36.04,23.42 -77.49,43.25 -126.14,57.66zm263.09 115.33c63.07,0 109.92,18.02 136.95,54.06 28.83,34.24 46.85,73.88 54.06,115.33 -21.62,55.86 -48.65,102.71 -79.29,136.95 -32.43,36.04 -79.28,50.46 -142.35,43.25 -50.46,-7.21 -88.3,-28.83 -117.13,-63.07 -28.84,-36.04 -41.45,-81.09 -41.45,-138.76 7.21,-41.44 25.23,-77.48 57.66,-104.51 30.64,-28.83 75.69,-43.25 131.55,-43.25zm-506.36 -612.68c-63.07,0 -111.73,-14.42 -142.36,-46.85 -32.44,-32.44 -48.65,-79.29 -48.65,-142.36 0,-55.86 16.21,-97.31 48.65,-120.73 30.63,-25.23 79.29,-37.85 142.36,-37.85 55.86,0 99.11,14.42 126.14,41.45 28.83,28.83 46.85,68.48 52.26,117.13 -5.41,48.65 -25.23,93.7 -57.67,131.55 -30.63,39.64 -72.08,57.66 -120.73,57.66zm-771.26 1911.92c55.86,0 97.31,18.02 122.54,52.26 23.42,36.04 43.25,77.49 57.66,127.94 -7.21,48.66 -27.03,91.9 -57.66,131.55 -32.44,37.84 -73.88,57.66 -122.54,57.66 -55.86,0 -100.91,-18.02 -131.54,-52.26 -32.44,-36.04 -46.86,-81.09 -46.86,-136.95 0,-57.66 14.42,-100.91 46.86,-133.35 30.63,-30.63 75.68,-46.85 131.54,-46.85zm-263.09 -136.95c-57.66,0 -100.91,-16.22 -133.35,-48.65 -30.63,-30.64 -46.85,-75.69 -46.85,-131.55 0,-48.65 16.22,-91.9 46.85,-126.14 32.44,-36.04 75.69,-52.26 133.35,-52.26 48.65,5.41 88.3,21.63 120.73,46.85 32.44,25.23 46.86,61.27 46.86,109.93 7.2,72.08 -7.21,122.53 -41.45,153.17 -36.04,32.43 -77.49,48.65 -126.14,48.65zm326.16 -432.48c-7.21,-57.66 9.01,-104.52 48.66,-144.16 37.84,-37.84 84.69,-57.66 142.35,-57.66 55.87,0 97.31,16.21 126.14,48.65 28.84,30.63 45.05,79.29 52.26,142.36 0,55.86 -14.41,99.11 -46.85,131.54 -32.44,32.44 -72.08,46.86 -120.73,46.86 -57.67,0 -100.92,-12.62 -133.35,-36.04 -30.64,-25.23 -54.06,-68.48 -68.48,-131.55zm254.08 -760.44c0,-57.67 19.83,-100.92 57.67,-133.35 39.64,-30.64 86.49,-46.85 142.36,-46.85 50.45,0 90.1,16.21 122.53,46.85 30.64,32.43 46.85,75.68 46.85,133.35 0,55.86 -16.21,97.3 -46.85,126.14 -32.43,28.83 -79.29,41.44 -142.36,41.44 -57.66,0 -100.91,-14.41 -133.34,-46.85 -30.64,-30.63 -46.86,-72.08 -46.86,-120.73zm180.2 -1099.22c-57.66,0 -100.91,-14.42 -133.34,-46.86 -30.64,-32.43 -46.86,-75.68 -46.86,-131.54 0,-63.07 16.22,-108.12 46.86,-133.35 32.43,-23.43 75.68,-36.04 133.34,-36.04 63.07,0 108.12,14.42 136.96,41.45 27.03,28.83 45.05,70.27 52.25,127.94 -7.2,48.65 -28.83,90.1 -63.07,126.14 -36.04,36.04 -77.48,52.26 -126.14,52.26zm-64.87 612.68c0,55.86 -14.41,99.11 -46.85,126.14 -32.44,28.83 -75.68,43.24 -131.55,43.24 -50.45,-7.2 -93.7,-25.22 -131.54,-52.25 -39.65,-28.84 -59.47,-70.28 -59.47,-127.95 0,-48.65 16.22,-91.9 48.66,-131.54 30.63,-37.84 72.08,-57.67 120.73,-57.67 55.86,0 104.52,19.83 142.36,57.67 39.64,39.64 57.66,86.49 57.66,142.36zm-252.28 749.63c-14.41,50.45 -36.04,91.9 -63.07,126.14 -28.83,36.04 -70.28,50.45 -127.94,43.25 -63.07,0 -106.32,-18.02 -131.55,-52.26 -25.22,-36.04 -36.04,-81.09 -36.04,-138.76 0,-55.86 16.22,-97.3 52.26,-126.14 34.24,-27.03 77.49,-37.84 126.14,-30.63 55.86,5.41 99.11,25.23 126.14,57.66 28.83,30.64 46.85,72.08 54.06,120.74zm-443.29 -317.15c-57.66,0 -100.91,-16.22 -133.35,-52.26 -30.63,-34.24 -46.85,-84.7 -46.85,-147.77 0,-48.65 18.02,-90.1 52.26,-120.73 36.04,-32.44 84.69,-48.65 147.76,-48.65 50.46,14.41 88.3,37.84 117.13,68.47 27.03,32.44 41.45,72.08 41.45,122.54 -7.21,63.07 -25.23,109.92 -57.67,142.36 -32.43,30.63 -72.08,43.24 -120.73,36.04zm-84.69 582.04c0,63.07 -16.22,109.92 -48.66,142.36 -30.63,30.63 -75.68,46.85 -131.54,46.85 -48.66,0 -90.1,-16.22 -120.74,-46.85 -32.43,-32.44 -48.65,-79.29 -48.65,-142.36 0,-57.66 16.22,-99.11 48.65,-127.94 30.64,-27.03 75.69,-45.05 131.55,-52.26 48.65,7.21 90.1,25.23 120.73,52.26 32.44,28.83 48.66,70.28 48.66,127.94zm-432.48 -295.53c-50.46,0 -90.1,-16.21 -122.54,-48.65 -30.63,-30.63 -46.85,-75.68 -46.85,-131.55 0,-63.07 14.41,-109.92 41.44,-136.95 28.84,-28.83 70.28,-46.85 127.95,-52.26 55.86,0 99.11,14.42 131.54,46.86 30.64,30.63 46.85,72.08 46.85,120.73 14.42,57.66 1.81,104.52 -36.04,142.36 -39.64,39.64 -86.49,59.46 -142.35,59.46zm-32.44 897.4c55.86,0 99.11,14.42 126.14,46.85 28.83,32.44 54.06,75.69 73.88,131.55 -19.82,50.45 -41.44,93.7 -63.07,133.35 -21.62,37.84 -59.46,57.66 -115.33,57.66 -63.07,0 -111.72,-16.22 -142.35,-48.65 -32.44,-30.64 -48.66,-79.29 -48.66,-142.36 -7.21,-48.66 5.41,-90.1 37.84,-126.14 30.64,-36.04 75.69,-52.26 131.55,-52.26zm254.08 484.74c55.86,7.21 99.11,25.23 131.55,52.26 30.63,28.83 46.85,72.08 46.85,127.94 0,55.86 -16.22,99.11 -46.85,131.54 -32.44,32.44 -75.69,46.86 -131.55,46.86 -64.87,0 -108.12,-14.42 -133.35,-46.86 -23.42,-32.43 -36.04,-75.68 -36.04,-131.54 0,-55.86 14.42,-99.11 41.45,-127.94 28.83,-27.03 70.28,-45.05 127.94,-52.26zm0 1246.98c55.86,0 99.11,12.62 131.55,41.45 30.63,28.83 46.85,70.28 46.85,126.14 0,57.66 -16.22,102.71 -46.85,138.75 -32.44,34.24 -75.69,48.66 -131.55,41.45 -57.66,0 -100.91,-16.22 -133.35,-46.85 -30.63,-32.44 -43.24,-75.69 -36.04,-133.35 0,-55.86 14.42,-95.51 41.45,-120.74 28.83,-25.22 70.28,-41.44 127.94,-46.85zm73.88 -582.04c0,-48.66 16.22,-88.3 52.26,-120.74 34.24,-32.43 81.09,-46.85 136.95,-46.85 55.87,0 99.11,14.42 126.14,46.85 28.84,32.44 46.86,72.08 54.06,120.74 0,63.07 -16.21,113.52 -48.65,147.76 -30.63,36.04 -72.08,54.06 -120.73,54.06 -63.07,-14.42 -113.53,-37.84 -147.77,-68.48 -36.04,-32.43 -52.26,-75.68 -52.26,-133.34zm473.93 317.15c50.46,7.21 86.5,28.83 111.72,63.07 23.43,36.04 39.65,73.88 46.86,117.13 -14.42,48.65 -34.24,90.1 -63.07,126.14 -28.84,36.04 -73.89,48.65 -136.96,41.44 -55.86,-5.4 -100.91,-27.03 -131.54,-63.07 -32.44,-34.23 -41.45,-81.09 -27.03,-136.95 7.21,-55.86 27.03,-99.11 57.66,-126.14 32.44,-28.83 79.29,-36.04 142.36,-21.62zm73.88 -601.87c0,-55.86 18.02,-100.91 54.06,-131.55 34.24,-32.43 79.29,-48.65 136.95,-48.65 55.87,0 97.31,16.22 126.14,48.65 28.84,30.64 41.45,75.69 41.45,131.55 0,48.65 -18.02,90.1 -57.66,122.54 -37.85,30.63 -82.9,50.45 -131.55,57.66 -41.45,-7.21 -81.09,-25.23 -115.33,-54.06 -36.04,-27.03 -54.06,-70.28 -54.06,-126.14zm254.08 -771.26c0,-48.65 18.02,-88.29 52.26,-120.73 36.04,-32.44 77.49,-50.46 127.94,-57.66 48.66,7.2 90.1,23.42 126.14,52.25 34.24,28.84 55.87,70.28 63.07,126.14 0,64.88 -14.41,111.73 -41.44,142.36 -28.83,32.44 -70.28,48.66 -127.94,48.66 -63.07,7.2 -111.73,-7.21 -147.77,-43.25 -34.24,-34.24 -52.26,-82.89 -52.26,-147.77zm263.1 -738.82c0,-63.07 16.21,-108.12 48.65,-136.95 30.63,-28.83 79.29,-45.05 142.36,-52.26 48.65,7.21 91.9,23.43 126.14,52.26 36.04,28.83 52.26,73.88 52.26,136.95 0,55.87 -14.42,100.92 -46.86,131.55 -30.63,32.44 -75.68,48.65 -131.54,48.65 -63.07,-7.2 -111.73,-25.22 -142.36,-52.25 -32.44,-28.84 -48.65,-72.08 -48.65,-127.95zm454.1 295.53c50.46,0 90.1,18.02 122.54,54.06 30.63,34.24 46.85,77.49 46.85,126.14 -14.42,63.07 -36.04,106.32 -68.48,131.55 -32.43,25.23 -72.08,37.84 -120.73,37.84 -50.46,0 -91.9,-16.22 -127.94,-48.65 -34.24,-30.64 -48.66,-75.69 -41.45,-131.55 0,-48.65 18.02,-90.1 52.26,-120.73 36.04,-32.44 81.09,-48.66 136.95,-48.66zm243.27 486.54c55.86,0 99.11,16.22 126.14,46.85 28.83,32.44 43.25,75.69 43.25,131.55 0,57.66 -14.42,99.11 -43.25,127.94 -27.03,27.03 -70.28,45.05 -126.14,52.26 -55.86,-7.21 -102.71,-27.03 -136.95,-57.66 -36.04,-32.44 -48.66,-79.29 -43.25,-142.36 0,-50.46 18.02,-88.3 54.06,-117.13 34.24,-27.03 77.49,-41.45 126.14,-41.45zm73.88 -571.23c0,-55.86 16.22,-97.31 46.85,-126.14 32.44,-28.83 77.49,-41.45 133.35,-41.45 55.86,0 97.31,14.42 126.14,46.85 28.83,32.44 45.05,72.08 52.26,120.74 -7.21,57.66 -25.23,104.51 -57.66,144.16 -30.64,37.84 -75.69,50.45 -131.55,36.04 -55.86,-7.21 -99.11,-25.23 -126.14,-52.26 -28.83,-28.83 -43.25,-70.28 -43.25,-127.94zm200.02 -1064.98c-63.07,7.2 -109.92,-3.61 -142.35,-32.44 -30.64,-28.83 -46.86,-73.88 -46.86,-136.95 -7.2,-55.86 5.41,-100.91 36.04,-131.55 32.44,-32.43 77.49,-52.26 133.35,-59.46 55.86,0 97.31,14.41 126.14,43.24 28.83,27.03 45.05,66.68 52.26,115.33 0,63.07 -12.61,111.73 -41.45,142.36 -28.83,32.44 -66.67,52.26 -117.13,59.47zm-273.9 -475.73c-55.86,0 -100.91,-19.82 -131.55,-57.67 -32.43,-39.64 -48.65,-82.89 -48.65,-133.34 0,-48.66 16.22,-88.3 48.65,-120.74 30.64,-30.63 75.69,-50.45 131.55,-57.66 63.07,7.21 109.92,25.23 136.95,52.26 28.83,28.83 39.65,70.27 32.44,126.14 0,57.66 -14.42,102.71 -43.25,138.75 -27.03,34.24 -70.28,52.26 -126.14,52.26zm-263.09 -517.18c-57.67,0 -100.91,-14.41 -133.35,-43.24 -30.63,-27.03 -46.85,-70.28 -46.85,-126.14 0,-55.87 12.61,-102.72 37.84,-136.96 23.43,-36.04 61.27,-55.86 109.92,-63.07 55.86,-7.2 102.72,7.21 136.95,41.45 36.04,36.04 55.87,81.09 63.07,136.95 -7.2,50.46 -19.82,90.1 -41.44,122.54 -21.63,30.63 -63.07,54.06 -126.14,68.47zm-264.9 -506.36c-63.07,12.62 -108.12,1.8 -136.95,-37.84 -28.83,-37.84 -41.44,-86.5 -41.44,-142.36 0,-48.65 16.21,-90.1 52.25,-120.73 34.24,-32.44 77.49,-52.26 126.14,-59.47 55.87,0 99.11,14.42 126.14,43.25 28.84,27.03 46.86,70.28 54.06,126.14 -7.2,63.07 -25.22,111.72 -54.06,142.36 -27.03,32.43 -70.27,48.65 -126.14,48.65zm-252.28 -475.73c-57.66,0 -100.91,-14.41 -133.34,-43.24 -30.64,-27.03 -46.86,-70.28 -46.86,-126.14 -7.2,-55.87 5.41,-102.72 36.04,-142.36 32.44,-37.84 79.29,-57.67 144.16,-57.67 63.07,0 108.12,16.22 136.96,46.86 27.03,32.43 45.05,72.08 52.25,122.53 -7.2,55.86 -25.22,102.72 -52.25,142.36 -28.84,37.84 -73.89,57.66 -136.96,57.66zm-75.68 580.25c0,50.45 -18.02,90.1 -57.66,122.53 -37.85,30.64 -82.9,50.46 -131.55,57.67 -48.65,-7.21 -90.1,-25.23 -120.73,-52.26 -32.44,-28.83 -48.66,-72.08 -48.66,-127.94 0,-48.66 14.42,-91.9 43.25,-126.14 27.03,-36.04 70.28,-52.26 126.14,-52.26 55.86,0 102.71,16.22 136.95,52.26 36.04,34.24 52.26,77.48 52.26,126.14zm-273.9 749.63c0,55.86 -14.42,100.91 -41.45,131.55 -28.83,32.43 -66.67,55.86 -117.13,70.27 -63.07,0 -111.72,-16.21 -147.76,-48.65 -34.24,-30.63 -52.26,-79.29 -52.26,-142.36 0,-48.65 16.22,-91.9 46.85,-126.14 32.44,-36.04 75.68,-54.06 133.35,-54.06 48.65,-5.4 90.1,3.61 126.14,32.44 34.24,28.83 52.26,73.88 52.26,136.95zm-432.48 -306.34c-55.87,0 -100.92,-14.42 -131.55,-41.45 -32.44,-28.83 -48.65,-66.67 -48.65,-117.13 0,-63.07 18.02,-106.31 54.06,-131.54 34.23,-25.23 77.48,-36.04 126.14,-36.04 63.07,7.21 109.92,23.42 142.35,52.26 32.44,28.83 46.86,70.27 46.86,126.14 0,43.24 -14.42,77.48 -46.86,106.31 -32.43,27.03 -79.28,41.45 -142.35,41.45zm-63.07 591.06c-7.21,50.45 -28.84,90.1 -63.07,122.53 -36.04,30.64 -81.09,43.25 -138.76,36.04 -55.86,0 -99.11,-16.22 -131.54,-46.85 -30.64,-32.44 -46.86,-75.68 -46.86,-131.55 0,-57.66 16.22,-104.51 46.86,-142.35 32.43,-39.65 82.89,-52.26 153.17,-37.85 55.86,7.21 99.11,28.84 126.14,63.07 28.83,36.04 46.85,81.09 54.06,136.96zm-443.3 -315.35c-63.07,0 -111.72,-16.22 -142.35,-48.66 -32.44,-30.63 -48.66,-72.08 -48.66,-120.73 0,-55.86 16.22,-100.91 48.66,-131.55 30.63,-32.43 79.28,-48.65 142.35,-48.65 48.66,0 86.5,16.22 115.33,48.65 28.83,30.64 43.25,75.69 43.25,131.55 0,48.65 -12.61,90.1 -37.84,120.73 -25.23,32.44 -64.87,48.66 -120.74,48.66zm-73.88 580.24c-7.21,48.65 -25.23,91.9 -54.06,126.14 -27.03,36.04 -70.28,54.06 -126.14,54.06 -55.86,0 -100.91,-16.22 -131.54,-48.65 -32.44,-30.64 -48.66,-75.69 -48.66,-131.55 0,-63.07 16.22,-108.12 48.66,-131.55 30.63,-25.22 75.68,-37.84 131.54,-37.84 55.86,-7.21 99.11,7.21 126.14,43.25 28.83,34.24 46.85,77.49 54.06,126.14zm-434.28 -306.34c-55.86,0 -99.11,-18.02 -131.55,-52.26 -30.63,-36.04 -46.85,-77.48 -46.85,-127.94 0,-48.65 18.02,-88.3 52.26,-120.73 36.04,-32.44 77.49,-46.86 126.14,-46.86 64.87,0 108.12,14.42 133.35,46.86 23.42,32.43 43.25,72.08 57.66,120.73 -21.62,50.46 -46.85,91.9 -73.88,127.94 -28.83,34.24 -66.67,52.26 -117.13,52.26zm-241.47 -495.55c-63.07,0 -113.52,-16.22 -147.76,-48.65 -36.04,-30.64 -54.06,-75.69 -54.06,-131.55 0,-48.65 16.22,-90.1 48.65,-120.73 30.64,-32.44 75.69,-55.87 131.55,-68.48 48.65,0 91.9,14.42 126.14,46.85 36.04,30.64 54.06,72.08 54.06,120.74 0,70.27 -14.42,122.53 -43.25,153.17 -27.03,32.43 -66.67,48.65 -115.33,48.65zm-286.52 -486.54c-48.65,0 -88.29,-16.22 -120.73,-46.85 -30.63,-32.44 -46.85,-75.69 -46.85,-133.35 0,-55.86 16.22,-99.11 46.85,-131.55 32.44,-30.63 72.08,-46.85 120.73,-46.85 57.67,0 99.11,14.42 127.95,41.45 27.03,28.83 45.05,70.28 52.25,127.94 0,63.07 -16.21,109.92 -46.85,142.36 -32.43,30.63 -75.68,46.85 -133.35,46.85zm-115.32 623.49c-7.21,48.66 -25.23,88.3 -52.26,115.33 -28.83,28.83 -73.88,43.25 -136.95,43.25 -57.67,0 -97.31,-16.22 -122.54,-48.66 -25.23,-30.63 -36.04,-75.68 -36.04,-131.54 0,-55.86 12.61,-100.91 41.45,-131.55 28.83,-32.43 66.67,-45.05 117.13,-37.84 70.27,-7.21 118.93,7.21 147.76,43.25 27.03,34.24 41.45,84.69 41.45,147.76zm-432.48 -317.15c-55.87,0 -100.92,-16.22 -131.55,-46.85 -32.44,-32.44 -48.65,-79.29 -48.65,-142.36 0,-57.66 18.02,-100.91 52.25,-133.35 36.04,-30.63 81.09,-46.85 138.76,-46.85 63.07,0 106.32,18.02 131.54,52.26 25.23,36.04 36.04,77.48 36.04,127.94 -7.2,63.07 -23.42,109.92 -52.25,142.36 -28.84,30.63 -70.28,46.85 -126.14,46.85zm-63.07 558.62c-14.42,64.87 -37.85,111.72 -68.48,144.16 -32.44,30.63 -75.68,46.85 -133.35,46.85 -48.65,0 -90.1,-19.82 -120.73,-57.66 -32.44,-39.65 -46.85,-82.89 -46.85,-133.35 0,-55.86 14.41,-95.51 46.85,-120.73 30.63,-25.23 75.68,-36.04 131.54,-36.04 63.07,0 108.12,12.61 131.55,41.44 25.23,28.83 45.05,66.68 59.47,115.33zm-434.29 -295.53c-63.07,0 -111.72,-14.41 -147.76,-46.85 -34.24,-30.63 -48.65,-75.68 -41.45,-131.55 0,-50.45 16.22,-90.1 46.86,-122.53 32.43,-30.64 79.28,-46.85 142.35,-46.85 57.67,0 100.92,16.21 133.35,46.85 30.64,32.43 46.85,72.08 46.85,122.53 0,48.66 -16.21,91.91 -46.85,126.14 -32.43,36.04 -75.68,52.26 -133.35,52.26zm-84.69 582.05c0,55.86 -18.02,97.31 -57.66,126.14 -37.85,28.83 -82.9,41.44 -131.55,41.44 -55.86,0 -100.91,-14.41 -131.55,-46.85 -32.43,-30.63 -41.44,-75.68 -27.03,-131.54 0,-55.87 18.02,-99.11 52.26,-126.14 36.04,-28.84 77.49,-43.25 127.94,-43.25 48.66,7.21 90.1,25.23 120.74,52.26 32.43,28.83 46.85,70.27 46.85,127.94zm-432.48 -295.53c-48.65,-7.21 -90.1,-25.23 -120.73,-54.06 -32.44,-27.03 -46.86,-73.88 -46.86,-136.95 0,-55.86 14.42,-99.11 46.86,-131.55 30.63,-32.43 72.08,-46.85 120.73,-46.85 57.66,0 100.91,14.42 133.35,46.85 30.63,32.44 46.85,75.69 46.85,131.55 0,55.86 -18.02,100.91 -52.26,131.54 -36.04,32.44 -77.48,52.26 -127.94,59.47zm-252.28 -497.35c-57.66,0 -102.71,-18.02 -138.75,-52.26 -34.24,-36.04 -48.66,-81.09 -41.45,-136.95 0,-50.46 18.02,-90.1 52.26,-122.54 36.04,-30.63 77.48,-50.45 127.94,-57.66 55.86,7.21 102.71,28.83 142.36,63.07 37.84,36.04 50.45,81.09 36.04,136.95 -7.21,50.46 -25.23,90.1 -57.67,122.54 -32.43,30.63 -72.08,46.85 -120.73,46.85zm-84.69 560.42c-7.21,55.86 -23.43,100.91 -48.66,136.95 -23.42,36.04 -61.27,55.86 -109.92,63.07 -63.07,0 -111.72,-16.22 -142.36,-46.85 -32.43,-32.44 -48.65,-75.68 -48.65,-131.55 0,-64.87 18.02,-111.72 54.06,-144.16 34.24,-30.63 81.09,-46.85 136.95,-46.85 34.24,0 68.48,16.22 100.91,46.85 30.64,32.44 50.46,72.08 57.67,122.54zm-432.48 -295.53c-57.67,0 -100.92,-14.41 -133.35,-43.25 -30.64,-27.03 -46.85,-70.27 -46.85,-126.14 -7.21,-55.86 3.6,-102.71 30.63,-136.95 28.83,-36.04 68.48,-55.86 117.13,-63.07 55.86,-7.21 102.71,7.21 136.95,41.45 36.04,36.04 63.07,77.48 84.7,126.14 -14.42,57.66 -34.24,104.51 -57.67,144.16 -25.23,37.84 -68.47,57.66 -131.54,57.66zm0 875.77c63.07,0 104.51,18.02 126.14,52.26 21.62,36.04 41.44,81.09 63.07,138.76 -14.42,48.65 -37.85,90.1 -68.48,126.14 -32.44,34.23 -72.08,52.25 -120.73,52.25 -57.67,0 -100.92,-16.21 -133.35,-46.85 -30.64,-32.43 -46.85,-75.68 -46.85,-131.54 0,-64.88 16.21,-111.73 46.85,-144.16 32.43,-30.64 75.68,-46.86 133.35,-46.86zm252.28 495.55c55.86,0 99.11,16.22 126.14,48.66 28.83,30.63 46.85,72.08 54.06,120.73 0,63.07 -12.62,111.73 -37.85,142.36 -23.42,32.44 -64.87,52.26 -120.73,59.47 -63.07,0 -113.53,-16.22 -147.76,-48.66 -36.04,-30.63 -52.26,-75.68 -52.26,-131.54 0,-55.87 14.41,-102.72 46.85,-136.96 30.63,-36.04 75.68,-54.06 131.55,-54.06zm264.89 486.54c48.65,7.21 88.3,25.23 120.73,52.26 32.44,28.83 46.86,73.88 46.86,136.95 0,57.67 -14.42,100.92 -46.86,133.35 -32.43,30.64 -72.08,46.85 -120.73,46.85 -57.66,0 -102.71,-18.02 -138.75,-52.25 -34.24,-36.04 -48.66,-77.49 -41.45,-127.95 -7.21,-63.07 5.41,-109.92 37.84,-142.35 30.64,-30.64 77.49,-46.86 142.36,-46.86zm263.09 517.18c63.07,0 108.12,16.22 131.55,46.85 25.23,32.44 45.05,73.88 59.46,122.54 0,55.86 -16.21,100.91 -48.65,131.54 -30.63,32.44 -79.29,46.85 -142.36,46.85 -55.86,0 -100.91,-16.21 -131.54,-52.25 -32.44,-34.24 -46.86,-77.49 -46.86,-126.14 0,-48.66 14.42,-90.1 46.86,-122.54 30.63,-30.63 75.68,-46.85 131.54,-46.85zm73.88 664.94c0,-48.66 14.42,-90.1 43.25,-120.74 27.03,-32.43 63.07,-46.85 104.52,-46.85 70.28,0 124.34,14.42 158.57,46.85 36.04,30.64 52.26,72.08 52.26,120.74 0,50.45 -12.61,91.9 -41.44,127.94 -28.84,34.24 -66.68,52.26 -117.13,52.26 -63.07,0 -111.73,-16.22 -147.77,-48.66 -34.24,-30.63 -52.26,-73.88 -52.26,-131.54zm432.48 295.52c64.88,14.42 109.93,37.85 138.76,68.48 27.03,32.44 41.44,72.08 41.44,122.54 0,48.65 -18.02,91.9 -52.25,126.14 -36.04,36.04 -77.49,45.05 -127.95,32.43 -48.65,0 -88.29,-16.22 -120.73,-48.65 -32.44,-30.64 -46.85,-75.69 -46.85,-131.55 0,-48.65 16.22,-86.49 52.26,-109.92 34.23,-25.23 73.88,-45.05 115.32,-59.47zm264.9 855.95c-55.86,0 -102.72,-16.21 -136.95,-46.85 -36.04,-32.43 -54.06,-72.08 -54.06,-122.53 -7.21,-48.66 5.4,-91.91 37.84,-126.14 30.63,-36.04 75.68,-52.26 131.54,-52.26 63.07,-14.42 111.73,-5.41 142.36,25.23 32.44,32.43 52.26,75.68 57.67,131.54 0,64.87 -16.22,109.92 -52.26,138.76 -34.24,27.03 -77.49,45.05 -126.14,52.25zm84.69 -929.83c0,-63.07 14.42,-109.92 41.45,-142.36 28.83,-30.63 66.67,-46.85 117.13,-46.85 55.86,0 97.31,16.22 126.14,46.85 28.83,32.44 41.44,79.29 41.44,142.36 0,57.67 -12.61,99.11 -41.44,127.94 -28.83,27.03 -63.07,45.05 -106.32,52.26 -55.86,-7.21 -99.11,-27.03 -131.55,-57.66 -30.63,-32.44 -46.85,-72.08 -46.85,-122.54zm432.48 295.53c55.86,0 100.91,19.82 131.55,59.47 32.43,37.84 48.65,84.69 48.65,142.35 0,48.66 -19.82,88.3 -59.46,120.74 -37.85,32.43 -86.5,46.85 -142.36,46.85 -48.66,-12.61 -90.1,-36.04 -120.74,-68.48 -32.43,-30.63 -48.65,-72.08 -48.65,-120.73 0,-55.86 16.22,-100.91 48.65,-131.55 30.64,-32.43 79.29,-48.65 142.36,-48.65zm749.63 560.42c-63.07,0 -108.12,-16.22 -131.54,-46.85 -25.23,-32.44 -37.84,-75.68 -37.84,-133.35 0,-55.86 18.02,-95.5 54.06,-120.73 34.23,-25.23 77.48,-43.25 126.14,-57.67 48.65,7.21 91.9,25.23 126.14,57.67 36.04,32.43 52.25,72.08 52.25,120.73 0,70.28 -16.21,122.54 -52.25,153.17 -34.24,32.44 -81.09,41.45 -136.96,27.03zm95.51 -929.83c0,-48.65 14.42,-90.1 46.85,-120.73 32.44,-32.44 75.69,-46.86 131.55,-46.86 63.07,0 108.12,14.42 133.35,46.86 23.42,30.63 43.24,68.47 57.66,109.92 0,64.87 -16.22,113.52 -48.65,147.76 -30.64,36.04 -72.08,54.06 -120.74,54.06 -70.28,7.21 -122.53,-9.01 -158.57,-48.65 -34.24,-37.84 -48.66,-84.7 -41.45,-142.36zm410.86 317.15c70.27,0 122.53,16.22 153.17,46.85 32.43,32.44 48.65,75.69 48.65,133.35 0,55.86 -18.02,99.11 -54.06,131.55 -34.24,32.43 -77.49,50.45 -126.14,57.66 -55.86,-7.21 -100.91,-25.23 -131.55,-57.66 -32.43,-32.44 -48.65,-75.69 -48.65,-131.55 -12.61,-50.45 -5.41,-91.9 27.03,-127.94 32.44,-34.24 75.68,-52.26 131.55,-52.26zm1055.97 697.38c-21.63,7.2 -41.45,14.41 -63.07,19.82 -21.63,7.21 -37.84,10.81 -52.26,10.81 14.42,-12.61 28.83,-21.62 46.85,-25.23 18.02,-3.6 41.45,-5.4 68.48,-5.4zm95.5 -582.05c-7.2,-55.86 5.41,-102.71 36.04,-142.36 32.44,-37.84 79.29,-57.66 144.16,-57.66 63.07,0 108.12,16.22 136.96,48.65 27.03,30.64 45.05,72.08 52.25,120.74 0,55.86 -16.21,100.91 -46.85,131.54 -32.43,32.44 -66.67,54.06 -100.91,68.48 -70.28,0 -122.54,-16.22 -158.58,-46.85 -34.23,-32.44 -55.86,-72.08 -63.07,-122.54zm263.1 -791.08c7.2,-55.86 28.83,-99.11 64.87,-126.14 34.24,-28.83 79.29,-39.64 136.95,-32.43 48.65,14.41 88.3,37.84 115.33,68.47 28.83,32.44 46.85,72.08 52.26,122.54 -12.62,48.65 -36.04,90.1 -68.48,126.14 -30.63,36.04 -75.68,45.05 -131.55,32.43 -55.86,0 -100.91,-18.02 -131.54,-54.06 -32.44,-34.23 -45.05,-81.09 -37.84,-136.95zm434.28 327.97c48.65,0 88.3,14.41 120.73,46.85 32.44,32.43 54.06,72.08 68.48,120.73 0,50.46 -14.42,91.9 -41.45,127.94 -28.83,34.24 -70.28,52.26 -127.94,52.26 -55.86,0 -102.71,-14.41 -142.36,-41.44 -37.84,-28.84 -57.66,-73.89 -57.66,-138.76 0,-48.65 18.02,-88.3 52.26,-120.73 36.04,-32.44 77.48,-46.85 127.94,-46.85zm104.51 580.24c43.25,-55.86 90.1,-90.1 142.36,-100.91 54.06,-10.81 104.52,12.61 153.17,68.47 0,0 3.61,3.61 10.81,10.82 7.21,7.2 10.82,10.81 10.82,10.81 -48.66,28.83 -102.72,55.86 -158.58,84.69 -55.86,28.83 -108.12,52.26 -158.58,73.88 -19.82,-14.41 -32.43,-34.23 -36.04,-57.66 -3.6,-25.23 9.01,-55.86 36.04,-90.1zm232.46 -664.94c0,-63.07 16.22,-113.52 46.85,-147.76 32.44,-36.04 77.49,-52.26 133.35,-52.26 48.66,0 90.1,18.02 120.74,57.66 32.43,37.85 50.45,82.9 57.66,131.55 -7.21,55.86 -25.23,100.91 -57.66,131.55 -30.64,32.43 -72.08,48.65 -120.74,48.65 -50.45,5.41 -90.1,-5.41 -122.53,-37.84 -30.64,-32.44 -50.46,-75.69 -57.67,-131.55zm243.27 -760.44c0,-63.07 16.22,-108.12 46.85,-131.55 32.44,-25.23 79.29,-37.84 142.36,-37.84 57.67,0 99.11,16.22 127.94,48.65 27.03,30.64 45.05,72.08 52.26,120.74 0,55.86 -18.02,100.91 -52.26,131.54 -36.04,32.44 -77.48,48.66 -127.94,48.66 -48.65,0 -91.9,-16.22 -131.54,-48.66 -37.85,-30.63 -57.67,-75.68 -57.67,-131.54zm454.11 317.15c55.86,0 99.11,16.22 126.14,52.26 28.83,36.04 46.85,77.48 52.25,126.14 -5.4,50.45 -25.22,91.9 -57.66,127.94 -30.63,34.24 -72.08,52.26 -120.73,52.26 -55.87,0 -104.52,-18.02 -142.36,-52.26 -39.65,-36.04 -52.26,-84.69 -37.84,-147.76 0,-57.67 18.02,-100.92 54.06,-133.35 34.23,-30.64 77.48,-39.65 126.14,-25.23zm84.69 -582.05c0,-63.07 14.42,-109.92 46.85,-142.35 32.44,-30.64 75.69,-46.86 131.55,-46.86 57.66,0 99.11,18.02 127.94,52.26 27.03,36.04 41.45,81.09 41.45,136.95 0,50.46 -16.22,88.3 -46.86,117.13 -32.43,28.84 -75.68,41.45 -133.34,41.45 -55.87,0 -97.31,-12.61 -126.14,-41.45 -27.03,-28.83 -41.45,-66.67 -41.45,-117.13zm432.48 297.33c55.86,5.41 99.11,25.23 126.14,57.67 28.83,30.63 43.25,72.08 43.25,120.73 -14.42,55.86 -37.84,99.11 -68.48,126.14 -32.43,28.83 -72.08,43.25 -122.53,43.25 -55.87,0 -99.11,-16.22 -131.55,-46.85 -32.44,-32.44 -46.85,-75.69 -46.85,-133.35 7.21,-48.65 25.23,-90.1 57.66,-120.73 30.64,-32.44 79.29,-46.86 142.36,-46.86zm63.07 -601.86c14.42,-57.67 41.45,-99.11 79.29,-127.95 39.64,-27.03 90.1,-34.23 153.17,-21.62 14.41,0 28.83,3.6 41.44,10.81 14.42,7.21 28.84,10.81 43.25,10.81l52.26 73.89c-21.62,14.41 -30.63,28.83 -30.63,43.24 0,14.42 0,27.03 0,41.45 0,70.28 -18.02,118.93 -54.06,142.36 -34.24,25.23 -84.7,34.24 -147.77,27.03 -48.65,-7.21 -86.49,-30.64 -109.92,-68.48 -25.23,-39.64 -34.24,-82.89 -27.03,-131.54zm106.32 -401.85c-28.83,48.65 -61.27,82.89 -100.91,100.91 -37.85,16.22 -86.5,18.02 -142.36,3.61 -36.04,-5.41 -63.07,-25.23 -84.7,-57.67 -21.62,-30.63 -30.63,-68.47 -30.63,-109.92 0,-50.46 18.02,-90.1 57.66,-122.54 37.85,-30.63 82.9,-50.45 131.55,-57.66 7.21,0 14.42,0 21.62,0 7.21,0 12.62,0 19.83,0l158.57 210.83c-14.41,7.21 -21.62,14.42 -25.23,21.63 -3.6,7.21 -5.4,10.81 -5.4,10.81zm-317.15 -412.66c-36.04,36.04 -72.08,52.26 -111.73,48.66 -37.84,-3.61 -75.68,-19.83 -109.92,-48.66 -43.25,-27.03 -64.87,-61.27 -68.48,-99.11 -3.6,-39.64 1.81,-79.29 16.22,-122.53 12.62,-19.83 32.44,-39.65 57.67,-57.67 23.42,-18.02 43.24,-30.63 57.66,-36.04l189.21 263.09c0,7.21 -1.8,16.22 -9.01,27.03 -7.21,10.82 -14.42,18.02 -21.62,25.23zm-254.09 -454.1c-27.03,0 -50.45,3.6 -68.47,10.81 -18.02,7.21 -39.65,10.81 -68.48,10.81 -63.07,0 -111.72,-28.83 -147.76,-90.1 -34.24,-59.46 -34.24,-113.52 0,-163.98 7.21,-12.61 18.02,-27.03 32.43,-41.45 14.42,-14.41 23.43,-21.62 30.64,-21.62l221.64 295.53zm-347.78 -495.55c-99.11,-7.21 -160.38,-27.03 -185.61,-57.67 -23.42,-32.43 -18.02,-93.7 16.22,-185.6l169.39 243.27zm-1394.75 -1847.05c0,48.65 -16.22,88.3 -52.26,120.73 -34.24,32.44 -81.09,46.85 -136.95,46.85 -55.86,0 -99.11,-14.41 -126.14,-46.85 -28.83,-32.43 -46.85,-72.08 -54.06,-120.73 0,-57.67 16.22,-99.11 48.65,-127.94 30.64,-27.03 72.08,-45.05 120.74,-52.26 55.86,0 104.51,16.22 142.36,46.85 39.64,32.44 57.66,75.68 57.66,133.35zm-273.9 749.63c0,55.86 -18.02,99.11 -52.26,131.55 -36.04,30.63 -77.49,43.24 -126.14,36.04 -50.46,0 -91.9,-16.22 -127.94,-52.26 -34.24,-34.24 -48.66,-77.49 -41.45,-126.14 0,-50.46 16.22,-90.1 46.85,-122.54 32.44,-30.63 79.29,-46.85 142.36,-46.85 50.46,7.21 88.3,25.23 117.13,52.26 27.03,28.83 41.45,70.28 41.45,127.94zm-410.86 -317.15c-57.66,0 -100.91,-16.22 -133.35,-46.85 -30.63,-32.44 -46.85,-77.49 -46.85,-133.35 0,-55.86 16.22,-97.31 46.85,-126.14 32.44,-28.83 75.69,-43.25 133.35,-43.25 55.86,0 97.31,16.22 126.14,48.65 28.83,30.64 45.05,72.08 52.26,120.74 -14.42,55.86 -34.24,100.91 -63.07,133.35 -28.83,30.63 -66.68,46.85 -115.33,46.85zm-84.69 580.24c-7.21,63.07 -30.64,113.53 -68.48,147.77 -39.64,36.04 -86.5,50.45 -142.36,43.24 -57.66,0 -99.11,-19.82 -127.94,-59.46 -27.03,-37.84 -41.45,-82.89 -41.45,-131.55 0,-55.86 18.02,-100.91 52.26,-131.54 36.04,-32.44 84.7,-46.86 147.77,-46.86 55.86,0 99.11,16.22 126.14,52.26 28.83,34.24 46.85,77.49 54.06,126.14zm-443.3 -295.53c-57.66,-7.2 -102.71,-27.03 -136.95,-57.66 -36.04,-32.44 -54.06,-72.08 -54.06,-122.54 0,-63.07 19.82,-111.72 57.67,-147.76 39.64,-34.24 86.49,-48.65 144.16,-41.45 48.65,0 88.29,19.83 120.73,57.67 30.63,39.64 46.85,82.89 46.85,131.54 0,57.67 -18.02,99.11 -52.26,127.95 -36.04,27.03 -77.48,45.05 -126.14,52.25zm-73.88 580.25c0,57.66 -18.02,99.11 -54.06,127.94 -34.24,27.03 -77.48,41.45 -126.14,41.45 -48.65,-7.21 -90.1,-25.23 -120.73,-52.26 -32.44,-28.83 -48.66,-70.28 -48.66,-127.94 0,-63.07 16.22,-109.93 48.66,-142.36 30.63,-30.64 72.08,-46.85 120.73,-46.85 48.66,0 91.9,19.82 126.14,57.66 36.04,39.64 54.06,86.5 54.06,142.36zm-443.29 -315.35c-50.46,-7.21 -90.1,-25.23 -122.54,-54.06 -30.63,-27.03 -46.85,-70.28 -46.85,-126.14 0,-55.86 16.22,-104.52 46.85,-142.36 32.44,-39.64 82.9,-50.46 153.17,-37.84 48.66,7.21 91.91,27.03 126.14,59.46 36.04,30.64 50.46,72.08 43.25,120.74 -14.41,55.86 -37.84,100.91 -68.47,131.54 -32.44,32.44 -75.69,48.66 -131.55,48.66zm-73.88 -645.12c-21.63,70.28 -54.06,118.93 -95.51,142.36 -43.25,25.23 -99.11,19.82 -169.39,-16.22 -14.41,-5.4 -30.63,-9.01 -46.85,-9.01 -18.02,0 -34.24,0 -48.65,0 70.28,-36.04 140.55,-72.08 212.63,-111.72 70.28,-37.84 144.16,-75.69 221.65,-109.92 -21.62,12.61 -36.04,27.03 -43.25,41.44 -7.21,14.42 -18.02,34.24 -30.63,63.07zm-508.17 243.27c-27.03,91.9 -64.87,147.77 -109.92,169.39 -46.85,19.82 -111.72,9.01 -196.42,-32.44 -12.61,-7.2 -25.22,-12.61 -36.04,-16.21 -10.81,-3.61 -27.03,-9.01 -48.65,-14.42 72.08,-28.83 142.36,-59.47 212.64,-90.1 70.27,-32.44 140.55,-63.07 210.83,-90.1 -7.21,14.42 -14.42,27.03 -21.62,36.04 -7.21,10.81 -10.82,23.43 -10.82,37.84zm-547.8 273.91c0,50.45 -12.62,88.29 -37.85,117.13 -25.22,27.03 -57.66,48.65 -100.91,63.07 -34.24,14.41 -70.28,18.02 -104.51,10.81 -36.04,-7.21 -59.47,-28.83 -73.89,-63.07 -21.62,-28.83 -39.64,-54.06 -52.25,-73.88 -14.42,-21.63 -32.44,-36.04 -54.06,-43.25 77.48,-21.63 153.17,-43.25 227.05,-68.48 73.88,-25.23 149.56,-50.45 227.05,-79.29 -7.21,28.84 -14.42,50.46 -21.62,68.48 -5.41,18.02 -9.01,41.45 -9.01,68.48zm-549.61 380.22c-28.84,36.04 -57.67,61.27 -90.1,79.29 -30.64,18.02 -68.48,19.82 -109.93,5.4 -77.48,-34.24 -118.93,-79.29 -122.53,-131.54 -3.61,-52.26 9.01,-111.73 37.84,-174.8 34.24,-7.21 68.48,-14.41 99.11,-21.62 32.44,-5.41 66.67,-12.62 100.91,-19.82 43.25,27.03 75.69,64.87 100.91,109.92 23.43,46.85 18.02,97.31 -16.21,153.17zm-1266.81 10.81c0,41.45 -14.42,75.68 -43.25,100.91 -27.03,23.43 -63.07,36.04 -104.51,36.04 -43.25,7.21 -79.29,0 -111.73,-21.62 -30.63,-19.82 -57.66,-45.05 -79.29,-73.88 -7.2,-19.83 -12.61,-36.04 -14.41,-46.86 -3.61,-10.81 -9.01,-19.82 -16.22,-27.03 70.28,0 135.15,-1.8 194.62,-9.01 59.46,-7.2 122.53,-14.41 185.6,-21.62 0,7.21 -1.8,16.22 -5.4,27.03 -3.61,9.01 -5.41,21.62 -5.41,36.04zm-1203.74 317.15c63.07,14.42 109.93,32.44 142.36,57.67 32.44,25.22 46.85,68.47 46.85,131.54 0,57.67 -14.41,97.31 -46.85,122.54 -32.43,23.42 -79.29,36.04 -142.36,36.04 -55.86,0 -100.91,-14.42 -131.54,-41.45 -32.44,-28.83 -41.45,-66.67 -27.03,-117.13 0,-63.07 14.41,-106.32 41.44,-131.54 28.84,-25.23 66.68,-43.25 117.13,-57.67zm273.91 484.74c50.45,0 88.3,16.22 117.13,48.65 27.03,30.64 41.44,75.69 41.44,131.55 0,63.07 -16.21,109.92 -46.85,142.36 -32.43,32.43 -75.68,46.85 -133.35,46.85 -48.65,0 -90.1,-14.42 -126.14,-46.85 -34.23,-32.44 -52.25,-79.29 -52.25,-142.36 0,-55.86 21.62,-100.91 63.07,-131.55 41.44,-32.43 88.29,-48.65 136.95,-48.65zm243.27 486.54c63.07,0 109.92,18.02 142.36,52.26 32.43,36.04 50.45,77.48 57.66,127.94 -7.21,55.86 -25.23,99.11 -57.66,131.55 -32.44,30.63 -72.08,46.85 -120.74,46.85 -57.66,0 -104.51,-16.22 -142.36,-46.85 -39.64,-32.44 -59.46,-75.69 -59.46,-131.55 0,-50.46 16.22,-90.1 48.65,-122.54 30.64,-30.63 75.69,-50.45 131.55,-57.66zm263.09 495.55c57.66,7.21 100.91,27.03 133.35,59.47 30.63,30.63 43.25,72.08 36.04,120.73 0,48.65 -18.02,91.9 -52.26,126.14 -36.04,36.04 -77.49,50.46 -126.14,43.25 -50.46,0 -91.9,-18.02 -127.94,-54.06 -34.24,-34.24 -48.66,-77.49 -41.45,-126.14 0,-63.07 18.02,-108.12 52.26,-131.55 36.04,-25.23 77.49,-37.84 126.14,-37.84zm275.71 486.54c48.65,0 88.29,16.22 115.32,46.85 28.84,32.44 43.25,75.69 43.25,131.55 0,57.66 -18.02,100.91 -54.06,133.35 -34.24,30.63 -77.48,46.85 -126.14,46.85 -55.86,0 -100.91,-18.02 -131.54,-52.26 -32.44,-36.04 -48.66,-84.69 -48.66,-147.76 0,-57.67 18.02,-99.11 54.06,-127.95 34.24,-27.03 84.7,-37.84 147.77,-30.63zm200.02 473.93c70.28,0 122.53,16.21 158.57,48.65 34.24,30.63 59.47,72.08 73.89,120.73 0,55.87 -16.22,104.52 -46.86,142.36 -32.43,39.65 -79.28,59.47 -142.35,59.47 -50.46,0 -88.3,-16.22 -117.13,-48.66 -28.84,-30.63 -41.45,-75.68 -41.45,-131.54 -14.42,-63.07 -9.01,-108.12 14.42,-131.55 25.22,-25.23 59.46,-45.05 100.91,-59.46zm295.53 518.97c55.86,0 102.71,14.42 136.95,46.85 36.04,32.44 57.66,79.29 64.87,142.36 -7.21,48.66 -25.23,91.9 -54.06,126.14 -27.03,36.04 -66.67,54.06 -115.33,54.06 -55.86,0 -104.51,-16.22 -142.36,-48.65 -39.64,-30.64 -59.46,-75.69 -59.46,-131.55 -5.41,-55.86 7.21,-102.71 43.25,-136.95 34.23,-36.04 77.48,-52.26 126.14,-52.26zm284.71 484.74c50.46,0 88.3,18.02 117.13,52.26 27.03,36.04 41.45,77.48 41.45,127.94 -7.21,63.07 -25.23,109.92 -57.67,142.36 -32.43,30.63 -72.08,46.85 -120.73,46.85 -57.66,0 -100.91,-19.82 -133.35,-57.66 -30.63,-37.85 -43.25,-86.5 -36.04,-142.36 0,-63.07 19.82,-108.12 57.67,-131.55 39.64,-25.23 82.89,-37.84 131.54,-37.84zm360.4 1045.16c19.82,-34.24 48.66,-54.06 82.89,-57.66 36.04,-3.61 72.08,-1.81 106.32,5.4 28.83,14.42 54.06,32.44 79.29,52.26 25.23,21.62 36.04,50.46 36.04,84.69 -48.65,-14.41 -99.11,-27.03 -151.37,-36.04 -54.06,-10.81 -104.51,-27.03 -153.17,-48.65 0,0 0,0 0,0 0,0 0,0 0,0zm1034.35 221.65c-43.25,-14.42 -81.09,-19.83 -117.13,-19.83 -34.24,0 -73.88,-7.2 -115.33,-21.62 41.45,-28.83 84.7,-39.64 126.14,-32.44 43.25,7.21 77.49,32.44 106.32,73.89zm982.09 63.07c-7.21,-48.66 1.8,-88.3 25.23,-120.74 25.23,-32.43 64.87,-50.45 122.53,-57.66 55.87,-14.42 102.72,-5.41 142.36,25.23 37.84,32.43 50.46,75.68 36.04,133.34 -48.65,14.42 -100.91,19.83 -158.57,19.83 -55.87,0 -111.73,0 -167.59,0zm1847.05 -369.41c0,0 0,-1.81 0,-5.41 0,-3.6 0,-5.41 0,-5.41 0,-70.27 34.24,-118.93 100.91,-147.76 66.68,-27.03 120.74,-16.22 163.98,32.44 7.21,7.2 14.42,14.41 25.23,21.62 10.81,7.21 19.82,10.81 27.03,10.81 -7.21,0 -12.61,1.8 -16.22,5.41 -3.6,1.8 -9.01,3.6 -16.21,3.6 -48.66,21.63 -97.31,37.84 -147.77,48.66 -48.65,10.81 -93.7,21.62 -136.95,36.04zm1034.35 -473.93c-34.24,-28.83 -45.05,-59.47 -30.64,-90.1 14.42,-32.44 34.24,-64.87 63.07,-100.91 28.84,-27.03 63.07,-45.05 104.52,-52.26 43.25,-7.21 84.69,7.21 127.94,41.45 7.21,0 12.62,0 16.22,0 3.6,0 7.21,0 14.42,0 -55.87,43.24 -106.32,79.28 -153.17,111.72 -45.05,30.63 -91.91,61.27 -142.36,90.1zm-1573.15 -6144.82l106.32 136.95c-28.83,104.52 -64.87,171.19 -111.72,200.02 -45.05,28.84 -102.72,18.02 -173,-32.43 -63.07,-41.45 -117.13,-54.06 -158.57,-36.04 -43.25,18.02 -66.68,68.47 -73.88,153.17 -7.21,77.48 -32.44,131.54 -73.89,163.98 -43.24,30.63 -102.71,28.83 -180.2,-5.41 -70.27,-28.83 -124.33,-28.83 -163.98,0 -37.84,27.03 -64.87,73.89 -79.29,136.96 -19.82,77.48 -54.06,127.94 -99.11,153.17 -46.85,25.22 -100.91,23.42 -163.98,-5.41 -28.83,-7.21 -50.45,-10.81 -68.47,-10.81 -18.02,0 -34.24,3.6 -48.66,10.81 205.43,-126.14 416.26,-261.29 634.31,-401.85 218.04,-140.55 436.08,-295.52 654.12,-463.11zm-6366.46 1729.92c0,7.21 -3.61,16.22 -10.82,27.03 -7.2,10.81 -10.81,19.82 -10.81,27.03 -7.21,48.65 -34.24,79.29 -84.69,90.1 -48.66,9.01 -108.12,21.62 -178.4,36.04 70.28,21.62 108.12,66.67 115.33,136.95 7.21,70.28 57.66,70.28 147.76,0 57.67,-34.24 108.12,-46.85 153.17,-36.04 46.85,10.81 86.5,39.65 122.54,88.3 27.03,57.66 32.43,106.32 14.41,149.57 -16.21,41.44 -50.45,73.88 -99.11,93.7 -28.83,21.62 -48.65,36.04 -63.07,43.25 -14.41,7.21 -10.81,27.03 10.82,63.07 12.61,14.41 28.83,36.04 46.85,68.47 18.02,32.44 46.85,30.64 90.1,-5.4 41.44,-14.42 84.69,-16.22 126.14,-5.41 41.44,10.81 77.48,34.24 106.32,68.48 27.03,43.25 39.64,86.49 36.04,131.54 -3.61,46.86 -27.03,86.5 -68.48,122.54 -28.83,14.42 -45.05,30.63 -52.26,52.26 -7.21,21.62 -3.6,43.25 10.81,63.07 12.62,28.83 28.84,48.65 46.86,57.66 18.02,10.81 39.64,9.01 68.47,-3.6 43.25,-21.63 82.89,-25.23 120.74,-10.81 39.64,12.61 72.08,37.84 100.91,73.88 28.83,34.24 39.64,72.08 32.43,109.92 -7.2,39.64 -25.22,68.48 -54.06,90.1 -41.44,70.28 -54.06,118.93 -36.04,147.76 18.02,28.84 64.88,45.05 142.36,52.26 84.7,7.21 144.16,36.04 180.2,84.7 34.24,50.45 30.64,109.92 -10.81,180.2 -36.04,70.27 -45.05,118.93 -27.03,147.76 18.02,27.03 57.66,52.26 120.73,73.88 77.49,14.42 131.55,41.45 158.58,84.7 28.83,41.44 32.44,100.91 10.81,178.39 -21.62,57.67 -21.62,102.72 0,138.76 21.63,34.24 50.46,59.46 84.7,73.88 70.27,27.03 120.73,63.07 147.76,104.52 28.83,43.24 32.44,102.71 10.81,180.2 0,14.41 3.61,34.23 10.81,63.07 7.21,28.83 18.02,41.44 30.64,41.44 106.32,57.67 172.99,142.36 201.82,254.08 27.03,113.53 77.49,214.44 147.77,306.34 19.82,41.45 48.65,79.29 84.69,109.93 34.24,32.43 59.47,70.27 73.88,111.72 77.49,162.18 165.79,322.56 268.5,481.13 102.71,156.78 201.82,309.95 300.93,457.71 0,0 -3.6,-1.8 -10.81,-3.6 -7.21,-3.61 -10.81,-5.41 -10.81,-5.41l-3166.11 -4942.88c90.1,36.04 183.8,66.67 279.31,90.1 95.5,25.22 187.4,45.05 279.31,57.66zm2957.08 7339.55l-3157.11 -5490.7c-14.41,-28.83 -19.82,-52.26 -16.21,-73.88 3.6,-21.62 9.01,-43.25 16.21,-63.07l306.34 -360.4 2322.78 3591.39c27.03,41.44 57.67,75.68 90.1,99.11 30.64,25.22 68.48,48.65 109.92,68.47 409.06,135.15 807.3,234.26 1198.33,300.94 391.04,66.67 773.06,100.91 1146.08,100.91 48.65,0 100.91,-1.8 153.17,-5.41 52.25,-3.6 106.31,-9.01 163.98,-16.22 -479.33,239.67 -920.82,513.57 -1326.27,818.11 -403.65,306.34 -740.63,650.52 -1007.32,1030.75zm6377.28 -2894.02c-198.22,14.42 -398.25,34.24 -601.87,57.67 -203.63,25.23 -416.26,55.86 -634.31,90.1 162.18,-97.31 317.16,-203.63 464.92,-317.15 147.76,-111.73 291.92,-234.26 432.48,-369.41l338.78 538.79zm-5627.65 -5542.95c0,0 0,0 0,0 0,0 0,0 0,0l73.88 -10.81c48.66,-14.42 90.1,-23.43 120.74,-30.63 32.43,-7.21 72.08,-21.63 120.73,-43.25 21.62,-7.21 36.04,-18.02 43.25,-30.64 7.21,-14.41 10.81,-32.43 10.81,-54.06 -7.21,-12.61 -18.02,-23.42 -32.44,-30.63 -14.41,-7.21 -30.63,-10.81 -52.25,-10.81 -48.66,14.41 -90.1,25.23 -120.74,30.63 -32.43,7.21 -72.08,18.02 -122.53,32.44l-52.26 21.62c-21.63,0 -37.84,9.01 -48.66,25.23 -9.01,18.02 -10.81,34.24 -3.6,48.65 0,14.42 5.41,25.23 19.82,36.04 14.42,10.82 28.83,16.22 43.25,16.22zm654.13 -180.2c0,0 1.8,0 5.4,0 3.61,0 5.41,0 5.41,0 324.36,-111.72 632.5,-255.88 929.83,-432.48 295.53,-174.79 625.29,-414.46 991.1,-717.19 21.62,-21.63 52.26,-37.85 90.1,-48.66 39.64,-9.01 72.08,-10.81 100.91,-5.4 34.24,14.41 68.48,28.83 99.11,43.24 32.44,14.42 55.86,34.24 70.28,63.07l695.57 992.91c14.42,21.62 30.64,30.63 48.66,30.63 16.21,0 36.04,-3.6 57.66,-9.01 14.42,-7.21 23.43,-21.62 25.23,-43.25 3.6,-21.62 -1.8,-41.44 -14.42,-63.07l-697.37 -992.9c-28.83,-41.45 -66.68,-79.29 -117.13,-109.92 -48.66,-32.44 -97.31,-52.26 -147.77,-59.47 -48.65,-5.4 -99.11,-1.8 -153.17,10.81 -52.25,14.42 -99.11,39.65 -142.35,73.89 -358.6,302.73 -681.16,538.79 -965.88,708.18 -284.71,169.39 -585.65,306.34 -902.8,410.86 -14.41,7.21 -23.42,18.02 -30.63,32.43 -7.21,14.42 -10.81,32.44 -10.81,52.26 7.2,21.63 14.41,37.84 21.62,48.66 5.41,10.81 19.82,14.41 41.45,14.41z"/>
 </g>
</svg>
