<?xml version="1.0" encoding="UTF-8"?>
<!DOCTYPE svg PUBLIC "-//W3C//DTD SVG 1.1//EN" "http://www.w3.org/Graphics/SVG/1.1/DTD/svg11.dtd">
<!-- Creator: CorelDRAW 2020 (64-Bit) -->
<svg xmlns="http://www.w3.org/2000/svg" xml:space="preserve" width="109.22mm" height="105.579mm" version="1.1" style="shape-rendering:geometricPrecision; text-rendering:geometricPrecision; image-rendering:optimizeQuality; fill-rule:evenodd; clip-rule:evenodd"
viewBox="0 0 10921.98 10557.92"
 xmlns:xlink="http://www.w3.org/1999/xlink"
 xmlns:xodm="http://www.corel.com/coreldraw/odm/2003">
 <defs>
  <style type="text/css">
   <![CDATA[
    .fil0 {fill:none}
    .fil1 {fill:#2B2A29;fill-rule:nonzero}
   ]]>
  </style>
 </defs>
 <g id="Warstwa_x0020_1">
  <metadata id="CorelCorpID_0Corel-Layer"/>
  <rect class="fil0" x="-0.02" y="4.23" width="10921.99" height="10557.93"/>
  <path class="fil1" d="M9116.3 8546.31l-220.45 220.45 0 -6958.6 220.45 220.45c13.67,6.84 25.63,13.67 39.3,20.51 13.67,5.12 27.34,8.54 41.02,8.54 18.79,0 35.88,-3.42 49.55,-8.54 13.67,-6.84 23.93,-13.67 29.05,-20.51 27.35,-27.34 41.02,-56.39 41.02,-90.57 0,-32.47 -13.67,-59.81 -41.02,-80.32l-389.62 -379.37 0 -632.29c0,-66.65 -23.93,-123.04 -70.07,-169.18 -46.14,-47.85 -104.24,-70.06 -170.89,-70.06l-640.83 0 -399.88 -381.09c-20.51,-20.5 -47.85,-29.05 -85.44,-29.05 -35.89,0 -64.94,8.55 -85.45,29.05 -25.63,27.35 -39.3,56.4 -39.3,90.58 0,32.46 13.67,63.22 39.3,90.57l220.45 199.94 -4405.52 0 220.45 -199.94c27.34,-27.35 39.31,-58.11 39.31,-90.57 0,-34.18 -8.55,-63.23 -29.06,-90.58 -27.34,-20.5 -56.39,-29.05 -90.57,-29.05 -32.47,0 -63.23,8.55 -90.57,29.05l-389.62 381.09 -661.34 0c-66.65,0 -123.04,22.21 -169.18,70.06 -47.85,46.14 -70.07,102.53 -70.07,169.18l0 640.83 -381.08 370.83c-20.51,20.51 -30.76,47.85 -30.76,80.32 0,34.18 10.25,63.23 30.76,90.57 6.84,6.84 18.8,13.67 34.18,20.51 17.09,5.12 32.47,8.54 46.14,8.54 13.67,0 27.34,-3.42 44.43,-8.54 17.09,-6.84 29.05,-13.67 35.89,-20.51l199.94 -210.19 0 6927.83 -199.94 -199.94c-27.35,-25.63 -58.11,-39.3 -90.58,-39.3 -34.17,0 -59.81,13.67 -80.31,39.3 -27.35,20.51 -39.31,47.85 -39.31,80.32 0,34.18 11.96,63.23 39.31,90.57l370.83 360.58 0 651.08c0,59.81 23.92,112.79 75.19,158.93 49.55,47.85 104.24,70.06 164.05,70.06l661.34 0 401.59 381.09c5.12,6.83 15.38,13.67 29.05,20.5 13.67,6.84 27.34,10.26 41.01,10.26 18.8,0 35.89,-3.42 49.56,-10.26 13.67,-6.83 23.92,-13.67 29.05,-20.5 27.34,-20.51 41.01,-47.85 41.01,-85.45 0,-35.89 -13.67,-64.94 -41.01,-85.44l-218.74 -210.2 4405.52 0 -220.45 210.2c-27.34,20.5 -41.01,49.55 -41.01,85.44 0,37.6 13.67,64.94 41.01,85.45 6.84,6.83 17.09,13.67 29.05,20.5 13.67,6.84 30.76,10.26 51.27,10.26 11.96,0 25.63,-3.42 39.3,-10.26 13.67,-6.83 27.35,-13.67 39.31,-20.5l391.33 -381.09 651.09 0c59.81,0 112.79,-22.21 160.64,-70.06 46.14,-46.14 70.06,-99.12 70.06,-158.93l0 -630.58 399.88 -381.08c20.51,-27.34 30.76,-56.39 30.76,-90.57 0,-32.47 -10.25,-59.81 -30.76,-80.32 0,-18.8 -13.67,-30.76 -39.3,-34.18 -27.35,-3.41 -54.69,8.55 -80.32,34.18zm-471.66 -7700.25l0 391.34 -410.13 -391.34 410.13 0zm-6387.82 0l430.64 0 -430.64 422.1 0 -422.1zm0 8893.06l0 -422.1 430.64 422.1 -430.64 0zm760.45 0l-770.7 -751.92 0 -7389.23 770.7 -751.91 4887.43 0 739.94 741.66 0 7409.74 -739.94 741.66 -4887.43 0zm5627.37 0l-410.13 0 410.13 -391.34 0 391.34zm-5396.67 -7590.89c-59.81,0 -112.78,15.38 -160.63,44.43 -46.14,30.76 -85.45,70.07 -119.62,116.21l0 0 0 -140.13 -129.88 0c0,39.3 0,82.03 0,124.75 0,42.72 0,92.28 0,145.25l0 871.54 150.38 0 0 -451.15c18.8,41.01 52.98,71.77 99.12,95.7 47.85,22.21 97.41,34.18 150.38,34.18 93.99,0 177.73,-34.18 251.21,-104.25 73.48,-70.06 109.37,-179.43 109.37,-326.39 0,-119.63 -32.47,-218.74 -99.12,-293.93 -66.65,-76.9 -150.38,-116.21 -251.21,-116.21zm-39.3 731.41c-59.81,0 -109.37,-15.38 -145.26,-46.14 -37.59,-29.05 -61.52,-70.07 -75.19,-124.75 0,-13.67 0,-22.22 0,-29.05 0,-6.84 0,-20.51 0,-41.02l0 -140.12c0,-6.84 0,-17.09 0,-29.06 0,-13.67 3.42,-23.92 10.26,-30.76 18.79,-52.97 49.55,-95.69 88.86,-124.74 41.01,-30.76 83.73,-46.14 131.58,-46.14 78.61,0 140.13,30.76 179.44,90.57 39.3,59.81 59.81,126.45 59.81,199.94 -6.84,100.82 -29.05,179.43 -70.07,235.82 -39.3,56.4 -99.11,85.45 -179.43,85.45zm910.84 -731.41c-107.66,0 -198.23,39.31 -275.13,116.21 -76.9,75.19 -116.21,181.14 -116.21,314.43 0,126.46 37.6,227.29 111.08,300.77 73.48,73.48 164.05,109.37 270,109.37 93.99,0 181.15,-32.47 264.88,-99.12 83.74,-66.65 126.46,-177.72 126.46,-331.52 0,-112.79 -35.89,-210.2 -105.95,-290.51 -70.07,-78.61 -162.35,-119.63 -275.13,-119.63zm-10.26 731.41c-73.48,0 -131.58,-29.05 -176.01,-85.45 -42.72,-56.39 -64.94,-135 -64.94,-235.82 0,-73.49 20.51,-143.55 61.52,-210.2 39.31,-66.64 102.53,-99.11 189.69,-99.11 87.15,0 148.67,34.18 184.56,104.24 37.59,70.06 54.68,138.42 54.68,205.07 0,100.82 -23.92,179.43 -73.48,235.82 -51.27,56.4 -109.37,85.45 -176.02,85.45zm750.21 0c-39.31,0 -73.49,-6.84 -104.25,-20.51 -30.76,-13.67 -58.1,-27.34 -85.44,-39.3l-29.05 109.37c32.47,13.67 68.35,23.92 104.24,30.76 37.6,6.83 75.19,10.25 114.5,10.25 93.99,0 167.47,-22.22 220.44,-64.94 54.69,-44.43 80.32,-99.11 80.32,-165.76 0,-66.65 -18.8,-117.91 -54.68,-150.38 -35.89,-34.18 -85.45,-63.23 -145.26,-90.57 -59.81,-20.51 -100.82,-37.6 -124.75,-54.69 -23.92,-17.09 -35.88,-44.43 -35.88,-85.44 0,-32.47 11.96,-59.81 35.88,-80.32 23.93,-18.8 51.27,-29.05 85.45,-29.05 39.3,0 73.48,5.12 99.11,15.38 27.34,8.54 47.85,20.5 59.81,34.18l30.76 -109.37c-20.5,-20.51 -46.14,-34.18 -80.31,-41.02 -32.47,-6.83 -70.07,-10.25 -109.37,-10.25 -87.16,0 -155.51,23.92 -205.07,70.06 -51.27,47.85 -75.19,104.25 -75.19,170.89 0,46.14 15.38,88.87 49.56,124.75 32.47,37.6 87.15,68.36 160.63,95.7 52.98,20.51 88.86,39.3 109.37,59.81 20.51,20.51 30.76,46.14 30.76,80.32 11.96,46.14 8.55,82.03 -15.38,104.24 -23.92,23.93 -61.52,35.89 -116.2,35.89zm521.21 -160.64c0,46.14 5.12,87.16 15.38,119.62 10.25,34.18 25.63,64.94 44.43,90.58 20.51,20.5 44.43,35.88 70.06,46.14 27.35,8.54 58.11,13.67 90.57,13.67 34.18,0 58.11,-3.42 75.2,-10.26 17.08,-5.12 35.88,-8.54 54.68,-8.54l0 -111.08c-6.84,0 -18.8,3.42 -34.18,10.25 -17.09,6.84 -32.47,10.26 -46.14,10.26 -39.3,0 -68.35,-15.38 -83.73,-46.14 -17.09,-29.05 -25.64,-68.36 -25.64,-114.5l0 -420.38 199.94 0 0 -109.37 -199.94 0 0 -240.96 -160.63 29.05 0 191.4 -119.62 0 0 109.37 119.62 0 0 440.89zm840.77 270.01c61.52,0 114.5,-6.84 160.64,-18.8 46.14,-13.67 80.31,-23.93 100.82,-30.76l-30.76 -109.37c-20.51,5.13 -47.85,15.38 -85.44,29.05 -35.89,13.67 -82.03,20.51 -135.01,20.51 -66.64,0 -128.16,-22.22 -184.56,-64.94 -56.39,-44.43 -85.44,-116.2 -85.44,-215.32l570.77 0c0,-13.67 0,-23.92 0,-30.76 0,-6.84 0,-20.51 0,-39.3 0,-66.65 -22.22,-146.97 -64.94,-240.96 -44.43,-93.99 -131.58,-140.13 -264.88,-140.13 -121.33,0 -213.61,42.73 -280.25,124.75 -68.36,83.74 -100.83,186.27 -100.83,305.89 0,119.63 34.18,218.74 104.24,295.64 71.78,76.9 169.18,114.5 295.64,114.5zm-39.3 -721.15c80.31,0 135,27.34 165.76,80.31 29.05,54.69 44.43,104.25 44.43,150.39l-430.64 0c13.67,-52.98 35.89,-104.25 70.06,-155.51 34.18,-49.56 83.74,-75.19 150.39,-75.19zm671.59 702.35l0 -420.39c0,-13.67 0,-25.63 0,-35.88 0,-10.26 0,-18.8 0,-25.64 5.13,-59.81 25.63,-105.95 59.81,-140.13 32.47,-32.47 76.9,-49.55 129.88,-49.55 6.83,0 13.67,0 20.5,0 5.13,0 11.96,0 18.8,0l0 -150.39c-6.84,0 -13.67,0 -18.8,0 -6.83,0 -13.67,0 -20.5,0 -52.98,0 -100.83,17.09 -140.13,49.56 -41.02,34.18 -70.07,76.9 -90.57,131.59l0 0 0 -160.64 -119.63 0c0,39.3 0,80.32 0,119.62 0,41.02 0,83.74 0,129.88l0 551.97 160.64 0zm299.05 589.57l-270 0c-6.84,0 -17.09,3.41 -29.05,10.25 -13.67,6.83 -20.51,17.09 -20.51,30.76 0,18.8 3.42,32.47 10.26,39.3 6.83,6.84 18.79,10.26 39.3,10.26l270 0c6.84,0 15.38,-3.42 25.64,-10.26 10.25,-6.83 15.38,-20.5 15.38,-39.3 0,-13.67 -5.13,-23.93 -15.38,-30.76 -10.26,-6.84 -18.8,-10.25 -25.64,-10.25zm-630.58 0l-2052.37 0c-6.84,0 -17.09,3.41 -30.76,10.25 -11.96,6.83 -18.8,17.09 -18.8,30.76 0,18.8 3.42,32.47 8.55,39.3 6.83,6.84 20.5,10.26 41.01,10.26l2052.37 0c6.84,0 15.38,-3.42 25.64,-10.26 10.25,-6.83 15.38,-20.5 15.38,-39.3 0,-13.67 -3.42,-23.93 -10.26,-30.76 -6.83,-6.84 -17.08,-10.25 -30.76,-10.25zm-3614.29 300.76c-6.84,0 -17.09,3.42 -30.76,10.25 -13.68,6.84 -18.8,17.09 -18.8,29.05l0 271.72c0,6.83 3.42,15.38 8.54,29.05 6.84,13.67 20.51,20.5 41.02,20.5 13.67,0 25.63,-3.41 34.17,-10.25 10.26,-6.83 15.38,-20.51 15.38,-39.3l0 -271.72c0,-11.96 -6.83,-22.21 -20.5,-29.05 -11.97,-6.83 -22.22,-10.25 -29.05,-10.25zm0 611.78c-6.84,0 -17.09,1.71 -30.76,8.55 -13.68,6.83 -18.8,20.5 -18.8,41.01l0 1541.42c0,6.83 3.42,17.09 8.54,30.76 6.84,13.67 20.51,18.79 41.02,18.79 13.67,0 25.63,-1.7 34.17,-8.54 10.26,-6.84 15.38,-20.51 15.38,-41.01l0 -1541.42c0,-6.84 -6.83,-17.09 -20.5,-30.76 -11.97,-13.67 -22.22,-18.8 -29.05,-18.8zm6288.71 -2033.58c-41.02,0 -75.2,13.68 -105.96,39.31 -30.76,27.34 -44.43,61.52 -44.43,100.82 0,39.31 11.97,76.9 39.31,111.08 27.34,32.47 63.23,49.56 111.08,49.56 39.3,0 75.19,-15.38 104.24,-46.14 30.76,-29.05 44.43,-68.36 44.43,-114.5 0,-39.3 -13.67,-73.48 -44.43,-100.82 -29.05,-25.63 -64.94,-39.31 -104.24,-39.31zm0 220.45c-13.68,0 -30.76,-6.83 -51.27,-20.51 -18.8,-13.67 -29.05,-32.46 -29.05,-59.81 0,-27.34 8.54,-42.72 23.92,-49.55 17.09,-6.84 35.89,-10.26 56.4,-10.26 25.63,0 44.43,6.84 54.68,20.51 10.25,11.96 15.38,25.63 15.38,39.3 0,13.67 -6.84,30.76 -20.51,49.56 -13.67,20.51 -30.76,30.76 -49.55,30.76zm0 360.58c-41.02,0 -75.2,15.38 -105.96,44.43 -30.76,30.76 -44.43,68.35 -44.43,116.2 0,39.31 11.97,73.48 39.31,99.12 27.34,27.34 63.23,41.01 111.08,41.01 39.3,0 75.19,-13.67 104.24,-41.01 30.76,-25.64 44.43,-59.81 44.43,-99.12 0,-47.85 -13.67,-85.44 -44.43,-116.2 -29.05,-29.05 -64.94,-44.43 -104.24,-44.43zm0 220.44c-13.68,0 -30.76,-6.83 -51.27,-20.5 -18.8,-13.67 -29.05,-27.35 -29.05,-39.31 0,-13.67 8.54,-30.76 23.92,-51.26 17.09,-18.8 35.89,-29.06 56.4,-29.06 25.63,0 44.43,6.84 54.68,18.8 10.25,13.67 15.38,34.18 15.38,61.52 0,18.8 -6.84,34.18 -20.51,44.43 -13.67,10.26 -30.76,15.38 -49.55,15.38zm0 360.58c-41.02,0 -75.2,15.38 -105.96,44.43 -30.76,30.76 -44.43,68.36 -44.43,114.5 0,41.01 11.97,73.48 39.31,100.82 27.34,27.34 63.23,39.3 111.08,39.3 39.3,0 75.19,-11.96 104.24,-39.3 30.76,-27.34 44.43,-59.81 44.43,-100.82 0,-39.31 -13.67,-75.2 -44.43,-109.37 -29.05,-34.18 -64.94,-49.56 -104.24,-49.56zm0 220.45c-13.68,0 -30.76,-5.13 -51.27,-15.38 -18.8,-10.26 -29.05,-25.64 -29.05,-46.14 0,-11.97 8.54,-29.06 23.92,-49.56 17.09,-20.51 35.89,-29.05 56.4,-29.05 25.63,0 44.43,6.83 54.68,23.92 10.25,17.09 15.38,35.89 15.38,54.69 0,27.34 -6.84,44.43 -20.51,51.26 -13.67,6.84 -30.76,10.26 -49.55,10.26zm-7440.5 3123.84c39.3,0 76.9,-13.67 109.36,-41.01 34.18,-25.63 51.27,-63.23 51.27,-109.37 0,-41.01 -15.38,-75.19 -46.14,-105.95 -29.05,-29.05 -68.35,-44.43 -114.49,-44.43 -39.31,0 -73.49,15.38 -100.83,44.43 -25.63,30.76 -39.3,64.94 -39.3,105.95 -13.67,46.14 -5.13,83.74 25.63,109.37 29.05,27.34 68.36,41.01 114.5,41.01zm0 -220.44c13.67,0 30.76,6.83 49.55,20.5 20.51,11.97 30.76,29.05 30.76,49.56 0,13.67 -10.25,29.05 -30.76,49.56 -18.79,20.51 -35.88,30.76 -49.55,30.76 -20.51,0 -35.89,-8.55 -49.56,-25.63 -13.67,-17.09 -20.51,-34.18 -20.51,-54.69 0,-27.34 5.13,-44.43 15.38,-54.68 10.25,-10.26 27.34,-15.38 54.69,-15.38zm0 820.26c39.3,0 76.9,-13.67 109.36,-39.3 34.18,-27.34 51.27,-59.81 51.27,-100.83 0,-39.3 -15.38,-76.9 -46.14,-109.36 -29.05,-34.18 -68.35,-49.56 -114.49,-49.56 -39.31,0 -73.49,13.67 -100.83,44.43 -25.63,30.76 -39.3,68.35 -39.3,114.49 -13.67,34.18 -5.13,64.94 25.63,95.7 29.05,30.76 68.36,44.43 114.5,44.43zm0 -220.44c13.67,0 30.76,8.54 49.55,25.63 20.51,17.09 30.76,35.89 30.76,54.68 0,27.35 -10.25,44.44 -30.76,51.27 -18.79,5.13 -35.88,8.55 -49.55,8.55 -20.51,0 -35.89,-5.13 -49.56,-18.8 -13.67,-13.67 -20.51,-27.34 -20.51,-41.02 0,-13.67 5.13,-29.05 15.38,-49.55 10.25,-20.51 27.34,-30.76 54.69,-30.76zm0 811.72c39.3,0 76.9,-15.38 109.36,-44.43 34.18,-30.76 51.27,-68.36 51.27,-116.21 0,-39.3 -15.38,-73.48 -46.14,-99.11 -29.05,-27.34 -68.35,-41.02 -114.49,-41.02 -46.14,0 -85.45,13.68 -114.5,41.02 -30.76,25.63 -46.14,59.81 -46.14,99.11 0,47.85 15.38,85.45 46.14,116.21 29.05,29.05 68.36,44.43 114.5,44.43zm0 -220.45c13.67,0 30.76,5.13 49.55,15.38 20.51,10.25 30.76,25.63 30.76,44.43 0,13.67 -10.25,30.76 -30.76,51.27 -18.79,18.8 -35.88,29.05 -49.55,29.05 -20.51,0 -35.89,-8.54 -49.56,-23.92 -13.67,-17.09 -20.51,-35.89 -20.51,-56.4 0,-25.63 5.13,-42.72 15.38,-49.56 10.25,-6.83 27.34,-10.25 54.69,-10.25z"/>
 </g>
</svg>
