<?xml version="1.0" encoding="UTF-8"?>
<!DOCTYPE svg PUBLIC "-//W3C//DTD SVG 1.1//EN" "http://www.w3.org/Graphics/SVG/1.1/DTD/svg11.dtd">
<!-- Creator: CorelDRAW 2020 (64-Bit) -->
<svg xmlns="http://www.w3.org/2000/svg" xml:space="preserve" width="109.22mm" height="105.579mm" version="1.1" style="shape-rendering:geometricPrecision; text-rendering:geometricPrecision; image-rendering:optimizeQuality; fill-rule:evenodd; clip-rule:evenodd"
viewBox="0 0 10921.98 10557.92"
 xmlns:xlink="http://www.w3.org/1999/xlink"
 xmlns:xodm="http://www.corel.com/coreldraw/odm/2003">
 <defs>
  <style type="text/css">
   <![CDATA[
    .fil0 {fill:none}
    .fil1 {fill:#2B2A29;fill-rule:nonzero}
   ]]>
  </style>
 </defs>
 <g id="Warstwa_x0020_1">
  <metadata id="CorelCorpID_0Corel-Layer"/>
  <rect class="fil0" x="-0.02" y="4.23" width="10921.99" height="10557.93"/>
  <path class="fil1" d="M5523.02 1795.39l263.65 0c25.85,0 51.7,-10.34 74.1,-31.01 24.12,-20.68 36.19,-46.53 36.19,-81l0 -201.61c0,-32.74 -12.07,-60.32 -36.19,-80.99 -22.4,-18.96 -48.25,-29.3 -74.1,-29.3l-263.65 0c-25.85,0 -51.7,10.34 -75.82,29.3 -22.41,20.67 -34.47,48.25 -34.47,80.99l0 201.61c0,34.47 12.06,60.32 34.47,81 24.12,20.67 49.97,31.01 75.82,31.01zm-29.3 -313.62c0,-6.9 3.45,-13.79 8.62,-20.68 6.89,-6.89 13.78,-8.62 20.68,-8.62l263.65 0c5.17,0 12.06,1.73 18.96,8.62 6.89,6.89 10.34,13.78 10.34,20.68l0 201.61c0,13.79 -3.45,24.13 -10.34,31.02 -6.9,6.9 -13.79,10.34 -18.96,10.34l-263.65 0c-6.9,0 -13.79,-3.44 -20.68,-10.34 -5.17,-6.89 -8.62,-17.23 -8.62,-31.02l0 -201.61zm1049.44 313.62l251.6 0c34.46,0 62.03,-10.34 80.99,-31.01 20.68,-20.68 31.01,-46.53 31.01,-81l0 -201.61c0,-32.74 -10.33,-60.32 -31.01,-80.99 -18.96,-18.96 -46.53,-29.3 -80.99,-29.3l-251.6 0c-34.46,0 -60.31,10.34 -80.99,29.3 -20.68,20.67 -29.29,48.25 -29.29,80.99l0 201.61c5.17,34.47 20.68,60.32 44.8,81 24.13,20.67 44.81,31.01 65.48,31.01zm-10.33 -313.62c0,-6.9 3.44,-13.79 10.33,-20.68 6.9,-6.89 13.79,-8.62 20.68,-8.62l251.59 0c6.9,0 13.79,1.73 20.68,8.62 6.9,6.89 10.34,13.78 10.34,20.68l0 201.61c0,13.79 -3.44,24.13 -10.34,31.02 -6.89,6.9 -13.78,10.34 -20.68,10.34l-251.59 0c-6.89,0 -13.78,-3.44 -20.68,-10.34 -6.89,-6.89 -10.33,-17.23 -10.33,-31.02l0 -201.61zm1221.76 7280.61l0 0c-6.89,0 -10.34,0 -10.34,0 0,0 3.45,0 10.34,0l-20.68 -7744.16 70.65 0 0 141.3c0,18.96 6.9,36.19 20.68,49.98 13.79,13.78 27.57,20.68 41.36,20.68 12.06,0 25.85,-10.34 39.63,-31.02 13.79,-20.68 20.68,-36.19 20.68,-49.97l0 -404.96c0,-12.06 -6.89,-25.85 -20.68,-39.64 -13.78,-13.78 -27.57,-20.67 -39.63,-20.67 -13.79,0 -27.57,6.89 -41.36,20.67 -13.78,13.79 -20.68,27.58 -20.68,39.64l0 151.64 -70.65 0 0 -484.22c0,-60.32 -22.4,-113.74 -70.65,-161.99 -46.53,-46.52 -99.95,-70.65 -160.26,-70.65l-4080.59 0c-60.31,0 -113.73,24.13 -160.26,70.65 -48.25,48.25 -70.65,101.67 -70.65,161.99l0 484.22 -70.65 0 0 -151.64c0,-12.06 -6.9,-25.85 -20.68,-39.64 -13.79,-13.78 -27.57,-20.67 -41.36,-20.67 -12.06,0 -25.85,6.89 -39.63,20.67 -13.79,13.79 -20.68,27.58 -20.68,39.64l0 404.96c0,13.78 6.89,25.84 20.68,39.63 13.78,13.79 27.57,20.68 39.63,20.68 13.79,0 27.57,-6.89 41.36,-20.68 13.78,-13.79 20.68,-25.85 20.68,-39.63l0 -130.97 70.65 0 0 7744.16c0,0 0,0 0,0 0,0 0,0 0,0l-20.68 0c-60.31,0 -113.73,24.12 -161.98,75.82 -46.53,49.97 -70.65,105.12 -70.65,165.43l0 889.18c0,67.21 24.12,124.07 70.65,172.32 48.25,46.53 101.67,70.66 161.98,70.66l80.99 0 0 110.28c0,41.36 13.79,74.1 39.64,101.67 27.57,25.85 60.31,39.64 101.67,39.64l939.15 0c39.64,0 74.1,-13.79 99.95,-39.64 27.57,-27.57 41.36,-60.31 41.36,-101.67l0 -110.28 2038.57 0 0 110.28c0,41.36 13.78,74.1 41.35,101.67 25.85,25.85 60.32,39.64 99.95,39.64l959.84 0c41.35,0 74.09,-13.79 101.67,-39.64 25.84,-27.57 39.63,-60.31 39.63,-101.67l0 -110.28c60.31,-6.9 113.73,-32.74 156.81,-75.83 43.08,-44.8 65.49,-99.94 65.49,-167.15l0 -889.18c6.89,-60.31 -13.79,-115.46 -60.32,-165.43 -48.25,-51.7 -101.67,-75.82 -161.98,-75.82zm-4332.18 -8361.07l4080.59 0 0 475.61 -4080.59 0 0 -475.61zm4080.59 616.91l0 7744.16 -4080.59 0 0 -7744.16 4080.59 0zm251.59 7985.41l0 303.29 -4583.77 0 0 -303.29 4583.77 0zm-4583.77 556.6l4563.09 0 0 353.26 -4563.09 0 0 -353.26zm1190.75 685.84c0,0 -1.73,3.45 -5.17,10.34 -3.45,6.89 -5.17,10.34 -5.17,10.34l-937.44 0c-6.89,0 -12.06,-3.45 -15.5,-10.34 -3.45,-6.89 -5.17,-10.34 -5.17,-10.34l0 -110.28 989.12 0 0 110.28 -20.67 0zm3251.72 20.68l-939.16 0c-6.89,0 -12.06,-3.45 -15.51,-10.34 -3.45,-6.89 -5.17,-10.34 -5.17,-10.34l0 -110.28 990.85 0 0 110.28c0,6.9 -3.44,12.07 -10.34,15.51 -6.89,3.45 -13.78,5.17 -20.67,5.17zm-3563.63 -3191.41c13.79,0 25.85,-5.16 39.64,-15.5 13.78,-8.62 20.68,-24.13 20.68,-44.81l0 -1625c0,-13.78 -6.9,-27.57 -20.68,-41.35 -13.79,-13.79 -25.85,-18.96 -39.64,-18.96 -20.68,0 -37.91,5.17 -51.69,18.96 -12.07,13.78 -18.96,27.57 -18.96,41.35l0 1645.68c0,13.79 5.17,22.4 13.79,29.3 10.34,6.89 29.29,10.33 56.86,10.33zm0 909.87c13.79,0 25.85,-6.9 39.64,-20.68 13.78,-13.79 20.68,-27.57 20.68,-41.36l0 -413.57c0,-13.79 -6.9,-25.85 -20.68,-39.64 -13.79,-13.78 -25.85,-20.68 -39.64,-20.68 -20.68,0 -37.91,6.9 -51.69,20.68 -12.07,13.79 -18.96,25.85 -18.96,39.64l0 413.57c0,20.68 5.17,36.19 13.79,46.53 10.34,10.34 29.29,15.51 56.86,15.51zm2817.47 -7361.61l-415.3 0c-18.95,0 -36.18,6.9 -49.97,20.68 -13.79,13.79 -20.68,25.85 -20.68,39.64 0,20.67 6.89,36.18 20.68,46.52 13.79,8.62 31.02,13.79 49.97,13.79l415.3 0c12.06,0 25.85,-5.17 39.63,-13.79 13.79,-10.34 20.68,-25.85 20.68,-46.52 0,-13.79 -5.17,-25.85 -15.51,-39.64 -10.33,-13.78 -25.84,-20.68 -44.8,-20.68zm-849.55 0l-413.57 0c-13.79,0 -27.57,6.9 -39.63,20.68 -13.79,13.79 -20.68,25.85 -20.68,39.64 0,20.67 6.89,36.18 20.68,46.52 12.06,8.62 25.84,13.79 39.63,13.79l413.57 0c20.68,0 36.19,-5.17 46.53,-13.79 10.34,-10.34 13.79,-25.85 13.79,-46.52 0,-13.79 -1.73,-25.85 -8.62,-39.64 -6.89,-13.78 -24.13,-20.68 -51.7,-20.68zm-837.48 0l-413.58 0c-20.68,0 -37.91,6.9 -51.69,20.68 -12.07,13.79 -18.96,25.85 -18.96,39.64 0,20.67 6.89,36.18 18.96,46.52 13.78,8.62 31.01,13.79 51.69,13.79l413.58 0c13.78,0 27.57,-5.17 39.63,-13.79 13.79,-10.34 20.68,-25.85 20.68,-46.52 0,-13.79 -6.89,-25.85 -20.68,-39.64 -12.06,-13.78 -25.85,-20.68 -39.63,-20.68z"/>
 </g>
</svg>
