<?xml version="1.0" encoding="UTF-8"?>
<!DOCTYPE svg PUBLIC "-//W3C//DTD SVG 1.1//EN" "http://www.w3.org/Graphics/SVG/1.1/DTD/svg11.dtd">
<!-- Creator: CorelDRAW 2020 (64-Bit) -->
<svg xmlns="http://www.w3.org/2000/svg" xml:space="preserve" width="109.22mm" height="105.579mm" version="1.1" style="shape-rendering:geometricPrecision; text-rendering:geometricPrecision; image-rendering:optimizeQuality; fill-rule:evenodd; clip-rule:evenodd"
viewBox="0 0 10921.98 10557.92"
 xmlns:xlink="http://www.w3.org/1999/xlink"
 xmlns:xodm="http://www.corel.com/coreldraw/odm/2003">
 <defs>
  <style type="text/css">
   <![CDATA[
    .fil0 {fill:none}
    .fil1 {fill:#2B2A29;fill-rule:nonzero}
   ]]>
  </style>
 </defs>
 <g id="Warstwa_x0020_1">
  <metadata id="CorelCorpID_0Corel-Layer"/>
  <rect class="fil0" x="-0.02" y="4.23" width="10921.99" height="10557.93"/>
  <path class="fil1" d="M2295.78 830.34l-184.06 0 0 -175.31c0,-7.01 -3.51,-15.77 -10.52,-29.81 -7.03,-14.02 -17.53,-21.03 -29.81,-21.03 -21.04,0 -35.06,7.01 -42.07,21.03 -7.02,14.04 -10.52,22.8 -10.52,29.81l0 175.31 -164.79 0c-12.28,0 -24.54,3.5 -35.06,10.52 -10.52,7.01 -15.79,21.03 -15.79,40.32 0,14.03 5.27,26.29 15.79,36.81 10.52,10.52 22.78,15.78 35.06,15.78l175.31 0 0 173.55c0,14.04 5.25,26.3 15.77,36.82 10.53,10.52 22.79,14.03 35.06,14.03 21.05,0 35.07,-3.51 42.08,-14.03 7.02,-10.52 10.52,-22.78 10.52,-36.82l0 -173.55 173.55 0c21.04,0 35.06,-5.26 42.08,-15.78 7.01,-10.52 10.51,-22.78 10.51,-36.81 0,-19.29 -7.01,-33.31 -21.03,-40.32 -14.03,-7.02 -28.05,-10.52 -42.08,-10.52zm-676.68 -359.39l-185.84 0 0 -175.3c0,-14.03 -3.51,-24.55 -10.52,-35.07 -7.01,-10.51 -19.28,-15.77 -40.31,-15.77 -14.03,0 -24.55,7.01 -31.56,21.04 -7.01,14.02 -10.52,22.78 -10.52,29.8l0 175.3 -184.07 0c-14.03,0 -24.55,5.27 -31.56,15.79 -7.01,10.51 -8.77,21.03 -8.77,35.06 0,21.03 1.76,35.06 8.77,42.07 7.01,7.01 17.53,10.52 31.56,10.52l184.07 0 0 173.56c0,21.04 3.51,35.06 10.52,42.07 7.01,7.01 17.53,8.76 31.56,8.76 21.03,0 33.3,-5.25 40.31,-19.28 7.01,-14.02 10.52,-24.54 10.52,-31.55l0 -173.56 185.84 0c14.01,0 22.78,-3.51 29.79,-10.52 7.02,-7.01 10.52,-21.04 10.52,-42.07 0,-14.03 -5.25,-24.55 -15.77,-35.06 -10.53,-10.52 -17.53,-15.79 -24.54,-15.79zm4847.29 8064.23c21.04,0 36.82,-7.01 47.34,-21.04 10.52,-14.02 14.02,-28.05 14.02,-42.07l0 -492.62c0,-14.02 -3.5,-28.05 -14.02,-40.32 -10.52,-14.03 -26.3,-21.04 -47.34,-21.04 -12.27,0 -26.29,7.01 -40.32,21.04 -14.02,12.27 -21.03,26.3 -21.03,40.32l0 492.62c0,21.04 7.01,36.82 21.03,47.34 14.03,10.52 28.05,15.77 40.32,15.77zm-1405.98 399.71l-369.9 -154.28c-21.04,-14.02 -38.57,-17.53 -52.59,-10.52 -12.28,7.01 -22.8,21.04 -29.81,42.08 -7.01,14.02 -7.01,26.3 0,40.32 7.01,14.03 17.53,28.05 29.81,42.08l369.9 152.52c14.03,0 21.04,0 21.04,0 0,0 7.01,0 21.04,0 14.02,0 24.54,-1.76 35.06,-8.77 10.52,-7.01 19.28,-14.03 26.29,-21.04 0,-7.01 -5.26,-19.28 -15.77,-36.81 -10.52,-15.78 -22.8,-31.55 -35.07,-45.58zm503.14 308.54c-7.01,21.04 -7.01,36.81 0,50.84 7.01,14.02 15.77,24.54 29.8,31.55l441.78 194.6c7.02,0 12.27,0 15.78,0 3.5,0 8.77,0 15.78,0 14.02,0 24.54,-3.51 35.06,-10.52 10.52,-7.01 19.28,-14.03 26.29,-21.04 7.01,-12.26 7.01,-28.05 0,-45.58 -7.01,-17.53 -17.53,-29.79 -31.55,-35.06l-441.78 -196.34c-19.29,-7.02 -38.57,-7.02 -56.1,0 -17.53,7.01 -28.05,17.53 -35.06,31.55zm902.84 420.74c21.04,0 36.82,-7.01 47.34,-21.04 10.52,-12.26 14.02,-26.29 14.02,-40.31l0 -646.89c0,-14.03 -3.5,-28.05 -14.02,-42.09 -10.52,-12.26 -26.3,-19.27 -47.34,-19.27 -12.27,0 -26.29,7.01 -40.32,19.27 -14.02,14.04 -21.03,28.06 -21.03,42.09l0 646.89c0,21.03 7.01,35.06 21.03,45.58 14.03,10.52 28.05,15.77 40.32,15.77zm2270.25 -9480.72l-5669.49 0c0,0 0,0 0,0 0,0 0,0 0,0 -21.04,0 -43.84,3.51 -66.62,10.52 -24.54,7.01 -43.83,14.02 -56.1,19.29 -35.06,28.05 -63.11,59.6 -82.4,92.9 -21.04,35.07 -31.55,75.39 -31.55,124.48l0 8041.43c0,49.09 12.27,91.16 36.82,129.73 22.78,36.82 59.6,70.12 106.94,96.42l3718.3 1665.44c21.04,5.26 38.57,10.52 50.85,14.03 14.02,3.5 31.55,5.25 52.59,5.25 21.03,0 42.07,-3.51 66.61,-10.52 24.55,-7.01 42.08,-15.77 56.1,-29.8 35.06,-21.03 61.35,-50.84 82.39,-87.66 21.04,-38.57 31.56,-77.13 31.56,-117.45l0 -1490.13 1714.52 -338.35c35.06,-7.01 59.61,-22.79 77.14,-47.33 17.53,-22.79 26.3,-45.58 26.3,-66.62l0 -7899.43c0,-33.31 -12.28,-61.36 -36.82,-82.39 -24.54,-19.29 -49.09,-29.81 -77.14,-29.81zm-3194.13 790.64l0 257.71 -1868.79 -801.16 4149.57 0 -2177.35 420.74c-28.05,7.01 -52.59,21.03 -71.87,45.57 -21.04,24.55 -31.56,49.09 -31.56,77.14zm1253.47 9163.42l-3728.83 -1665.44 0 -8041.43 3728.83 1602.33 0 8104.54zm236.66 -1737.32l0 -6367.22c0,-49.1 -14.03,-92.92 -42.08,-135 -28.05,-40.32 -61.35,-71.88 -101.67,-91.15l-1099.19 -473.34 0 -255.95 2813.71 -555.73 0 7571.61 -1570.77 306.78zm-3350.16 -6665.26l2240.46 985.24c7.01,0 12.26,0 15.77,0 1.76,0 7.01,0 14.02,0 14.03,0 26.31,-3.5 36.82,-10.52 10.52,-7.01 19.28,-14.02 26.29,-19.28 5.27,-14.02 5.27,-28.05 -1.74,-42.07 -5.27,-14.02 -15.79,-26.3 -29.81,-40.33l-2238.7 -986.98c-14.02,-7.01 -28.05,-7.01 -42.07,0 -14.03,7.01 -24.55,17.53 -29.8,31.55 -21.04,19.28 -28.05,36.81 -21.04,50.84 7.01,14.02 17.53,24.54 29.8,31.55zm0 604.82l2240.46 986.99c7.01,0 12.26,0 15.77,0 1.76,0 7.01,0 14.02,0 14.03,0 26.31,-3.5 36.82,-10.51 10.52,-7.02 19.28,-14.03 26.29,-21.04 5.27,-19.29 5.27,-36.82 -1.74,-50.84 -5.27,-14.03 -15.79,-24.55 -29.81,-31.56l-2249.22 -985.24c-14.02,-14.02 -29.8,-17.53 -47.33,-10.52 -15.78,7.02 -28.05,21.04 -35.06,40.33 -7.01,14.02 -7.01,28.05 0,42.07 7.01,14.03 17.53,28.05 29.8,40.32zm0 575.02l2240.46 986.99c7.01,0 12.26,0 15.77,0 1.76,0 7.01,0 14.02,0 14.03,0 26.31,-3.5 36.82,-10.53 10.52,-7 19.28,-14.01 26.29,-21.02 5.27,-12.28 5.27,-26.3 -1.74,-40.33 -5.27,-14.02 -15.79,-28.05 -29.81,-42.07l-2238.7 -985.24c-14.02,-7.01 -28.05,-7.01 -42.07,0 -14.03,7.01 -24.55,17.53 -29.8,31.56 -21.04,19.27 -28.05,38.56 -21.04,56.09 7.01,17.54 17.53,24.55 29.8,24.55zm6051.68 3853.29c-14.03,0 -28.05,7.01 -42.08,19.29 -14.02,14.03 -21.03,31.56 -21.03,52.59l0 298.03c0,19.28 7.01,36.82 21.03,50.84 14.03,14.02 28.05,21.04 42.08,21.04 19.28,0 36.81,-7.02 50.83,-21.04 14.03,-14.02 21.04,-31.56 21.04,-50.84l0 -298.03c0,-21.03 -7.01,-38.56 -21.04,-52.59 -14.02,-12.28 -31.55,-19.29 -50.83,-19.29zm0 -3574.55c-14.03,0 -28.05,7.01 -42.08,19.28 -14.02,14.02 -21.03,28.05 -21.03,42.07l0 3092.46c0,19.28 7.01,36.81 21.03,50.84 14.03,14.02 28.05,19.29 42.08,19.29 19.28,0 36.81,-5.27 50.83,-19.29 14.03,-14.03 21.04,-31.56 21.04,-50.84l0 -3092.46c0,-14.02 -7.01,-28.05 -21.04,-42.07 -14.02,-12.27 -31.55,-19.28 -50.83,-19.28zm-494.38 2361.42c-19.28,0 -36.81,7.01 -50.83,21.03 -14.03,14.03 -21.04,28.05 -21.04,40.32l0 308.55c0,21.04 7.01,38.57 21.04,52.59 14.02,12.27 31.55,19.28 50.83,19.28 14.03,0 28.05,-7.01 42.08,-19.28 14.02,-14.02 21.03,-31.55 21.03,-52.59l0 -308.55c0,-19.28 -7.01,-35.06 -21.03,-45.58 -14.03,-10.52 -28.05,-15.77 -42.08,-15.77zm0 781.88c-19.28,0 -36.81,7.01 -50.83,19.28 -14.03,14.02 -21.04,28.04 -21.04,42.07l0 1653.17c0,14.03 7.01,28.05 21.04,42.08 14.02,12.26 31.55,19.27 50.83,19.27 14.03,0 28.05,-7.01 42.08,-19.27 14.02,-14.03 21.03,-28.05 21.03,-42.08l0 -1653.17c0,-14.03 -7.01,-28.05 -21.03,-42.07 -14.03,-12.27 -28.05,-19.28 -42.08,-19.28z"/>
 </g>
</svg>
