<?xml version="1.0" encoding="UTF-8"?>
<!DOCTYPE svg PUBLIC "-//W3C//DTD SVG 1.1//EN" "http://www.w3.org/Graphics/SVG/1.1/DTD/svg11.dtd">
<!-- Creator: CorelDRAW 2020 (64-Bit) -->
<svg xmlns="http://www.w3.org/2000/svg" xml:space="preserve" width="109.22mm" height="105.579mm" version="1.1" style="shape-rendering:geometricPrecision; text-rendering:geometricPrecision; image-rendering:optimizeQuality; fill-rule:evenodd; clip-rule:evenodd"
viewBox="0 0 10921.98 10557.92"
 xmlns:xlink="http://www.w3.org/1999/xlink"
 xmlns:xodm="http://www.corel.com/coreldraw/odm/2003">
 <defs>
  <style type="text/css">
   <![CDATA[
    .fil0 {fill:none}
    .fil1 {fill:#2B2A29;fill-rule:nonzero}
   ]]>
  </style>
 </defs>
 <g id="Warstwa_x0020_1">
  <metadata id="CorelCorpID_0Corel-Layer"/>
  <rect class="fil0" x="-0.02" y="4.23" width="10921.99" height="10557.93"/>
  <path class="fil1" d="M8388.28 8145.93c-112.14,21.7 -222.47,43.41 -327.39,63.31 -106.71,21.7 -209.82,47.02 -307.49,74.15 -21.71,7.24 -36.18,19.91 -43.42,37.99 -7.23,18.08 -10.85,32.56 -10.85,47.03 0,14.47 7.24,27.14 21.71,37.98 14.47,10.85 28.94,14.47 43.41,14.47 0,0 1.81,0 9.04,0 7.24,0 10.85,0 10.85,0 99.49,-27.13 202.6,-54.26 307.5,-77.78 106.72,-25.31 208.02,-45.22 307.49,-59.69 21.71,0 37.99,-7.23 47.04,-19.89 10.85,-14.47 12.65,-36.18 5.42,-65.11 0,-5.44 -7.24,-16.29 -19.89,-30.76 -14.48,-14.47 -28.95,-21.7 -43.42,-21.7zm-922.48 233.33c-586.06,184.5 -1110.61,426.88 -1573.66,730.75 -463.04,303.88 -844.71,658.41 -1148.58,1059.96 -7.23,14.47 -10.85,30.75 -10.85,48.84 0,16.27 10.85,32.56 30.75,47.03 7.23,14.47 14.47,21.71 21.7,21.71 7.24,0 10.86,0 10.86,0 7.23,0 16.27,-3.62 27.13,-10.86 9.05,-7.23 18.08,-14.47 25.32,-21.7 289.41,-396.14 660.21,-739.81 1112.41,-1032.82 452.2,-293.03 965.9,-528.17 1537.47,-705.44 21.71,-7.24 36.18,-18.09 41.61,-30.75 7.24,-14.47 10.85,-32.56 10.85,-54.27 0,-19.89 -10.85,-36.16 -30.75,-47.02 -21.71,-10.85 -39.79,-12.67 -54.26,-5.43zm721.7 -3105.7c-148.31,85.01 -273.12,150.13 -376.23,197.16 -103.09,45.21 -235.14,99.48 -397.92,162.79 -27.14,-12.66 -52.47,-19.89 -74.16,-19.89 -21.71,0 -45.22,-7.24 -74.17,-21.71 99.48,-41.6 182.69,-79.59 249.62,-110.34 66.92,-32.56 150.12,-74.16 249.61,-123 -21.71,-27.13 -43.41,-54.26 -65.12,-79.58 -19.89,-25.33 -48.84,-57.89 -83.2,-101.29 0,0 0,0 0,0 0,0 0,0 0,0 19.89,-41.61 36.18,-74.16 47.03,-99.49 10.85,-25.32 23.51,-57.89 36.17,-101.29 -104.91,-21.71 -197.16,-41.61 -274.94,-63.31 -77.77,-21.71 -170.02,-45.23 -274.93,-74.16 27.13,-14.47 50.64,-23.52 68.73,-27.14 18.09,-3.62 39.8,-14.46 68.74,-36.17 162.79,34.37 300.26,63.31 412.4,85.02 113.96,19.89 258.66,41.6 435.92,63.31 12.67,-43.42 23.52,-79.6 30.76,-112.16 7.23,-30.75 18.08,-72.35 32.55,-121.18 -113.95,-14.47 -209.82,-27.13 -285.79,-37.99 -77.77,-9.05 -177.26,-25.32 -296.64,-47.03 75.96,-34.36 139.27,-66.92 184.5,-95.87 45.22,-27.13 101.29,-66.92 164.6,-115.76 -21.71,-43.4 -43.42,-75.96 -63.31,-101.29 -21.71,-23.51 -43.41,-50.65 -63.31,-79.58 -72.35,43.4 -132.04,77.78 -180.88,106.71 -48.84,28.94 -106.72,63.31 -170.03,106.72 28.94,-99.48 52.46,-186.3 74.16,-260.47 21.71,-74.16 47.03,-164.59 74.16,-269.5 -48.83,-14.47 -92.24,-21.71 -126.61,-21.71 -36.17,0 -77.78,-3.62 -126.62,-10.85 -43.4,155.56 -79.58,282.17 -112.14,381.65 -32.57,99.48 -72.35,215.25 -121.19,349.1 -21.71,14.47 -43.41,25.32 -65.12,32.56 -19.89,7.24 -41.6,18.09 -63.31,30.75 21.71,-90.44 39.8,-168.22 54.27,-233.33 12.66,-63.31 34.37,-148.32 63.31,-253.23 -56.07,-7.24 -101.29,-12.67 -132.05,-16.29 -32.55,-3.62 -72.35,-9.04 -123,-16.27 -34.36,135.65 -63.31,245.99 -85.01,334.62 -19.9,88.63 -48.84,195.35 -85.01,323.78 -155.56,63.31 -287.6,112.14 -396.13,148.31 -110.33,34.38 -249.61,66.93 -419.63,94.07 50.64,-112.15 92.24,-209.83 128.42,-291.23 34.36,-81.38 77.77,-188.11 126.61,-321.96 148.32,-50.65 269.51,-92.25 365.38,-128.42 95.87,-34.37 217.05,-88.63 365.37,-159.17 -27.13,-41.6 -48.83,-74.17 -63.31,-94.06 -14.47,-21.71 -32.55,-50.65 -52.45,-85.01 -99.49,48.83 -186.31,88.62 -260.47,121.18 -74.16,32.56 -160.98,61.5 -258.65,90.45 7.24,-21.71 10.85,-39.8 14.47,-52.47 3.62,-14.46 9.04,-36.17 16.28,-65.11 148.32,-63.31 274.94,-121.19 376.23,-173.65 103.1,-54.26 227.9,-126.61 376.23,-217.05 -19.9,-36.18 -41.6,-68.73 -63.31,-95.87 -21.71,-28.93 -45.22,-59.69 -74.16,-95.86 -99.49,70.54 -182.69,126.62 -255.04,170.02 -70.54,41.6 -153.75,88.64 -253.23,137.47 21.71,-70.54 37.98,-128.42 52.45,-175.45 14.48,-45.22 28.95,-103.11 43.41,-173.65 -50.64,-28.93 -90.44,-47.02 -123,-54.26 -30.75,-5.43 -75.97,-12.66 -132.04,-19.9 -14.47,70.54 -30.74,126.62 -47.03,168.23 -18.09,43.4 -34.36,99.47 -48.84,170.02 -56.07,-85.02 -104.9,-155.55 -148.32,-211.63 -41.6,-56.08 -92.24,-126.62 -148.31,-211.63 -41.61,27.13 -79.6,47.03 -110.34,57.88 -32.56,10.85 -70.55,27.13 -112.15,47.03 85.02,113.95 155.56,213.44 211.63,296.64 56.08,85.01 132.04,188.12 222.48,307.5 -7.24,21.71 -12.66,39.8 -14.46,54.27 -3.62,12.65 -9.05,34.36 -16.29,63.31 -63.31,-77.78 -115.76,-142.91 -153.74,-197.16 -39.8,-52.46 -94.06,-117.58 -164.6,-195.36 -43.42,21.71 -79.6,39.8 -112.15,52.45 -30.75,14.48 -65.12,32.57 -99.48,54.27 0,0 0,0 0,0 0,0 0,0 0,0 -57.89,-21.7 -101.29,-37.98 -132.05,-48.83 -32.55,-10.86 -74.16,-21.71 -123,-36.18 -34.36,77.78 -63.31,141.08 -85,189.92 -19.91,50.65 -52.47,110.34 -94.07,180.89 -21.71,-28.95 -37.98,-50.66 -48.83,-63.31 -10.86,-14.47 -23.52,-28.95 -36.18,-43.42 41.61,-104.91 77.78,-197.16 104.92,-274.94 28.93,-77.78 63.3,-180.87 106.71,-307.49 -50.64,-14.47 -90.44,-25.32 -123,-32.56 -30.75,-5.43 -72.35,-16.28 -121.18,-30.74 -34.38,77.77 -61.51,144.69 -79.6,200.76 -18.09,56.09 -43.4,121.2 -79.58,191.74 -34.37,-57.89 -66.93,-103.1 -95.87,-139.27 -27.13,-34.38 -59.69,-77.78 -94.05,-126.62 -43.42,7.23 -79.59,16.28 -112.15,27.13 -30.75,10.85 -68.74,19.89 -110.34,25.33 41.6,57.87 75.98,103.09 99.49,139.27 25.32,34.36 59.69,77.78 101.29,126.62 -119.38,-41.61 -215.25,-79.59 -285.79,-112.15 -70.55,-30.75 -166.41,-72.36 -285.79,-121.19 -14.47,28.94 -27.14,50.65 -37.99,68.74 -10.84,18.09 -19.89,41.6 -27.13,68.73 162.8,70.54 298.45,128.43 408.79,175.45 110.34,45.23 246,97.68 408.79,153.75 19.9,27.13 34.37,47.03 41.6,57.88 7.24,10.85 18.09,27.14 32.56,47.03 -113.95,-41.6 -208.01,-75.97 -282.17,-99.48 -74.16,-25.33 -162.8,-57.88 -269.52,-101.3 -14.46,21.71 -25.31,43.42 -32.55,63.31 -7.23,21.71 -19.9,43.42 -41.6,63.31 162.78,70.54 294.83,126.62 397.93,164.6 101.3,39.8 231.53,86.82 385.28,142.9 85.01,128.42 157.36,229.71 218.86,307.49 59.69,77.78 132.04,173.65 217.06,285.79 -148.33,-56.07 -296.65,-113.96 -444.97,-173.65 -148.32,-59.69 -293.02,-130.23 -435.92,-206.19 -70.55,-106.73 -126.62,-195.36 -168.22,-265.9 -43.4,-70.55 -99.48,-159.17 -170.02,-264.08 -48.85,0 -88.63,0 -117.58,0 -27.12,0 -66.92,0 -115.76,0 48.84,70.53 88.64,132.04 115.76,184.49 28.95,52.46 68.73,119.38 117.58,197.16 -28.94,-14.47 -50.65,-27.13 -68.74,-37.98 -18.09,-10.85 -45.22,-19.9 -79.58,-27.13 -77.78,-119.39 -142.9,-215.25 -197.16,-285.79 -52.46,-70.55 -121.2,-166.41 -206.21,-285.79 -41.6,0 -77.77,0 -104.91,0 -28.93,0 -65.11,0 -106.71,0 48.83,77.77 94.05,142.89 132.04,195.34 39.79,54.27 83.2,115.77 133.85,186.32 -77.78,-36.18 -141.09,-66.93 -186.31,-95.87 -45.22,-28.95 -108.53,-66.93 -186.3,-115.76 -12.66,14.47 -25.33,27.12 -36.18,41.6 -10.86,14.47 -27.13,32.56 -47.03,52.45 77.78,43.42 141.09,79.58 189.93,112.14 48.83,32.57 110.33,68.74 180.87,110.35 -106.71,-12.67 -195.34,-27.14 -265.89,-41.61 -70.54,-14.47 -159.17,-34.37 -264.08,-63.3 14.47,34.36 28.94,63.3 47.03,85 18.08,19.91 34.36,48.84 47.02,85.02 162.8,34.36 296.65,61.5 397.94,79.59 103.1,16.28 231.52,28.93 387.08,36.17 36.18,21.71 61.5,37.98 79.59,47.03 18.08,10.86 39.79,23.51 68.74,37.98 -99.49,0 -182.69,-1.8 -249.62,-5.42 -66.92,-3.62 -150.14,-12.67 -247.81,-27.14 27.13,36.18 48.84,65.13 63.31,85.02 14.47,21.71 30.75,50.65 52.45,85.01 141.09,14.48 262.29,23.51 359.96,27.13 99.48,3.62 218.86,5.43 361.76,5.43 148.32,70.55 296.64,137.47 444.97,200.78 148.31,63.31 300.25,130.24 455.81,200.78 -170.03,14.46 -311.12,21.7 -425.07,21.7 -112.14,0 -253.23,-3.62 -423.26,-10.86 -162.79,-85 -294.83,-155.55 -397.94,-211.62 -103.09,-56.07 -227.9,-133.85 -376.23,-233.34 -14.47,14.48 -30.74,27.13 -47.02,37.99 -18.09,9.05 -34.37,25.32 -48.83,47.03 106.71,63.31 195.34,117.56 265.88,164.6 70.55,45.22 166.42,99.48 285.8,164.6 -34.38,0 -61.51,-1.81 -79.6,-5.43 -18.09,-3.61 -39.78,-5.43 -68.73,-5.43 -148.32,-85.01 -289.41,-170.02 -423.26,-255.03 -135.65,-85.02 -269.51,-173.65 -403.36,-264.09 -14.47,12.66 -28.94,25.33 -41.6,36.18 -14.47,10.85 -28.94,19.89 -43.41,27.13 106.72,92.25 197.16,160.98 274.94,206.2 77.78,45.22 177.25,104.91 298.45,175.45 -77.78,-14.47 -146.51,-27.13 -202.58,-37.98 -56.08,-10.86 -115.77,-28.95 -179.07,-57.88 12.65,28.93 28.93,54.26 47.02,79.59 18.09,25.32 32.56,54.26 47.03,90.43 70.54,27.14 135.66,47.03 191.73,57.89 56.07,10.85 119.38,23.51 189.92,36.18 -48.83,36.17 -92.24,68.73 -132.04,95.86 -37.98,28.94 -72.35,47.03 -101.29,54.26 43.41,41.6 81.39,75.97 117.57,99.49 34.36,25.32 81.4,52.46 137.47,79.58 77.78,-34.36 139.28,-72.34 186.3,-110.34 45.22,-39.78 99.49,-90.43 162.8,-153.74 36.18,7.23 61.49,12.66 79.58,14.47 18.09,3.62 41.6,5.42 68.74,5.42 -27.14,50.65 -56.07,86.83 -83.21,112.15 -28.93,25.32 -61.49,57.88 -95.86,101.3 48.84,34.36 92.24,61.49 126.62,79.58 36.17,16.28 81.39,43.42 137.46,77.78 57.88,-63.31 103.1,-115.76 137.47,-157.36 36.18,-43.42 77.78,-103.11 128.43,-180.89 175.45,7.24 320.15,10.86 434.1,10.86 112.16,0 255.05,-10.86 423.26,-32.56 -63.3,106.72 -113.94,188.12 -153.74,244.19 -37.98,56.07 -88.63,126.61 -153.75,211.63 -155.55,-7.24 -287.6,-18.09 -396.13,-30.76 -110.33,-14.46 -242.38,-36.17 -397.94,-65.11 14.48,28.94 28.95,56.07 41.61,79.58 14.47,25.33 32.56,52.46 54.26,79.6 119.38,28.93 218.87,48.83 296.65,59.69 77.78,9.04 171.83,18.09 285.78,25.31 -7.22,21.71 -16.27,34.38 -27.13,37.99 -10.85,3.62 -21.7,12.66 -36.18,25.32 -170.02,-12.66 -312.92,-27.13 -430.48,-41.6 -115.77,-14.47 -255.05,-43.41 -417.83,-85.01 21.7,36.17 39.78,63.3 52.45,85.01 14.47,21.71 28.94,48.84 43.41,85.01 126.61,21.71 229.72,39.8 307.5,57.89 77.77,18.09 175.45,37.98 296.64,57.88 -36.18,28.94 -66.92,52.45 -95.87,68.74 -28.94,18.09 -63.31,37.98 -106.72,59.69 43.41,34.36 79.59,61.49 112.14,79.58 32.57,16.27 65.13,39.8 101.31,68.74 41.6,-21.71 77.76,-43.42 104.9,-65.12 28.94,-19.9 66.93,-48.84 117.57,-83.2 19.9,77.78 37.98,142.89 52.45,195.34 14.48,52.46 28.95,113.96 41.61,186.31 43.41,12.67 79.59,19.9 112.15,19.9 32.55,0 68.73,0 110.33,0 -27.13,-104.92 -41.6,-193.54 -41.6,-264.08 0,-70.55 -34.37,-166.42 -106.72,-285.8 7.23,-14.47 14.47,-25.32 21.7,-32.56 7.24,-7.23 14.47,-18.09 21.71,-32.56 63.31,70.54 103.11,133.85 121.19,186.31 18.08,52.46 34.37,117.57 48.84,195.35 48.84,0 86.82,0 115.76,0 28.95,0 66.93,0 117.57,0 -14.46,-97.67 -45.22,-184.5 -90.44,-258.66 -47.03,-74.15 -112.14,-164.6 -197.16,-271.31 70.55,-83.21 126.62,-157.37 164.6,-222.49 39.8,-63.3 86.83,-148.32 142.9,-253.23 92.25,126.62 166.4,231.53 222.48,312.92 57.88,79.59 128.43,184.5 211.63,311.11 -63.31,85.02 -130.24,153.76 -200.78,208.01 -70.54,52.46 -155.55,110.34 -253.23,173.65 34.37,28.95 63.31,48.84 83.21,59.69 21.71,9.04 50.64,28.95 85.02,57.88 77.76,-50.64 139.27,-92.24 186.3,-126.62 45.22,-36.17 110.33,-81.38 195.35,-139.27 0,14.47 0,30.75 0,48.84 0,16.28 -3.62,32.56 -10.86,47.03 -119.38,92.25 -213.43,166.4 -280.36,222.48 -66.92,56.08 -146.51,123 -238.76,200.77 36.17,21.71 59.69,39.8 74.16,54.27 14.48,14.47 39.79,27.13 74.17,41.6 63.3,-48.84 119.38,-94.06 164.59,-132.04 45.22,-39.8 108.53,-90.45 186.31,-153.75 -7.24,48.84 -12.67,90.44 -16.29,121.19 -3.61,32.56 -9.04,68.73 -16.27,112.14 43.41,-7.23 74.16,-12.65 95.87,-16.27 21.71,-3.62 48.83,-9.05 85.01,-16.29 7.24,-41.6 14.47,-79.58 25.32,-110.33 10.85,-32.56 19.9,-72.35 27.14,-122.99 56.07,43.4 103.09,75.96 137.47,101.29 36.17,25.32 74.16,50.65 117.56,79.58 27.13,-21.71 54.27,-41.6 79.6,-63.31 23.51,-21.71 57.87,-50.64 99.47,-85.01 -56.07,-43.41 -108.52,-79.59 -159.16,-112.15 -48.85,-30.74 -119.39,-81.4 -211.63,-153.74 0,-12.66 3.61,-28.95 10.85,-47.04 7.23,-18.07 10.85,-32.55 10.85,-47.02 63.31,41.6 115.76,74.16 159.17,94.06 41.6,21.7 94.06,43.41 159.18,65.12 27.12,-28.94 56.07,-54.27 85.01,-74.16 27.13,-21.71 59.69,-47.03 94.06,-74.16 -77.78,-43.42 -155.56,-79.6 -233.34,-112.15 -77.77,-32.56 -193.54,-75.97 -349.09,-132.05 -92.25,-128.42 -168.22,-231.52 -227.91,-312.92 -59.7,-81.39 -135.66,-186.3 -227.92,-312.92 155.56,63.31 307.5,121.2 455.83,170.03 148.32,48.84 296.63,95.87 444.96,137.47 77.78,113.95 132.04,208.01 164.59,285.78 30.76,77.78 23.53,170.03 -27.12,276.76 43.41,-7.24 79.58,-14.48 112.14,-21.71 30.75,-7.24 68.74,-18.09 110.34,-32.56 36.18,-70.55 56.07,-132.04 63.31,-184.49 7.23,-54.27 -12.67,-123 -63.31,-206.21 28.94,5.43 54.26,12.66 74.16,19.9 21.71,7.24 47.02,14.46 74.16,21.7 92.24,119.38 101.29,218.86 27.13,296.64 -74.16,77.78 -139.27,170.03 -195.35,274.94 41.61,-12.67 75.97,-27.13 99.48,-41.6 25.33,-14.47 57.89,-28.94 101.29,-43.41 48.85,-77.78 88.64,-139.28 115.77,-184.49 28.94,-45.23 66.92,-112.16 117.57,-195.36 21.71,12.66 41.6,25.33 63.31,36.18 21.71,10.85 37.98,27.13 52.45,47.02 43.42,-34.36 79.59,-66.92 112.15,-94.05 30.75,-28.95 72.36,-61.5 121.19,-95.87 -14.47,-14.46 -28.94,-27.13 -47.03,-37.99 -18.09,-9.03 -61.49,-28.94 -132.04,-57.87 104.91,-41.6 193.54,-79.59 264.09,-110.34 70.54,-32.56 159.16,-79.58 264.08,-142.89 -41.61,-50.65 -75.97,-86.83 -104.92,-112.15 -28.93,-25.32 -52.45,-54.27 -74.16,-90.44zm-2554.01 -349.09c-92.25,-121.2 -166.41,-220.69 -222.48,-302.08 -56.08,-81.39 -128.43,-186.31 -211.64,-312.92 48.84,-99.48 90.44,-182.69 126.62,-249.62 34.37,-66.92 81.4,-157.36 137.47,-269.5 92.25,112.14 166.41,204.39 222.48,274.93 56.08,70.55 126.62,162.8 211.64,276.75 -48.85,126.61 -92.26,229.72 -126.62,307.5 -36.18,77.78 -81.4,168.21 -137.47,274.94zm1282.43 551.68c-184.5,-50.65 -334.63,-94.07 -450.39,-133.85 -117.56,-37.99 -267.7,-86.83 -450.39,-142.91 168.22,-34.36 309.31,-70.54 417.83,-104.9 110.34,-36.18 242.38,-85.02 397.94,-148.33 162.79,48.84 294.83,85.02 397.94,110.34 101.29,25.33 231.52,57.89 387.08,101.29 -135.66,77.78 -249.62,137.47 -345.48,179.07 -95.87,43.42 -213.44,88.64 -354.53,139.29zm3773.15 539.01c70.55,-77.77 108.53,-166.4 115.76,-269.51 7.24,-103.1 -21.7,-195.34 -85.01,-280.36l-3188.91 -4579.87c-14.47,-19.9 -37.98,-41.6 -68.73,-63.31 -32.56,-19.89 -63.3,-30.75 -90.44,-30.75 -14.46,0 -25.32,0 -32.55,0 -7.24,0 -10.86,0 -10.86,0 -19.9,0 -43.41,3.62 -68.74,10.86 -23.51,5.42 -50.64,16.27 -79.58,30.74 -401.56,303.89 -808.53,573.39 -1219.13,804.92 -401.55,226.1 -806.72,417.83 -1211.9,573.39 -406.97,155.55 -812.15,271.32 -1213.7,349.1 -396.12,77.78 -795.86,117.56 -1197.42,117.56 -311.12,0 -625.84,-25.31 -944.19,-74.16 -318.35,-50.64 -633.08,-121.18 -942.39,-211.62 -14.47,-7.24 -27.13,-12.67 -37.98,-16.29 -10.85,-3.61 -23.51,-5.42 -36.18,-5.42 -43.4,0 -81.4,9.04 -117.56,25.33 -34.37,18.08 -63.31,45.22 -85.02,79.58 -34.36,43.42 -54.27,90.44 -57.89,142.89 -3.61,54.27 9.05,101.3 38,144.71l730.75 1134.12 -350.91 434.1c-41.61,56.08 -65.12,123 -68.74,200.78 -3.61,77.78 16.28,148.32 59.69,211.63l3221.47 5607.28c14.47,27.12 32.56,48.83 57.89,63.3 25.31,14.46 54.26,21.7 90.43,21.7 0,0 0,0 0,0 0,0 0,0 0,0 34.37,0 65.12,-7.24 90.44,-21.7 23.52,-14.47 43.42,-36.18 57.89,-63.3 162.78,-240.58 356.32,-466.68 582.43,-678.31 226.1,-211.62 473.9,-410.6 741.6,-593.28 269.52,-184.5 555.3,-350.91 859.18,-499.23 303.88,-155.56 618.61,-293.03 942.39,-412.41 184.5,-43.4 361.75,-90.44 529.97,-142.89 170.03,-54.27 343.68,-119.38 519.13,-197.16 368.99,-97.67 736.17,-175.45 1103.36,-233.34 367.19,-56.07 716.28,-94.05 1049.11,-115.76 41.6,0 79.58,-10.86 110.33,-32.55 32.56,-19.91 56.07,-48.85 70.54,-83.21 19.91,-28.95 28.95,-63.31 25.33,-101.29 -3.62,-39.8 -16.28,-75.97 -36.18,-112.15l-370.8 -604.13c90.44,-83.22 179.07,-170.03 264.09,-258.67 85,-88.63 170.02,-179.07 255.03,-271.32zm-6782.98 4124.06l-3169.01 -5511.4c-14.48,-28.94 -19.9,-52.45 -16.28,-74.16 3.62,-21.71 9.04,-43.42 16.28,-63.31l307.5 -361.76 2331.53 3604.93c27.13,41.6 57.88,75.97 90.44,99.49 30.75,25.32 68.73,48.84 110.33,68.73 410.61,135.66 810.35,235.14 1202.85,302.07 392.52,66.92 775.98,101.29 1150.4,101.29 48.83,0 101.3,-1.8 153.75,-5.42 52.46,-3.62 106.71,-9.05 164.6,-16.29 -481.14,240.58 -924.29,515.51 -1331.28,821.2 -405.16,307.5 -743.41,652.97 -1011.11,1034.63zm6401.33 -2904.92c-198.97,14.47 -399.75,34.36 -604.15,57.87 -204.38,25.33 -417.83,56.07 -636.69,90.45 162.79,-97.68 318.35,-204.4 466.67,-318.35 148.33,-112.15 293.02,-235.15 434.11,-370.8l340.06 540.83zm-2172.37 359.94c-177.26,50.65 -350.91,101.3 -519.12,153.76 -170.03,54.25 -343.67,115.76 -520.94,186.3 -189.92,41.6 -383.46,72.35 -577,90.44 -193.54,18.09 -394.32,25.32 -598.72,25.32 -359.94,0 -728.93,-32.56 -1106.98,-99.48 -378.03,-66.93 -768.73,-160.98 -1172.1,-282.18 -14.46,-5.42 -25.32,-14.47 -36.17,-25.31 -10.85,-10.86 -19.9,-19.91 -27.14,-27.14l-3199.76 -4992.28c323.78,99.48 649.37,173.64 974.94,222.49 323.78,50.64 649.36,74.15 974.95,74.15 408.79,0 823,-37.98 1239.03,-115.76 410.59,-77.78 823,-195.35 1240.83,-354.52 416.02,-159.18 833.86,-356.34 1249.87,-587.86 417.84,-233.33 837.48,-510.09 1260.74,-826.63l3190.72 4556.37c21.7,36.17 32.55,75.96 32.55,121.18 0,47.04 -18.09,83.21 -54.26,112.15 -345.48,410.6 -714.48,761.51 -1106.99,1054.53 -392.51,293.02 -806.72,531.78 -1244.45,714.47zm-3476.5 -5923.8c0,0 0,0 0,0 0,0 0,0 0,0l74.16 -10.86c48.83,-14.47 90.44,-23.51 121.18,-30.74 32.56,-7.24 72.36,-21.71 121.2,-43.42 21.7,-7.23 36.18,-18.09 43.41,-30.74 7.23,-14.48 10.84,-32.57 10.84,-54.27 -7.22,-12.66 -18.07,-23.51 -32.55,-30.75 -14.47,-7.24 -30.75,-10.85 -52.45,-10.85 -48.84,14.47 -90.45,25.32 -121.19,30.74 -32.57,7.24 -72.35,18.09 -123,32.56l-52.46 21.71c-21.7,0 -37.98,9.04 -48.83,25.33 -9.05,18.08 -10.86,34.36 -3.62,48.83 0,14.48 5.42,25.33 19.89,36.17 14.47,10.86 28.95,16.29 43.42,16.29zm656.59 -180.89c0,0 1.81,0 5.43,0 3.62,0 5.42,0 5.42,0 325.59,-112.14 634.89,-256.85 933.34,-434.1 296.64,-175.45 627.65,-416.03 994.84,-719.91 21.71,-21.7 52.45,-37.98 90.44,-48.84 39.79,-9.04 72.36,-10.85 101.29,-5.42 34.37,14.47 68.74,28.95 99.48,43.41 32.57,14.47 56.08,34.37 70.55,63.3l698.19 996.66c14.47,21.7 30.76,30.74 48.85,30.74 16.27,0 36.16,-3.62 57.87,-9.04 14.47,-7.23 23.51,-21.7 25.33,-43.41 3.61,-21.71 -1.82,-41.6 -14.47,-63.31l-700.01 -996.64c-28.94,-41.61 -66.93,-79.59 -117.58,-110.34 -48.83,-32.56 -97.67,-52.46 -148.31,-59.69 -48.83,-5.42 -99.49,-1.8 -153.75,10.85 -52.46,14.47 -99.48,39.8 -142.89,74.16 -359.96,303.88 -683.73,540.83 -969.52,710.86 -285.79,170.02 -587.86,307.49 -906.21,412.4 -14.47,7.24 -23.51,18.09 -30.75,32.56 -7.23,14.47 -10.85,32.56 -10.85,52.46 7.23,21.7 14.47,37.98 21.71,48.83 5.42,10.86 19.89,14.47 41.6,14.47z"/>
 </g>
</svg>
