<?xml version="1.0" encoding="UTF-8"?>
<!DOCTYPE svg PUBLIC "-//W3C//DTD SVG 1.1//EN" "http://www.w3.org/Graphics/SVG/1.1/DTD/svg11.dtd">
<!-- Creator: CorelDRAW 2020 (64-Bit) -->
<svg xmlns="http://www.w3.org/2000/svg" xml:space="preserve" width="109.22mm" height="105.579mm" version="1.1" style="shape-rendering:geometricPrecision; text-rendering:geometricPrecision; image-rendering:optimizeQuality; fill-rule:evenodd; clip-rule:evenodd"
viewBox="0 0 10921.98 10557.92"
 xmlns:xlink="http://www.w3.org/1999/xlink"
 xmlns:xodm="http://www.corel.com/coreldraw/odm/2003">
 <defs>
  <style type="text/css">
   <![CDATA[
    .fil0 {fill:none}
    .fil1 {fill:#2B2A29;fill-rule:nonzero}
   ]]>
  </style>
 </defs>
 <g id="Warstwa_x0020_1">
  <metadata id="CorelCorpID_0Corel-Layer"/>
  <rect class="fil0" x="-0.02" y="4.23" width="10921.99" height="10557.93"/>
  <path class="fil1" d="M10402.82 356.28c-20.73,-13.82 -41.48,-22.46 -62.22,-25.92 -19.02,-3.46 -43.21,-5.19 -70.86,-5.19 -12.1,0 -27.66,1.73 -44.94,5.19 -17.29,3.46 -32.84,8.64 -44.94,15.56l-3017.85 1417.31 -3211.43 0c-13.83,0 -27.66,0 -44.95,0 -17.27,0 -32.83,6.91 -46.66,20.74l-3290.94 1427.69c-39.75,20.74 -74.32,51.85 -101.98,91.61 -25.92,41.48 -39.75,84.68 -39.75,131.35l0 6704.6c0,41.48 10.37,79.51 31.11,117.53 19.02,36.3 46.67,69.15 81.24,95.07 19.01,13.82 39.75,22.47 60.5,25.93 19.01,3.45 43.21,5.18 70.86,5.18 12.09,0 27.65,-1.73 44.94,-5.18 17.28,-3.46 32.84,-8.65 44.93,-15.55l3240.82 -1477.82 3190.69 0c20.74,0 38.03,-1.72 50.12,-5.18 13.83,-3.46 31.12,-8.65 51.86,-15.56l3057.6 -1367.19c41.48,-20.74 74.32,-50.13 101.98,-91.6 25.92,-39.76 39.75,-88.16 39.75,-141.74l0 -6714.97c6.92,-39.76 1.73,-76.05 -15.56,-105.43 -15.55,-31.11 -41.48,-58.77 -74.32,-86.43zm-133.08 6906.83l-2936.62 1317.07 0 -375.08c0,-27.65 -10.37,-53.57 -29.38,-81.23 -20.74,-25.93 -51.85,-39.75 -91.61,-39.75 -41.48,0 -72.59,12.09 -96.79,34.57 -22.47,24.19 -34.56,53.57 -34.56,86.41l0 414.82 -2998.84 0 0 -890.13c0,-34.57 -12.1,-62.22 -34.57,-86.43 -24.2,-24.19 -55.31,-36.29 -96.79,-36.29 -39.76,0 -70.87,10.37 -91.61,31.11 -19.01,20.74 -29.39,50.12 -29.39,91.61l0 961.01 -3159.57 1448.42 0 -6704.6 3159.57 -1386.2 0 910.89c0,32.84 10.38,63.95 29.39,91.6 20.74,25.93 51.85,39.76 91.61,39.76 41.48,0 72.59,-12.1 96.79,-34.57 22.47,-24.2 34.57,-57.04 34.57,-96.79l0 -952.37c0,0 0,0 0,0 0,0 0,0 0,0l3017.84 0 0 414.83c0,27.65 10.38,55.31 31.11,81.23 20.75,27.66 50.13,41.49 91.61,41.49 39.76,0 72.6,-12.11 95.06,-36.3 24.21,-24.2 36.3,-51.86 36.3,-86.42l0 -464.96 2915.88 -1408.67 0 6714.97zm-3057.61 -821.01c-34.57,0 -63.95,10.38 -91.6,31.11 -25.93,20.75 -39.75,50.13 -39.75,91.61l0 829.65c0,34.57 12.09,63.95 34.56,91.6 24.2,27.67 55.31,39.76 96.79,39.76 39.76,0 70.87,-10.37 91.61,-34.57 19.01,-24.19 29.38,-55.3 29.38,-96.79l0 -829.65c0,-41.48 -13.83,-70.86 -39.75,-91.61 -27.65,-20.73 -55.31,-31.11 -81.24,-31.11zm0 -1659.29c-34.57,0 -63.95,8.63 -91.6,29.38 -25.93,20.74 -39.75,50.13 -39.75,91.61l0 829.65c0,34.57 12.09,63.95 34.56,91.6 24.2,27.65 55.31,41.48 96.79,41.48 39.76,0 70.87,-12.1 91.61,-36.29 19.01,-24.2 29.38,-55.31 29.38,-96.79l0 -829.65c0,-41.48 -13.83,-70.87 -39.75,-91.61 -27.65,-20.75 -55.31,-29.38 -81.24,-29.38zm0 -1661.02c-34.57,0 -63.95,10.36 -91.6,34.56 -25.93,24.2 -39.75,55.31 -39.75,96.79l0 810.64c0,32.84 12.09,62.22 34.56,84.69 24.2,24.2 55.31,36.29 96.79,36.29 39.76,0 70.87,-10.36 91.61,-31.11 19.01,-19 29.38,-50.11 29.38,-89.87l0 -831.38c0,-32.84 -13.83,-60.5 -39.75,-81.23 -27.65,-20.75 -55.31,-29.38 -81.24,-29.38zm-3261.55 667.17c-27.66,0 -53.58,12.1 -81.24,36.29 -25.93,24.2 -39.76,55.32 -39.76,96.79l0 950.64c0,34.57 10.38,63.96 29.39,91.61 20.74,27.65 51.85,39.76 91.61,39.76 41.48,0 72.59,-10.38 96.79,-34.57 22.47,-24.21 34.57,-55.32 34.57,-96.8l0 -950.64c0,-34.57 -12.1,-65.68 -39.75,-91.6 -27.66,-27.65 -57.05,-41.48 -91.61,-41.48zm0 1915.1c-27.66,0 -53.58,12.1 -81.24,34.58 -25.93,24.19 -39.76,55.3 -39.76,96.78l0 952.37c0,32.84 10.38,63.95 29.39,89.87 20.74,27.67 51.85,41.49 91.61,41.49 41.48,0 72.59,-12.1 96.79,-36.3 22.47,-22.47 34.57,-55.3 34.57,-95.06l0 -952.37c0,-34.56 -12.1,-63.95 -39.75,-91.61 -27.66,-25.92 -57.05,-39.75 -91.61,-39.75zm-719.03 -2825.99l-314.57 141.73c-25.93,13.83 -43.21,31.11 -50.13,50.13 -6.91,20.74 -6.91,41.48 0,62.22 6.92,19.02 19.01,32.84 36.3,39.75 15.55,6.92 31.11,10.38 44.94,10.38 6.92,0 12.09,0 15.55,0 3.46,0 8.64,0 15.56,0l323.21 -141.73c20.75,-6.92 36.3,-20.75 44.94,-41.49 10.38,-19.01 8.65,-43.21 -3.45,-70.86 -6.92,-25.93 -20.74,-43.21 -41.49,-50.13 -20.73,-6.91 -43.21,-6.91 -70.86,0zm-698.28 304.21l-1479.54 667.17c-25.94,13.83 -43.22,31.12 -50.13,51.85 -6.92,20.74 -6.92,39.76 0,60.5 6.91,20.74 17.29,32.85 31.11,39.75 12.1,6.92 29.38,10.37 50.13,10.37 6.91,0 12.1,0 15.55,0 3.45,0 8.64,0 13.83,0l1479.54 -667.17c27.65,-6.91 43.21,-22.47 50.12,-46.67 6.92,-24.19 6.92,-44.94 0,-65.68 -6.91,-27.66 -19.01,-43.21 -39.75,-50.12 -20.75,-6.92 -44.94,-6.92 -70.86,0zm7098.67 3878.61c6.91,0 12.1,0 15.56,0 3.46,0 8.64,0 15.56,0l273.08 -131.37c27.66,-6.92 43.21,-20.74 50.13,-41.48 6.92,-19.01 6.92,-43.22 0,-70.87 -6.92,-19.01 -20.74,-34.57 -44.94,-44.94 -24.2,-10.36 -44.94,-8.64 -65.68,5.19l-273.09 120.99c-27.66,6.92 -44.94,22.47 -51.85,46.67 -6.92,22.47 -6.92,44.93 0,65.68 20.74,19.01 36.3,32.84 46.66,39.75 10.37,6.92 20.75,10.38 34.57,10.38zm-1994.61 800.26c6.91,13.82 19.02,24.2 34.57,34.57 17.28,10.36 32.83,15.55 46.67,15.55 6.91,0 12.1,0 15.55,0 3.45,0 6.91,0 13.83,0l1489.91 -658.53c19.01,-6.91 34.57,-20.74 44.94,-44.94 10.36,-24.2 12.09,-44.94 5.18,-65.69 -13.82,-27.65 -31.11,-44.93 -50.12,-50.11 -20.75,-6.92 -44.94,-6.92 -70.86,-1.73l-1479.54 658.52c-13.84,13.84 -25.94,31.12 -39.76,51.86 -13.83,19.02 -17.29,39.76 -10.37,60.5zm-456.31 -6867.07l172.84 0 0 183.21c0,12.1 3.46,22.47 10.37,29.39 6.92,6.91 19.02,10.37 39.76,10.37 13.83,0 24.2,-3.46 31.11,-10.37 6.91,-6.92 10.37,-17.29 10.37,-29.39l0 -183.21 181.48 0c13.84,0 24.21,-3.46 31.11,-10.37 6.92,-6.92 10.38,-15.56 10.38,-29.38 0,-20.75 -3.46,-34.57 -10.38,-41.49 -6.9,-6.91 -17.27,-10.37 -31.11,-10.37l-181.48 0 0 -171.11c0,-20.75 -3.46,-34.58 -10.37,-41.48 -6.91,-5.19 -17.28,-8.65 -31.11,-8.65 -20.74,0 -36.3,3.46 -50.13,13.83 -13.82,10.37 -20.74,22.47 -20.74,36.3l0 171.11 -171.11 0c-13.83,0 -25.93,3.46 -36.29,10.37 -10.38,6.92 -15.56,20.74 -15.56,41.49 0,13.82 6.91,22.46 20.73,29.38 13.83,6.91 31.12,10.37 50.13,10.37zm1144.23 -485.7l172.84 0 0 172.85c0,12.11 5.18,24.2 15.56,34.57 10.37,10.37 20.73,15.56 34.56,15.56 13.83,0 25.93,-5.19 36.3,-15.56 10.37,-10.37 15.56,-22.46 15.56,-34.57l0 -172.85 171.11 0c13.83,0 25.92,-5.17 36.3,-15.55 10.37,-10.37 15.56,-22.47 15.56,-34.56 0,-20.75 -5.19,-34.57 -15.56,-41.49 -10.38,-6.91 -22.47,-10.37 -36.3,-10.37l-171.11 0 0 -171.11c0,-20.75 -5.19,-34.57 -15.56,-41.48 -10.37,-6.92 -22.47,-10.38 -36.3,-10.38 -13.83,0 -24.19,3.46 -34.56,10.38 -10.38,6.91 -15.56,20.73 -15.56,41.48l0 171.11 -172.84 0c-12.11,0 -24.2,3.46 -34.57,10.37 -10.37,6.92 -15.56,20.74 -15.56,41.49 0,12.09 6.91,24.19 20.75,34.56 13.82,10.38 22.46,15.55 29.38,15.55z"/>
 </g>
</svg>
