<?xml version="1.0" encoding="UTF-8"?>
<!DOCTYPE svg PUBLIC "-//W3C//DTD SVG 1.1//EN" "http://www.w3.org/Graphics/SVG/1.1/DTD/svg11.dtd">
<!-- Creator: CorelDRAW 2020 (64-Bit) -->
<svg xmlns="http://www.w3.org/2000/svg" xml:space="preserve" width="109.22mm" height="105.579mm" version="1.1" style="shape-rendering:geometricPrecision; text-rendering:geometricPrecision; image-rendering:optimizeQuality; fill-rule:evenodd; clip-rule:evenodd"
viewBox="0 0 10921.98 10557.92"
 xmlns:xlink="http://www.w3.org/1999/xlink"
 xmlns:xodm="http://www.corel.com/coreldraw/odm/2003">
 <defs>
  <style type="text/css">
   <![CDATA[
    .fil0 {fill:none}
    .fil1 {fill:#2B2A29;fill-rule:nonzero}
   ]]>
  </style>
 </defs>
 <g id="Warstwa_x0020_1">
  <metadata id="CorelCorpID_0Corel-Layer"/>
  <rect class="fil0" x="-0.02" y="4.23" width="10921.99" height="10557.93"/>
  <path class="fil1" d="M5801.59 6964.75l-313.84 146.23 -146.23 -312.06c-21.4,-35.67 -44.58,-58.85 -73.11,-69.55 -28.53,-8.92 -58.84,-7.13 -94.51,5.35 -33.88,14.27 -57.06,37.45 -67.76,69.54 -10.7,30.32 -8.92,60.63 5.35,87.38l146.22 313.85 -313.84 146.22c-33.88,21.4 -57.07,46.36 -67.76,78.46 -10.7,32.1 -8.92,60.63 5.34,89.16 7.14,28.53 21.4,46.36 42.8,57.06 19.62,10.7 44.58,16.05 73.11,16.05 5.35,0 12.49,-1.78 19.62,-5.35 7.13,-3.56 14.26,-8.91 21.4,-16.05l313.84 -146.22 146.22 313.85c14.27,21.39 30.32,35.66 51.72,46.36 21.4,10.7 42.79,16.05 62.41,16.05 14.27,0 24.97,0 32.1,0 7.13,0 14.26,-7.13 21.4,-21.4 33.88,-12.48 57.06,-35.66 67.76,-67.76 8.91,-30.32 10.7,-60.63 5.35,-89.16l-156.92 -281.75 312.06 -146.22c35.66,-19.62 58.84,-44.58 69.54,-73.11 8.92,-26.75 10.7,-58.85 3.57,-94.51 -19.62,-33.88 -44.58,-55.28 -73.11,-62.42 -26.75,-7.13 -58.85,-7.13 -92.73,0zm4356.38 -4491.9l-4805.75 -335.24c0,0 0,0 0,0 0,0 0,0 0,0 0,0 0,0 0,0 0,0 0,0 0,0 0,0 0,0 0,0 0,0 0,0 0,0 0,0 -1.78,0 -5.35,0 -3.56,0 -5.35,0 -5.35,0l-5025.08 658c-35.66,0 -64.19,14.27 -83.81,42.8 -21.4,28.53 -32.1,51.71 -32.1,73.11l0 3939.11c0,14.26 5.35,28.53 16.05,46.36 10.7,17.83 23.18,33.88 35.67,48.15 7.13,7.13 17.83,12.48 32.09,19.61 14.27,7.14 32.1,10.7 51.72,10.7 0,0 1.78,0 5.35,0 3.56,0 5.35,0 5.35,0l2195.13 -376.25 -460.07 1066.35c-7.14,28.54 -7.14,53.5 0,78.47 7.13,24.96 17.83,42.79 30.31,57.06 14.27,14.26 33.88,24.96 58.85,32.1 23.18,7.13 49.93,3.56 76.68,-10.7l1975.79 -888.04 438.67 1587.05c7.13,21.4 16.05,39.24 26.75,53.5 10.7,12.48 21.4,23.18 35.66,30.32 14.27,0 24.97,3.56 32.1,10.69 7.13,7.14 14.27,10.7 19.62,10.7 7.13,0 16.04,-1.78 26.74,-5.35 10.7,-3.56 19.62,-8.91 26.75,-16.04l3635.96 -1597.76c26.75,-14.26 48.15,-33.88 62.42,-57.06 14.26,-24.97 14.26,-55.28 0,-89.16l-156.93 -543.88 1754.68 146.22c14.27,0 30.31,-3.56 48.15,-10.7 17.83,-7.13 35.66,-14.26 57.06,-19.61 14.27,-7.14 23.18,-19.62 26.75,-37.45 3.56,-17.83 5.35,-37.45 5.35,-57.06l0 -3741.17c7.13,-33.88 -1.79,-62.42 -26.75,-83.81 -24.97,-19.62 -49.93,-33.89 -78.46,-41.02zm-4702.32 -73.11l1556.74 103.43 -1556.74 690.1 0 -793.53zm-5025.08 4293.97l0 -3668.06 4775.43 -625.91 0 909.44 -1683.35 741.81c0,0 0,0 0,0 0,0 0,0 0,0 -12.48,5.35 -24.96,14.27 -35.66,24.97 -10.7,10.7 -19.62,23.18 -26.75,37.44l-30.32 62.42 -2425.16 333.46c-26.75,7.13 -51.71,23.18 -73.11,48.14 -19.62,23.18 -26.75,53.5 -21.4,89.16 0,26.75 12.48,53.5 37.45,76.68 24.96,24.97 49.93,37.45 78.46,37.45 0,0 3.56,0 10.7,0 7.13,0 10.7,0 10.7,0l2287.85 -303.15 -731.11 1849.19 -2173.73 386.96zm1995.41 782.82l1139.47 -2913.76 606.29 2130.94 -1745.76 782.82zm2455.47 847.03l-1159.08 -4096.03 3343.51 -1483.63 1200.1 4085.33 -3384.53 1494.33zm5151.69 -2120.24l-1735.06 -146.22 -1034.26 -3511.14c0,-7.13 -3.57,-10.7 -10.7,-10.7 -7.13,0 -10.7,-7.13 -10.7,-21.39l2769.32 189.02 0 3500.43 21.4 0zm208.64 -4231.55l-438.67 -32.1c-21.4,0 -35.66,5.35 -42.8,16.05 -7.13,10.7 -8.91,21.4 -8.91,35.67 0,14.26 1.78,26.74 8.91,37.44 7.14,10.7 21.4,16.05 42.8,16.05l438.67 30.32c110.56,7.13 201.5,49.93 271.05,130.17 69.54,80.25 105.21,172.97 105.21,278.18l0 344.16c0,21.4 5.35,35.66 16.04,41.01 8.92,7.14 21.4,10.7 35.67,10.7 14.26,0 26.75,-3.56 37.45,-10.7 10.7,-5.35 14.26,-19.61 14.26,-41.01l0 -344.16c0,-139.09 -46.36,-256.78 -140.87,-351.29 -92.73,-92.73 -206.85,-148.01 -338.81,-160.49zm427.97 2287.86c-14.27,0 -26.75,5.35 -35.67,16.05 -10.69,8.91 -16.04,21.39 -16.04,35.66l0 1483.63c0,14.26 5.35,26.75 16.04,37.45 8.92,8.91 21.4,14.26 35.67,14.26 14.26,0 26.75,-5.35 37.45,-14.26 10.7,-10.7 14.26,-23.19 14.26,-37.45l0 -1483.63c0,-14.27 -5.35,-26.75 -19.61,-35.66 -14.27,-10.7 -24.97,-16.05 -32.1,-16.05zm-9643.59 -658.01c0,0 1.78,0 5.35,0 3.56,0 1.78,0 -5.35,0l3008.27 -386.95c35.67,-14.27 64.2,-32.1 83.81,-51.72 21.4,-21.39 28.53,-49.93 21.4,-83.81 -7.13,-35.66 -23.18,-62.41 -46.36,-83.81 -24.97,-21.4 -55.28,-28.53 -89.16,-21.4l-2999.36 386.96c-26.75,7.13 -51.71,23.18 -73.11,46.36 -19.62,24.97 -26.75,51.72 -21.4,78.46 0,35.67 10.7,62.42 32.1,83.82 21.4,21.39 48.14,32.09 83.81,32.09zm0 574.2c0,0 1.78,0 5.35,0 3.56,0 1.78,0 -5.35,0l3008.27 -386.96c35.67,-14.27 64.2,-32.1 83.81,-51.71 21.4,-21.4 28.53,-49.93 21.4,-83.81 -7.13,-35.67 -23.18,-62.42 -46.36,-83.81 -24.97,-21.4 -55.28,-24.97 -89.16,-10.7l-2999.36 376.25c-26.75,7.14 -51.71,23.18 -73.11,46.37 -19.62,24.96 -26.75,51.71 -21.4,78.46 0,35.66 10.7,64.19 32.1,83.81 21.4,21.4 48.14,32.1 83.81,32.1z"/>
 </g>
</svg>
